STARTFONT 2.3
FONT -FontForge-STIX Two Math-Book-R-Normal--14-140-72-72-P-95-ISO10646-1
SIZE 14 72 72  2
FONTBOUNDINGBOX 57 60 -14 -23
COMMENT "Generated by fontforge, http://fontforge.sourceforge.net"
COMMENT "Copyright 2001-2021 The STIX Fonts Project Authors (https://github.com/stipub/stixfonts)"
STARTPROPERTIES 41
FOUNDRY "FontForge"
FAMILY_NAME "STIX Two Math"
WEIGHT_NAME "Book"
SLANT "R"
SETWIDTH_NAME "Normal"
ADD_STYLE_NAME ""
PIXEL_SIZE 14
POINT_SIZE 140
RESOLUTION_X 72
RESOLUTION_Y 72
SPACING "P"
AVERAGE_WIDTH 95
CHARSET_REGISTRY "ISO10646"
CHARSET_ENCODING "1"
FONTNAME_REGISTRY ""
CHARSET_COLLECTIONS "ASCII ISOLatin1Encoding ISO8859-2 ISO8859-5 ISO8859-7 ISO8859-9 ISO8859-4 ISO10646-1"
BITS_PER_PIXEL 2
FONT_NAME "STIXTwoMath-Regular"
FACE_NAME "STIX Two Math Regular"
COPYRIGHT "Copyright 2001-2021 The STIX Fonts Project Authors (https://github.com/stipub/stixfonts)"
FONT_VERSION "2.12 b168a"
FONT_ASCENT 11
FONT_DESCENT 3
UNDERLINE_POSITION -1
UNDERLINE_THICKNESS 1
X_HEIGHT 6
CAP_HEIGHT 8
RAW_ASCENT 762
RAW_DESCENT 238
NORM_SPACE 3
RELATIVE_WEIGHT 40
RELATIVE_SETWIDTH 50
SUPERSCRIPT_X 0
SUPERSCRIPT_Y 7
SUPERSCRIPT_SIZE 7
SUBSCRIPT_X 0
SUBSCRIPT_Y 3
SUBSCRIPT_SIZE 7
FIGURE_WIDTH 7
AVG_LOWERCASE_WIDTH 69
AVG_UPPERCASE_WIDTH 94
ENDPROPERTIES
CHARS 6611
STARTCHAR space
ENCODING 32
SWIDTH 235 0
DWIDTH 3 0
BBX 1 1 0 0
BITMAP
00
ENDCHAR
STARTCHAR exclam
ENCODING 33
SWIDTH 283 0
DWIDTH 4 0
BBX 2 9 1 0
BITMAP
A0
A0
A0
A0
50
50
00
50
A0
ENDCHAR
STARTCHAR quotedbl
ENCODING 34
SWIDTH 334 0
DWIDTH 5 0
BBX 4 3 0 7
BITMAP
77
66
55
ENDCHAR
STARTCHAR numbersign
ENCODING 35
SWIDTH 702 0
DWIDTH 10 0
BBX 8 9 1 0
BITMAP
0918
0814
AEBA
0820
1820
AAB9
2460
2050
2050
ENDCHAR
STARTCHAR dollar
ENCODING 36
SWIDTH 495 0
DWIDTH 7 0
BBX 7 11 0 -1
BITMAP
0200
1AA0
6220
7210
2E00
0BD0
02B0
4234
9234
6A90
0200
ENDCHAR
STARTCHAR percent
ENCODING 37
SWIDTH 692 0
DWIDTH 10 0
BBX 9 9 0 0
BITMAP
1A9600
304900
605800
613000
149540
009840
022480
052480
081A00
ENDCHAR
STARTCHAR ampersand
ENCODING 38
SWIDTH 736 0
DWIDTH 10 0
BBX 10 9 0 0
BITMAP
066000
092400
0A2000
078690
1A8200
30D500
A07800
706D10
2F87D0
ENDCHAR
STARTCHAR quotesingle
ENCODING 39
SWIDTH 187 0
DWIDTH 3 0
BBX 2 3 0 7
BITMAP
70
60
50
ENDCHAR
STARTCHAR parenleft
ENCODING 40
SWIDTH 357 0
DWIDTH 5 0
BBX 5 13 0 -3
BITMAP
0240
0800
1400
3000
7000
7000
6000
7000
3000
2400
1800
0600
0140
ENDCHAR
STARTCHAR parenright
ENCODING 41
SWIDTH 357 0
DWIDTH 5 0
BBX 5 13 0 -3
BITMAP
6000
0800
0900
0300
0340
0340
0240
0340
0300
0600
0900
2400
5000
ENDCHAR
STARTCHAR asterisk
ENCODING 42
SWIDTH 410 0
DWIDTH 6 0
BBX 5 6 0 4
BITMAP
0900
65C0
1A00
69C0
0900
0400
ENDCHAR
STARTCHAR plus
ENCODING 43
SWIDTH 720 0
DWIDTH 10 0
BBX 9 9 1 -1
BITMAP
018000
018000
018000
018000
FFFF40
018000
018000
018000
018000
ENDCHAR
STARTCHAR comma
ENCODING 44
SWIDTH 245 0
DWIDTH 3 0
BBX 2 4 1 -2
BITMAP
90
E0
20
80
ENDCHAR
STARTCHAR hyphen
ENCODING 45
SWIDTH 315 0
DWIDTH 4 0
BBX 4 1 0 3
BITMAP
7E
ENDCHAR
STARTCHAR period
ENCODING 46
SWIDTH 245 0
DWIDTH 3 0
BBX 2 2 1 0
BITMAP
90
D0
ENDCHAR
STARTCHAR slash
ENCODING 47
SWIDTH 386 0
DWIDTH 5 0
BBX 5 12 0 -2
BITMAP
0080
0140
0200
0200
0500
0900
0800
1800
2400
2000
6000
5000
ENDCHAR
STARTCHAR zero
ENCODING 48
SWIDTH 495 0
DWIDTH 7 0
BBX 7 9 0 0
BITMAP
1A80
3470
7034
A034
A028
A034
7034
3460
1A80
ENDCHAR
STARTCHAR one
ENCODING 49
SWIDTH 495 0
DWIDTH 7 0
BBX 5 9 1 0
BITMAP
6C00
1C00
0C00
0C00
0C00
0C00
0C00
0D00
6E40
ENDCHAR
STARTCHAR two
ENCODING 50
SWIDTH 495 0
DWIDTH 7 0
BBX 7 9 0 0
BITMAP
1B90
20B0
0070
0060
0090
0240
0500
1414
7FF0
ENDCHAR
STARTCHAR three
ENCODING 51
SWIDTH 495 0
DWIDTH 7 0
BBX 6 9 1 0
BITMAP
6E00
8280
0280
0200
1E40
02C0
00D0
4180
FA00
ENDCHAR
STARTCHAR four
ENCODING 52
SWIDTH 495 0
DWIDTH 7 0
BBX 7 9 0 0
BITMAP
00D0
02D0
05D0
08D0
20D0
50D0
BFF8
00D0
00D0
ENDCHAR
STARTCHAR five
ENCODING 53
SWIDTH 495 0
DWIDTH 7 0
BBX 5 9 1 0
BITMAP
3FC0
2500
5000
BE00
1680
00C0
00C0
4180
FA00
ENDCHAR
STARTCHAR six
ENCODING 54
SWIDTH 495 0
DWIDTH 7 0
BBX 7 9 0 0
BITMAP
0190
0D00
2800
3690
7470
7034
7034
3430
0A90
ENDCHAR
STARTCHAR seven
ENCODING 55
SWIDTH 495 0
DWIDTH 7 0
BBX 7 9 0 0
BITMAP
3FF4
6560
0020
0090
00C0
0180
0340
0600
0900
ENDCHAR
STARTCHAR eight
ENCODING 56
SWIDTH 495 0
DWIDTH 7 0
BBX 7 9 0 0
BITMAP
1990
3070
3060
2D80
0B80
24A0
6034
7030
1990
ENDCHAR
STARTCHAR nine
ENCODING 57
SWIDTH 495 0
DWIDTH 7 0
BBX 7 9 0 0
BITMAP
1A80
3060
6030
7034
3474
1A70
00A0
01C0
1A00
ENDCHAR
STARTCHAR colon
ENCODING 58
SWIDTH 245 0
DWIDTH 3 0
BBX 2 7 1 0
BITMAP
90
D0
00
00
00
90
D0
ENDCHAR
STARTCHAR semicolon
ENCODING 59
SWIDTH 245 0
DWIDTH 3 0
BBX 2 9 1 -2
BITMAP
90
D0
00
00
00
90
E0
20
80
ENDCHAR
STARTCHAR less
ENCODING 60
SWIDTH 720 0
DWIDTH 10 0
BBX 8 8 1 0
BITMAP
0001
001E
01E0
1E00
B400
1A40
00A4
000B
ENDCHAR
STARTCHAR equal
ENCODING 61
SWIDTH 720 0
DWIDTH 10 0
BBX 9 4 1 2
BITMAP
FFFF40
000000
000000
FFFF40
ENDCHAR
STARTCHAR greater
ENCODING 62
SWIDTH 720 0
DWIDTH 10 0
BBX 8 8 1 0
BITMAP
4000
B400
0B40
00B4
001E
01A4
1A40
A000
ENDCHAR
STARTCHAR question
ENCODING 63
SWIDTH 411 0
DWIDTH 6 0
BBX 6 9 0 0
BITMAP
2A80
60D0
50D0
01C0
0240
0500
0400
0500
0900
ENDCHAR
STARTCHAR at
ENCODING 64
SWIDTH 905 0
DWIDTH 13 0
BBX 11 12 1 -3
BITMAP
01AA00
190190
20A620
924A18
C60618
C60608
CA0618
C70A24
92E390
700000
1D0040
02AA40
ENDCHAR
STARTCHAR A
ENCODING 65
SWIDTH 718 0
DWIDTH 10 0
BBX 10 9 0 0
BITMAP
009000
00F000
017400
022800
050D00
0AAE00
180700
240380
B807E0
ENDCHAR
STARTCHAR B
ENCODING 66
SWIDTH 618 0
DWIDTH 9 0
BBX 8 9 0 0
BITMAP
6EA8
0C0E
0C0A
0C09
0EB8
0C0A
0C07
0C0B
6EA9
ENDCHAR
STARTCHAR C
ENCODING 67
SWIDTH 670 0
DWIDTH 9 0
BBX 9 9 0 0
BITMAP
06AF80
1D0280
380180
740000
740000
740000
380000
1D0140
06F900
ENDCHAR
STARTCHAR D
ENCODING 68
SWIDTH 730 0
DWIDTH 10 0
BBX 10 9 0 0
BITMAP
6EA900
0C0780
0C01C0
0C00D0
0C00D0
0C00D0
0C01C0
0C0380
6EA900
ENDCHAR
STARTCHAR E
ENCODING 69
SWIDTH 626 0
DWIDTH 9 0
BBX 9 9 0 0
BITMAP
6EAB00
0C0100
0C0400
0C0800
0EA800
0C0400
0C0140
0C0240
6EAB00
ENDCHAR
STARTCHAR F
ENCODING 70
SWIDTH 588 0
DWIDTH 8 0
BBX 8 9 0 0
BITMAP
6EAB
0C01
0C08
0C08
0EA8
0C04
0C00
0D00
6E40
ENDCHAR
STARTCHAR G
ENCODING 71
SWIDTH 720 0
DWIDTH 10 0
BBX 10 9 0 0
BITMAP
06AF80
1D0280
380180
740000
740690
740280
380280
1D0280
06AA00
ENDCHAR
STARTCHAR H
ENCODING 72
SWIDTH 777 0
DWIDTH 11 0
BBX 10 9 1 0
BITMAP
B91B90
340340
340340
340340
3AAB40
340340
340340
340340
B91B90
ENDCHAR
STARTCHAR I
ENCODING 73
SWIDTH 357 0
DWIDTH 5 0
BBX 5 9 0 0
BITMAP
6E40
1C00
0C00
0C00
0C00
0C00
0C00
0C00
6E40
ENDCHAR
STARTCHAR J
ENCODING 74
SWIDTH 396 0
DWIDTH 6 0
BBX 5 9 0 0
BITMAP
1B80
0700
0700
0700
0700
0700
0700
8700
A900
ENDCHAR
STARTCHAR K
ENCODING 75
SWIDTH 702 0
DWIDTH 10 0
BBX 10 9 0 0
BITMAP
6E4B80
1C0900
0C2000
0D8000
0E8000
0DE000
0C2800
0C0E00
6E4B90
ENDCHAR
STARTCHAR L
ENCODING 76
SWIDTH 585 0
DWIDTH 8 0
BBX 8 9 0 0
BITMAP
6E40
1D00
0C00
0C00
0C00
0C00
0C01
1C02
6EAE
ENDCHAR
STARTCHAR M
ENCODING 77
SWIDTH 895 0
DWIDTH 13 0
BBX 12 9 0 0
BITMAP
6D003D
1F0078
1B40A8
1681A8
15D228
14A228
147928
143828
6D147D
ENDCHAR
STARTCHAR N
ENCODING 78
SWIDTH 742 0
DWIDTH 10 0
BBX 10 9 0 0
BITMAP
7D02E0
1F0080
1B8080
15E080
147480
142C80
140B80
140380
6D0180
ENDCHAR
STARTCHAR O
ENCODING 79
SWIDTH 738 0
DWIDTH 10 0
BBX 10 9 0 0
BITMAP
06A900
1D0280
3801D0
7400E0
7400E0
7400D0
3801D0
1C0280
06A900
ENDCHAR
STARTCHAR P
ENCODING 80
SWIDTH 569 0
DWIDTH 8 0
BBX 7 9 1 0
BITMAP
BAA0
3034
3028
3074
3A90
3000
3000
3400
B900
ENDCHAR
STARTCHAR Q
ENCODING 81
SWIDTH 737 0
DWIDTH 10 0
BBX 10 12 0 -3
BITMAP
06A900
1D0280
3801D0
7400E0
7400E0
7400E0
3801D0
1C0280
06A900
003800
001E00
0006A0
ENDCHAR
STARTCHAR R
ENCODING 82
SWIDTH 659 0
DWIDTH 9 0
BBX 9 9 0 0
BITMAP
6EA800
1C0E00
0C0A00
0C1D00
0EE000
0C7400
0C2C00
1D0E00
2E4780
ENDCHAR
STARTCHAR S
ENCODING 83
SWIDTH 504 0
DWIDTH 7 0
BBX 7 9 0 0
BITMAP
1AF0
7030
7010
2D00
07D0
00B4
4038
6034
7AA0
ENDCHAR
STARTCHAR T
ENCODING 84
SWIDTH 603 0
DWIDTH 8 0
BBX 9 9 0 0
BITMAP
BAEB00
81C240
41C000
01C000
01C000
01C000
01C000
01C000
07E000
ENDCHAR
STARTCHAR U
ENCODING 85
SWIDTH 752 0
DWIDTH 11 0
BBX 10 9 0 0
BITMAP
6E02E0
1C00C0
1C0080
1C0080
1C0080
1C0080
1C0080
0E0240
06FD00
ENDCHAR
STARTCHAR V
ENCODING 86
SWIDTH 680 0
DWIDTH 10 0
BBX 10 9 0 0
BITMAP
BD02D0
280240
1D0200
0E0500
070800
034800
02E000
00E000
009000
ENDCHAR
STARTCHAR W
ENCODING 87
SWIDTH 944 0
DWIDTH 13 0
BBX 13 9 0 0
BITMAP
B96E0780
280D0200
1C0A0200
0E0B0500
0B178800
0361D800
02A0E400
01D0B000
00805000
ENDCHAR
STARTCHAR X
ENCODING 88
SWIDTH 664 0
DWIDTH 9 0
BBX 9 9 0 0
BITMAP
7E0B80
0E0900
075800
02A000
00E000
027400
092C00
180E00
781F80
ENDCHAR
STARTCHAR Y
ENCODING 89
SWIDTH 647 0
DWIDTH 9 0
BBX 9 9 0 0
BITMAP
BD0780
2C0500
0A0800
075400
02E000
00D000
00D000
00D000
06E400
ENDCHAR
STARTCHAR Z
ENCODING 90
SWIDTH 594 0
DWIDTH 8 0
BBX 8 9 0 0
BITMAP
3AAE
201C
0074
00E0
02C0
0740
0D01
2802
7AAE
ENDCHAR
STARTCHAR bracketleft
ENCODING 91
SWIDTH 349 0
DWIDTH 5 0
BBX 3 14 1 -3
BITMAP
A4
90
90
90
90
90
90
90
90
90
90
90
90
A4
ENDCHAR
STARTCHAR backslash
ENCODING 92
SWIDTH 385 0
DWIDTH 5 0
BBX 5 12 0 -2
BITMAP
5000
2000
2000
1400
0800
0800
0500
0200
0200
0240
0180
0040
ENDCHAR
STARTCHAR bracketright
ENCODING 93
SWIDTH 349 0
DWIDTH 5 0
BBX 3 14 1 -3
BITMAP
64
18
18
18
18
18
18
18
18
18
18
18
18
68
ENDCHAR
STARTCHAR asciicircum
ENCODING 94
SWIDTH 480 0
DWIDTH 7 0
BBX 6 6 0 4
BITMAP
0100
0740
0980
1480
2060
6020
ENDCHAR
STARTCHAR underscore
ENCODING 95
SWIDTH 512 0
DWIDTH 7 0
BBX 7 1 0 -2
BITMAP
AAA8
ENDCHAR
STARTCHAR grave
ENCODING 96
SWIDTH 222 0
DWIDTH 3 0
BBX 3 2 0 8
BITMAP
70
14
ENDCHAR
STARTCHAR a
ENCODING 97
SWIDTH 480 0
DWIDTH 7 0
BBX 7 7 0 0
BITMAP
1680
30D0
0090
09D0
3090
70D0
3AB4
ENDCHAR
STARTCHAR b
ENCODING 98
SWIDTH 522 0
DWIDTH 7 0
BBX 7 10 0 0
BITMAP
7400
3400
3400
36E0
3834
3428
3418
3428
3434
2A90
ENDCHAR
STARTCHAR c
ENCODING 99
SWIDTH 446 0
DWIDTH 6 0
BBX 6 7 0 0
BITMAP
1A90
20A0
6000
6000
6000
3860
1F80
ENDCHAR
STARTCHAR d
ENCODING 100
SWIDTH 539 0
DWIDTH 8 0
BBX 7 10 0 0
BITMAP
0074
0034
0034
0AB4
3034
6034
A034
7034
7474
1F78
ENDCHAR
STARTCHAR e
ENCODING 101
SWIDTH 464 0
DWIDTH 7 0
BBX 6 7 0 0
BITMAP
1A80
20A0
6AA0
A000
7000
3860
1B80
ENDCHAR
STARTCHAR f
ENCODING 102
SWIDTH 307 0
DWIDTH 4 0
BBX 5 10 0 0
BITMAP
0AC0
1840
2800
6E40
2800
2800
2800
2800
2800
7D00
ENDCHAR
STARTCHAR g
ENCODING 103
SWIDTH 484 0
DWIDTH 7 0
BBX 7 10 0 -3
BITMAP
1AE4
30A0
7060
34A0
2A40
7000
3FF4
5014
A024
7E90
ENDCHAR
STARTCHAR h
ENCODING 104
SWIDTH 577 0
DWIDTH 8 0
BBX 8 10 0 0
BITMAP
6800
2800
2800
29E0
2928
2818
2818
2818
2818
7D6D
ENDCHAR
STARTCHAR i
ENCODING 105
SWIDTH 285 0
DWIDTH 4 0
BBX 4 9 0 0
BITMAP
28
14
68
28
28
28
28
28
7D
ENDCHAR
STARTCHAR j
ENCODING 106
SWIDTH 263 0
DWIDTH 4 0
BBX 4 12 -1 -3
BITMAP
0A
05
1A
0A
0A
0A
0A
0A
0A
09
89
E8
ENDCHAR
STARTCHAR k
ENCODING 107
SWIDTH 542 0
DWIDTH 8 0
BBX 8 10 0 0
BITMAP
6800
2800
2800
28B8
2880
2A00
2B40
29C0
28A0
7D79
ENDCHAR
STARTCHAR l
ENCODING 108
SWIDTH 283 0
DWIDTH 4 0
BBX 4 10 0 0
BITMAP
68
28
28
28
28
28
28
28
28
7D
ENDCHAR
STARTCHAR m
ENCODING 109
SWIDTH 852 0
DWIDTH 12 0
BBX 12 7 0 0
BITMAP
69B2A0
282824
282828
282828
282828
282828
7D7D7D
ENDCHAR
STARTCHAR n
ENCODING 110
SWIDTH 576 0
DWIDTH 8 0
BBX 8 7 0 0
BITMAP
69F0
2828
2818
2818
2818
2818
7D6D
ENDCHAR
STARTCHAR o
ENCODING 111
SWIDTH 514 0
DWIDTH 7 0
BBX 7 7 0 0
BITMAP
1A90
3034
7028
A028
7028
3434
1A90
ENDCHAR
STARTCHAR p
ENCODING 112
SWIDTH 537 0
DWIDTH 8 0
BBX 7 10 0 -3
BITMAP
76E0
2828
241C
241C
241C
2824
2E90
2400
2800
7D00
ENDCHAR
STARTCHAR q
ENCODING 113
SWIDTH 521 0
DWIDTH 7 0
BBX 7 10 0 -3
BITMAP
0AA4
3034
6034
A034
6034
7474
1F74
0034
0034
00B8
ENDCHAR
STARTCHAR r
ENCODING 114
SWIDTH 380 0
DWIDTH 5 0
BBX 5 7 0 0
BITMAP
6AC0
2940
2800
2800
2800
2800
7D00
ENDCHAR
STARTCHAR s
ENCODING 115
SWIDTH 395 0
DWIDTH 6 0
BBX 5 7 0 0
BITMAP
2A80
6080
7400
1F40
42C0
50C0
6A40
ENDCHAR
STARTCHAR t
ENCODING 116
SWIDTH 315 0
DWIDTH 4 0
BBX 4 9 0 0
BITMAP
04
24
7A
24
24
24
24
28
1E
ENDCHAR
STARTCHAR u
ENCODING 117
SWIDTH 570 0
DWIDTH 8 0
BBX 8 7 0 0
BITMAP
7478
2428
2428
2428
2428
2828
1EA9
ENDCHAR
STARTCHAR v
ENCODING 118
SWIDTH 481 0
DWIDTH 7 0
BBX 7 7 0 0
BITMAP
B478
3420
2850
1C80
0D80
0B40
0300
ENDCHAR
STARTCHAR w
ENCODING 119
SWIDTH 749 0
DWIDTH 10 0
BBX 11 7 0 0
BITMAP
B4B474
343020
283450
1C9880
0D8D40
0B4B00
030600
ENDCHAR
STARTCHAR x
ENCODING 120
SWIDTH 479 0
DWIDTH 7 0
BBX 7 7 0 0
BITMAP
78B4
1C80
0A40
0740
0A80
24D0
B0B4
ENDCHAR
STARTCHAR y
ENCODING 121
SWIDTH 483 0
DWIDTH 7 0
BBX 7 10 0 -3
BITMAP
B478
3420
2850
0C80
0A80
0740
0300
0200
5800
B400
ENDCHAR
STARTCHAR z
ENCODING 122
SWIDTH 458 0
DWIDTH 6 0
BBX 6 7 0 0
BITMAP
7AE0
51D0
0380
0A00
1D10
2820
7AB0
ENDCHAR
STARTCHAR braceleft
ENCODING 123
SWIDTH 327 0
DWIDTH 5 0
BBX 4 14 0 -3
BITMAP
05
18
24
24
18
18
20
60
14
18
24
24
24
09
ENDCHAR
STARTCHAR bar
ENCODING 124
SWIDTH 267 0
DWIDTH 4 0
BBX 2 13 1 -3
BITMAP
90
90
90
90
90
90
90
90
90
90
90
90
90
ENDCHAR
STARTCHAR braceright
ENCODING 125
SWIDTH 327 0
DWIDTH 5 0
BBX 4 14 0 -3
BITMAP
64
0C
09
0C
0C
0C
09
06
0C
0C
0C
0D
0C
64
ENDCHAR
STARTCHAR asciitilde
ENCODING 126
SWIDTH 557 0
DWIDTH 8 0
BBX 7 2 0 3
BITMAP
2A58
51A4
ENDCHAR
STARTCHAR uni00A0
ENCODING 160
SWIDTH 235 0
DWIDTH 3 0
BBX 1 1 0 0
BITMAP
00
ENDCHAR
STARTCHAR exclamdown
ENCODING 161
SWIDTH 282 0
DWIDTH 4 0
BBX 2 10 1 -3
BITMAP
A0
50
00
50
50
90
A0
A0
A0
A0
ENDCHAR
STARTCHAR cent
ENCODING 162
SWIDTH 495 0
DWIDTH 7 0
BBX 6 10 0 -1
BITMAP
0200
0690
2670
2210
6200
7200
3A20
1BD0
0200
0200
ENDCHAR
STARTCHAR sterling
ENCODING 163
SWIDTH 495 0
DWIDTH 7 0
BBX 7 9 0 0
BITMAP
02A0
0824
0C00
0D00
6E80
0D00
0900
6D14
96E0
ENDCHAR
STARTCHAR currency
ENCODING 164
SWIDTH 617 0
DWIDTH 9 0
BBX 8 8 0 0
BITMAP
5002
2AA9
1818
2409
2409
181C
26AA
1001
ENDCHAR
STARTCHAR yen
ENCODING 165
SWIDTH 495 0
DWIDTH 7 0
BBX 7 9 0 0
BITMAP
A864
3820
1D50
0A80
2BA0
0340
2BA0
0340
0B90
ENDCHAR
STARTCHAR brokenbar
ENCODING 166
SWIDTH 267 0
DWIDTH 4 0
BBX 2 10 1 0
BITMAP
90
90
90
90
00
00
90
90
90
90
ENDCHAR
STARTCHAR section
ENCODING 167
SWIDTH 491 0
DWIDTH 7 0
BBX 5 12 1 -3
BITMAP
1640
5180
6000
2800
5B00
8280
A080
7940
1E00
4340
C240
5600
ENDCHAR
STARTCHAR dieresis
ENCODING 168
SWIDTH 392 0
DWIDTH 5 0
BBX 5 2 0 8
BITMAP
6180
61C0
ENDCHAR
STARTCHAR copyright
ENCODING 169
SWIDTH 781 0
DWIDTH 11 0
BBX 10 10 0 0
BITMAP
015500
090180
109910
220120
530010
530010
224120
10A810
090180
015500
ENDCHAR
STARTCHAR ordfeminine
ENCODING 170
SWIDTH 410 0
DWIDTH 6 0
BBX 6 5 0 4
BITMAP
2640
1180
1680
6180
79D0
ENDCHAR
STARTCHAR guillemotleft
ENCODING 171
SWIDTH 517 0
DWIDTH 7 0
BBX 7 6 0 0
BITMAP
0514
1490
6180
2490
0820
0104
ENDCHAR
STARTCHAR logicalnot
ENCODING 172
SWIDTH 720 0
DWIDTH 10 0
BBX 8 5 1 1
BITMAP
FFFF
0003
0003
0003
0003
ENDCHAR
STARTCHAR uni00AD
ENCODING 173
SWIDTH 315 0
DWIDTH 4 0
BBX 4 1 0 3
BITMAP
7E
ENDCHAR
STARTCHAR registered
ENCODING 174
SWIDTH 413 0
DWIDTH 6 0
BBX 6 6 0 5
BITMAP
0500
1540
4A10
4A10
1540
0500
ENDCHAR
STARTCHAR macron
ENCODING 175
SWIDTH 350 0
DWIDTH 5 0
BBX 5 1 0 8
BITMAP
6A40
ENDCHAR
STARTCHAR degree
ENCODING 176
SWIDTH 409 0
DWIDTH 6 0
BBX 5 5 0 6
BITMAP
1A00
2080
6080
2080
1A00
ENDCHAR
STARTCHAR plusminus
ENCODING 177
SWIDTH 720 0
DWIDTH 10 0
BBX 9 9 1 0
BITMAP
014000
018000
018000
FFFF40
018000
018000
018000
000000
FFFF40
ENDCHAR
STARTCHAR twosuperior
ENCODING 178
SWIDTH 373 0
DWIDTH 5 0
BBX 5 6 0 4
BITMAP
2A00
4280
0240
0500
1440
BF80
ENDCHAR
STARTCHAR threesuperior
ENCODING 179
SWIDTH 374 0
DWIDTH 5 0
BBX 5 6 0 4
BITMAP
2A00
0200
1A00
0280
0180
6600
ENDCHAR
STARTCHAR acute
ENCODING 180
SWIDTH 222 0
DWIDTH 3 0
BBX 3 2 0 8
BITMAP
24
50
ENDCHAR
STARTCHAR uni00B5
ENCODING 181
SWIDTH 556 0
DWIDTH 8 0
BBX 8 10 0 -3
BITMAP
3434
3430
3030
3030
3060
35A5
6B2D
6000
6000
6000
ENDCHAR
STARTCHAR paragraph
ENCODING 182
SWIDTH 605 0
DWIDTH 8 0
BBX 8 12 0 -3
BITMAP
1AA9
31A4
71A4
31A4
25A4
06A4
01A4
01A4
01A4
01A4
02A8
0659
ENDCHAR
STARTCHAR periodcentered
ENCODING 183
SWIDTH 282 0
DWIDTH 4 0
BBX 2 2 1 3
BITMAP
50
A0
ENDCHAR
STARTCHAR cedilla
ENCODING 184
SWIDTH 247 0
DWIDTH 3 0
BBX 3 4 0 -3
BITMAP
10
28
0C
64
ENDCHAR
STARTCHAR onesuperior
ENCODING 185
SWIDTH 343 0
DWIDTH 5 0
BBX 3 6 1 4
BITMAP
B0
30
30
30
30
B4
ENDCHAR
STARTCHAR ordmasculine
ENCODING 186
SWIDTH 432 0
DWIDTH 6 0
BBX 6 5 0 4
BITMAP
2A80
6090
A0A0
6090
2A80
ENDCHAR
STARTCHAR guillemotright
ENCODING 187
SWIDTH 517 0
DWIDTH 7 0
BBX 6 5 1 1
BITMAP
8200
6180
28A0
2490
9200
ENDCHAR
STARTCHAR onequarter
ENCODING 188
SWIDTH 861 0
DWIDTH 12 0
BBX 11 11 1 -1
BITMAP
000100
A00200
600800
601400
602010
7050A0
A48260
020560
050EB8
080060
040000
ENDCHAR
STARTCHAR onehalf
ENCODING 189
SWIDTH 889 0
DWIDTH 12 0
BBX 11 11 1 -1
BITMAP
500200
600500
600800
601400
6021A4
708118
A58018
020060
050184
0807A8
040000
ENDCHAR
STARTCHAR threequarters
ENCODING 190
SWIDTH 861 0
DWIDTH 12 0
BBX 12 11 0 -1
BITMAP
000040
2A0080
420200
1A0500
028818
025428
652098
008158
0143AE
020018
010000
ENDCHAR
STARTCHAR questiondown
ENCODING 191
SWIDTH 411 0
DWIDTH 6 0
BBX 6 10 0 -3
BITMAP
0A00
0500
0000
0400
0800
2400
7000
A0D0
6090
2A80
ENDCHAR
STARTCHAR Agrave
ENCODING 192
SWIDTH 718 0
DWIDTH 10 0
BBX 10 12 0 0
BITMAP
01D000
006000
000000
009000
00F000
017400
022800
050D00
0AAE00
180700
240380
B807E0
ENDCHAR
STARTCHAR Aacute
ENCODING 193
SWIDTH 718 0
DWIDTH 10 0
BBX 10 12 0 0
BITMAP
007400
008000
000000
009000
00F000
017400
022800
050D00
0AAE00
180700
240380
B807E0
ENDCHAR
STARTCHAR Acircumflex
ENCODING 194
SWIDTH 718 0
DWIDTH 10 0
BBX 10 12 0 0
BITMAP
00E000
025800
000000
009000
00F000
017400
022800
050D00
0AAE00
180700
240380
B807E0
ENDCHAR
STARTCHAR Atilde
ENCODING 195
SWIDTH 718 0
DWIDTH 10 0
BBX 10 12 0 0
BITMAP
02D500
016800
000000
009000
00F000
017400
022800
050D00
0AAE00
180700
240380
B807E0
ENDCHAR
STARTCHAR Adieresis
ENCODING 196
SWIDTH 718 0
DWIDTH 10 0
BBX 10 12 0 0
BITMAP
010400
070C00
000000
009000
00F000
017400
022800
050D00
0AAE00
180700
240380
B807E0
ENDCHAR
STARTCHAR Aring
ENCODING 197
SWIDTH 718 0
DWIDTH 10 0
BBX 10 13 0 0
BITMAP
00A000
015400
00A000
000000
009000
00F000
017400
022800
050D00
0AAE00
180700
240380
B807E0
ENDCHAR
STARTCHAR AE
ENCODING 198
SWIDTH 894 0
DWIDTH 13 0
BBX 12 9 0 0
BITMAP
00BEAE
005C02
009C00
021C08
02AEA8
081C08
141C01
201C02
B46EAE
ENDCHAR
STARTCHAR Ccedilla
ENCODING 199
SWIDTH 670 0
DWIDTH 9 0
BBX 9 12 0 -3
BITMAP
06AF80
1D0280
380180
740000
740000
740000
380000
1D0140
06F900
006000
002400
00A000
ENDCHAR
STARTCHAR Egrave
ENCODING 200
SWIDTH 626 0
DWIDTH 9 0
BBX 9 12 0 0
BITMAP
028000
005000
000000
6EAB00
0C0100
0C0400
0C0800
0EA800
0C0400
0C0140
0C0240
6EAB00
ENDCHAR
STARTCHAR Eacute
ENCODING 201
SWIDTH 626 0
DWIDTH 9 0
BBX 9 12 0 0
BITMAP
00A000
014000
000000
6EAB00
0C0100
0C0400
0C0800
0EA800
0C0400
0C0140
0C0240
6EAB00
ENDCHAR
STARTCHAR Ecircumflex
ENCODING 202
SWIDTH 626 0
DWIDTH 9 0
BBX 9 12 0 0
BITMAP
01D000
062400
000000
6EAB00
0C0100
0C0400
0C0800
0EA800
0C0400
0C0140
0C0240
6EAB00
ENDCHAR
STARTCHAR Edieresis
ENCODING 203
SWIDTH 626 0
DWIDTH 9 0
BBX 9 12 0 0
BITMAP
051400
0A2800
000000
6EAB00
0C0100
0C0400
0C0800
0EA800
0C0400
0C0140
0C0240
6EAB00
ENDCHAR
STARTCHAR Igrave
ENCODING 204
SWIDTH 357 0
DWIDTH 5 0
BBX 5 12 0 0
BITMAP
2800
0500
0000
6E40
1C00
0C00
0C00
0C00
0C00
0C00
0C00
6E40
ENDCHAR
STARTCHAR Iacute
ENCODING 205
SWIDTH 357 0
DWIDTH 5 0
BBX 5 12 0 0
BITMAP
0A00
1400
0000
6E40
1C00
0C00
0C00
0C00
0C00
0C00
0C00
6E40
ENDCHAR
STARTCHAR Icircumflex
ENCODING 206
SWIDTH 357 0
DWIDTH 5 0
BBX 5 12 0 0
BITMAP
1D00
6240
0000
6E40
1C00
0C00
0C00
0C00
0C00
0C00
0C00
6E40
ENDCHAR
STARTCHAR Idieresis
ENCODING 207
SWIDTH 357 0
DWIDTH 5 0
BBX 5 12 0 0
BITMAP
5140
A280
0000
6E40
1C00
0C00
0C00
0C00
0C00
0C00
0C00
6E40
ENDCHAR
STARTCHAR Eth
ENCODING 208
SWIDTH 737 0
DWIDTH 10 0
BBX 10 9 0 0
BITMAP
6EA900
0D0780
0D01D0
0D00E0
6E90E0
0D00D0
0D01D0
0D0280
6EA900
ENDCHAR
STARTCHAR Ntilde
ENCODING 209
SWIDTH 742 0
DWIDTH 10 0
BBX 10 12 0 0
BITMAP
01E100
012C00
000000
7D02E0
1F0080
1B8080
15E080
147480
142C80
140B80
140380
6D0180
ENDCHAR
STARTCHAR Ograve
ENCODING 210
SWIDTH 738 0
DWIDTH 10 0
BBX 10 12 0 0
BITMAP
00D000
002400
000000
06A900
1D0280
3801D0
7400E0
7400E0
7400D0
3801D0
1C0280
06A900
ENDCHAR
STARTCHAR Oacute
ENCODING 211
SWIDTH 738 0
DWIDTH 10 0
BBX 10 12 0 0
BITMAP
003400
009000
000000
06A900
1D0280
3801D0
7400E0
7400E0
7400D0
3801D0
1C0280
06A900
ENDCHAR
STARTCHAR Ocircumflex
ENCODING 212
SWIDTH 738 0
DWIDTH 10 0
BBX 10 12 0 0
BITMAP
00B000
014800
000000
06A900
1D0280
3801D0
7400E0
7400E0
7400D0
3801D0
1C0280
06A900
ENDCHAR
STARTCHAR Otilde
ENCODING 213
SWIDTH 738 0
DWIDTH 10 0
BBX 10 12 0 0
BITMAP
01D100
012800
000000
06A900
1D0280
3801D0
7400E0
7400E0
7400D0
3801D0
1C0280
06A900
ENDCHAR
STARTCHAR Odieresis
ENCODING 214
SWIDTH 738 0
DWIDTH 10 0
BBX 10 12 0 0
BITMAP
010400
034D00
000000
06A900
1D0280
3801D0
7400E0
7400E0
7400D0
3801D0
1C0280
06A900
ENDCHAR
STARTCHAR multiply
ENCODING 215
SWIDTH 720 0
DWIDTH 10 0
BBX 8 8 1 0
BITMAP
4001
600A
2828
0AA0
03C0
0AA0
2828
A00A
ENDCHAR
STARTCHAR Oslash
ENCODING 216
SWIDTH 737 0
DWIDTH 10 0
BBX 10 9 0 0
BITMAP
06A940
1C0380
3809D0
7424E0
7450E0
7540D0
3A01D0
1D0280
26A900
ENDCHAR
STARTCHAR Ugrave
ENCODING 217
SWIDTH 752 0
DWIDTH 11 0
BBX 10 12 0 0
BITMAP
00A000
001800
000000
6E02E0
1C00C0
1C0080
1C0080
1C0080
1C0080
1C0080
0E0240
06FD00
ENDCHAR
STARTCHAR Uacute
ENCODING 218
SWIDTH 752 0
DWIDTH 11 0
BBX 10 12 0 0
BITMAP
002800
006000
000000
6E02E0
1C00C0
1C0080
1C0080
1C0080
1C0080
1C0080
0E0240
06FD00
ENDCHAR
STARTCHAR Ucircumflex
ENCODING 219
SWIDTH 752 0
DWIDTH 11 0
BBX 10 12 0 0
BITMAP
007400
008900
000000
6E02E0
1C00C0
1C0080
1C0080
1C0080
1C0080
1C0080
0E0240
06FD00
ENDCHAR
STARTCHAR Udieresis
ENCODING 220
SWIDTH 752 0
DWIDTH 11 0
BBX 10 12 0 0
BITMAP
014500
028600
000000
6E02E0
1C00C0
1C0080
1C0080
1C0080
1C0080
1C0080
0E0240
06FD00
ENDCHAR
STARTCHAR Yacute
ENCODING 221
SWIDTH 647 0
DWIDTH 9 0
BBX 9 12 0 0
BITMAP
007000
018000
000000
BD0780
2C0500
0A0800
075400
02E000
00D000
00D000
00D000
06E400
ENDCHAR
STARTCHAR Thorn
ENCODING 222
SWIDTH 572 0
DWIDTH 8 0
BBX 8 9 0 0
BITMAP
6E40
1EA4
0C1D
0C0E
0C0D
0C1C
0EA0
0C00
6E40
ENDCHAR
STARTCHAR germandbls
ENCODING 223
SWIDTH 563 0
DWIDTH 8 0
BBX 8 10 0 0
BITMAP
0960
1828
2824
6890
28A0
281C
280D
280D
2A4D
79A4
ENDCHAR
STARTCHAR agrave
ENCODING 224
SWIDTH 480 0
DWIDTH 7 0
BBX 7 10 0 0
BITMAP
0D00
0200
0000
1680
30D0
0090
09D0
3090
70D0
3AB4
ENDCHAR
STARTCHAR aacute
ENCODING 225
SWIDTH 480 0
DWIDTH 7 0
BBX 7 10 0 0
BITMAP
0240
0600
0000
1680
30D0
0090
09D0
3090
70D0
3AB4
ENDCHAR
STARTCHAR acircumflex
ENCODING 226
SWIDTH 480 0
DWIDTH 7 0
BBX 7 10 0 0
BITMAP
0B00
1480
0000
1680
30D0
0090
09D0
3090
70D0
3AB4
ENDCHAR
STARTCHAR atilde
ENCODING 227
SWIDTH 480 0
DWIDTH 7 0
BBX 7 10 0 0
BITMAP
1950
1280
0000
1680
30D0
0090
09D0
3090
70D0
3AB4
ENDCHAR
STARTCHAR adieresis
ENCODING 228
SWIDTH 480 0
DWIDTH 7 0
BBX 7 10 0 0
BITMAP
2490
34D0
0000
1680
30D0
0090
09D0
3090
70D0
3AB4
ENDCHAR
STARTCHAR aring
ENCODING 229
SWIDTH 480 0
DWIDTH 7 0
BBX 7 10 0 0
BITMAP
0A40
0880
0A40
1680
30D0
0090
09D0
3090
70D0
3AB4
ENDCHAR
STARTCHAR ae
ENCODING 230
SWIDTH 709 0
DWIDTH 10 0
BBX 10 7 0 0
BITMAP
26AA40
20D0C0
01EA90
18D000
70D000
70B490
3A2F40
ENDCHAR
STARTCHAR ccedilla
ENCODING 231
SWIDTH 446 0
DWIDTH 6 0
BBX 6 10 0 -3
BITMAP
1A90
20A0
6000
6000
6000
3460
1F80
0240
0080
0640
ENDCHAR
STARTCHAR egrave
ENCODING 232
SWIDTH 464 0
DWIDTH 7 0
BBX 6 10 0 0
BITMAP
0900
0200
0000
1A80
20A0
6AA0
A000
7000
3860
1B80
ENDCHAR
STARTCHAR eacute
ENCODING 233
SWIDTH 464 0
DWIDTH 7 0
BBX 6 10 0 0
BITMAP
0280
0200
0000
1A80
20A0
6AA0
A000
7000
3860
1B80
ENDCHAR
STARTCHAR ecircumflex
ENCODING 234
SWIDTH 464 0
DWIDTH 7 0
BBX 6 10 0 0
BITMAP
0740
1880
0000
1A80
20A0
6AA0
A000
7000
3860
1B80
ENDCHAR
STARTCHAR edieresis
ENCODING 235
SWIDTH 464 0
DWIDTH 7 0
BBX 6 10 0 0
BITMAP
2490
24A0
0000
1A80
20A0
6AA0
A000
7000
3860
1B80
ENDCHAR
STARTCHAR igrave
ENCODING 236
SWIDTH 285 0
DWIDTH 4 0
BBX 4 10 0 0
BITMAP
60
24
00
68
28
28
28
28
28
7D
ENDCHAR
STARTCHAR iacute
ENCODING 237
SWIDTH 285 0
DWIDTH 4 0
BBX 4 10 0 0
BITMAP
1C
20
00
68
28
28
28
28
28
7D
ENDCHAR
STARTCHAR icircumflex
ENCODING 238
SWIDTH 285 0
DWIDTH 4 0
BBX 4 10 0 0
BITMAP
38
98
41
68
28
28
28
28
28
7D
ENDCHAR
STARTCHAR idieresis
ENCODING 239
SWIDTH 285 0
DWIDTH 4 0
BBX 5 9 -1 0
BITMAP
7180
1140
1A00
0A00
0A00
0A00
0A00
0A00
1F40
ENDCHAR
STARTCHAR eth
ENCODING 240
SWIDTH 532 0
DWIDTH 7 0
BBX 7 10 0 0
BITMAP
1A94
01A0
0030
1AA4
3038
7028
A028
7028
3430
1A90
ENDCHAR
STARTCHAR ntilde
ENCODING 241
SWIDTH 576 0
DWIDTH 8 0
BBX 8 10 0 0
BITMAP
0654
04A0
0000
69F0
2828
2818
2818
2818
2818
7D6D
ENDCHAR
STARTCHAR ograve
ENCODING 242
SWIDTH 514 0
DWIDTH 7 0
BBX 7 10 0 0
BITMAP
0A00
0240
0000
1A90
3034
7028
A028
7028
3434
1A90
ENDCHAR
STARTCHAR oacute
ENCODING 243
SWIDTH 514 0
DWIDTH 7 0
BBX 7 10 0 0
BITMAP
01C0
0200
0000
1A90
3034
7028
A028
7028
3434
1A90
ENDCHAR
STARTCHAR ocircumflex
ENCODING 244
SWIDTH 514 0
DWIDTH 7 0
BBX 7 10 0 0
BITMAP
0740
0850
0000
1A90
3034
7028
A028
7028
3434
1A90
ENDCHAR
STARTCHAR otilde
ENCODING 245
SWIDTH 514 0
DWIDTH 7 0
BBX 7 10 0 0
BITMAP
0A50
1190
0000
1A90
3034
7028
A028
7028
3434
1A90
ENDCHAR
STARTCHAR odieresis
ENCODING 246
SWIDTH 514 0
DWIDTH 7 0
BBX 7 10 0 0
BITMAP
1860
1860
0000
1A90
3034
7028
A028
7028
3434
1A90
ENDCHAR
STARTCHAR divide
ENCODING 247
SWIDTH 720 0
DWIDTH 10 0
BBX 9 8 1 0
BITMAP
014000
028000
000000
000000
FFFF40
000000
014000
028000
ENDCHAR
STARTCHAR oslash
ENCODING 248
SWIDTH 514 0
DWIDTH 7 0
BBX 7 7 0 0
BITMAP
1AA0
3474
7168
A228
7828
3434
6A90
ENDCHAR
STARTCHAR ugrave
ENCODING 249
SWIDTH 570 0
DWIDTH 8 0
BBX 8 10 0 0
BITMAP
0700
0140
0000
7478
2428
2428
2428
2428
2828
1EA9
ENDCHAR
STARTCHAR uacute
ENCODING 250
SWIDTH 570 0
DWIDTH 8 0
BBX 8 10 0 0
BITMAP
01C0
0240
0000
7478
2428
2428
2428
2428
2828
1EA9
ENDCHAR
STARTCHAR ucircumflex
ENCODING 251
SWIDTH 570 0
DWIDTH 8 0
BBX 8 10 0 0
BITMAP
0280
0850
0000
7478
2428
2428
2428
2428
2828
1EA9
ENDCHAR
STARTCHAR udieresis
ENCODING 252
SWIDTH 570 0
DWIDTH 8 0
BBX 8 10 0 0
BITMAP
1860
1C70
0000
7478
2428
2428
2428
2428
2828
1EA9
ENDCHAR
STARTCHAR yacute
ENCODING 253
SWIDTH 483 0
DWIDTH 7 0
BBX 7 13 0 -3
BITMAP
01C0
0200
0000
B478
3420
2850
0C80
0A80
0740
0300
0200
5800
B400
ENDCHAR
STARTCHAR thorn
ENCODING 254
SWIDTH 524 0
DWIDTH 7 0
BBX 7 13 0 -3
BITMAP
7400
3400
3400
36E0
3878
3428
3418
3428
3424
3A90
3400
3400
7900
ENDCHAR
STARTCHAR ydieresis
ENCODING 255
SWIDTH 483 0
DWIDTH 7 0
BBX 7 13 0 -3
BITMAP
1860
1860
0000
B478
3420
2850
0C80
0A80
0740
0300
0200
5800
B400
ENDCHAR
STARTCHAR Amacron
ENCODING 256
SWIDTH 718 0
DWIDTH 10 0
BBX 10 11 0 0
BITMAP
02A800
000000
009000
00F000
017400
022800
050D00
0AAE00
180700
240380
B807E0
ENDCHAR
STARTCHAR amacron
ENCODING 257
SWIDTH 480 0
DWIDTH 7 0
BBX 7 9 0 0
BITMAP
2A90
0000
1680
30D0
0090
09D0
3090
70D0
3AB4
ENDCHAR
STARTCHAR Abreve
ENCODING 258
SWIDTH 718 0
DWIDTH 10 0
BBX 10 12 0 0
BITMAP
020800
01F400
000000
009000
00F000
017400
022800
050D00
0AAE00
180700
240380
B807E0
ENDCHAR
STARTCHAR abreve
ENCODING 259
SWIDTH 480 0
DWIDTH 7 0
BBX 7 10 0 0
BITMAP
2040
1A40
0000
1680
30D0
0090
09D0
3090
70D0
3AB4
ENDCHAR
STARTCHAR Aogonek
ENCODING 260
SWIDTH 719 0
DWIDTH 10 0
BBX 10 12 0 -3
BITMAP
009000
00F000
017400
022800
050D00
0AAE00
180740
240380
B807E0
002400
003000
002900
ENDCHAR
STARTCHAR aogonek
ENCODING 261
SWIDTH 480 0
DWIDTH 7 0
BBX 7 10 0 -3
BITMAP
1680
30D0
0090
19D0
7090
70D0
3AB4
0050
0180
00E4
ENDCHAR
STARTCHAR Cacute
ENCODING 262
SWIDTH 670 0
DWIDTH 9 0
BBX 9 12 0 0
BITMAP
003800
009000
000000
06AF80
1D0280
380180
740000
740000
740000
380000
1D0140
06F900
ENDCHAR
STARTCHAR cacute
ENCODING 263
SWIDTH 446 0
DWIDTH 6 0
BBX 6 10 0 0
BITMAP
0280
0200
0000
1A90
20A0
6000
6000
6000
3860
1F80
ENDCHAR
STARTCHAR Ccircumflex
ENCODING 264
SWIDTH 670 0
DWIDTH 9 0
BBX 9 12 0 0
BITMAP
00B400
014800
000000
06AF80
1D0280
380180
740000
740000
740000
380000
1D0140
06F900
ENDCHAR
STARTCHAR ccircumflex
ENCODING 265
SWIDTH 446 0
DWIDTH 6 0
BBX 6 10 0 0
BITMAP
0740
1480
0000
1A90
20A0
6000
6000
6000
3860
1F80
ENDCHAR
STARTCHAR Cdotaccent
ENCODING 266
SWIDTH 670 0
DWIDTH 9 0
BBX 9 12 0 0
BITMAP
001000
007000
000000
06AF80
1D0280
380180
740000
740000
740000
380000
1D0140
06F900
ENDCHAR
STARTCHAR cdotaccent
ENCODING 267
SWIDTH 446 0
DWIDTH 6 0
BBX 6 10 0 0
BITMAP
0600
0700
0000
1A90
20A0
6000
6000
6000
3860
1F80
ENDCHAR
STARTCHAR Ccaron
ENCODING 268
SWIDTH 670 0
DWIDTH 9 0
BBX 9 12 0 0
BITMAP
014800
00B400
000000
06AF80
1D0280
380180
740000
740000
740000
380000
1D0140
06F900
ENDCHAR
STARTCHAR ccaron
ENCODING 269
SWIDTH 446 0
DWIDTH 6 0
BBX 6 10 0 0
BITMAP
1480
0740
0000
1A90
20A0
6000
6000
6000
3860
1F80
ENDCHAR
STARTCHAR Dcaron
ENCODING 270
SWIDTH 730 0
DWIDTH 10 0
BBX 10 12 0 0
BITMAP
021400
00E000
000000
6EA900
0C0780
0C01C0
0C00D0
0C00D0
0C00D0
0C01C0
0C0380
6EA900
ENDCHAR
STARTCHAR dcaron
ENCODING 271
SWIDTH 626 0
DWIDTH 9 0
BBX 9 10 0 0
BITMAP
007640
003640
003600
0AB400
303400
603400
A03400
703400
747400
1F7800
ENDCHAR
STARTCHAR Dcroat
ENCODING 272
SWIDTH 733 0
DWIDTH 10 0
BBX 10 9 0 0
BITMAP
6EA900
0C0780
0C01C0
0C00D0
6E90E0
0C00D0
0C01C0
0C0380
6EA900
ENDCHAR
STARTCHAR dcroat
ENCODING 273
SWIDTH 540 0
DWIDTH 8 0
BBX 7 10 0 0
BITMAP
0074
02B8
0034
0AB4
3034
6034
A034
7034
7474
1F78
ENDCHAR
STARTCHAR Emacron
ENCODING 274
SWIDTH 626 0
DWIDTH 9 0
BBX 9 11 0 0
BITMAP
06A400
000000
6EAB00
0C0100
0C0400
0C0800
0EA800
0C0400
0C0140
0C0240
6EAB00
ENDCHAR
STARTCHAR emacron
ENCODING 275
SWIDTH 464 0
DWIDTH 7 0
BBX 6 9 0 0
BITMAP
1A90
0000
1A80
20A0
6AA0
A000
7000
3860
1B80
ENDCHAR
STARTCHAR Ebreve
ENCODING 276
SWIDTH 626 0
DWIDTH 9 0
BBX 9 12 0 0
BITMAP
051400
02E000
000000
6EAB00
0C0100
0C0400
0C0800
0EA800
0C0400
0C0140
0C0240
6EAB00
ENDCHAR
STARTCHAR ebreve
ENCODING 277
SWIDTH 464 0
DWIDTH 7 0
BBX 6 10 0 0
BITMAP
1050
0A80
0000
1A80
20A0
6AA0
A000
7000
3860
1B80
ENDCHAR
STARTCHAR Edotaccent
ENCODING 278
SWIDTH 626 0
DWIDTH 9 0
BBX 9 12 0 0
BITMAP
008000
00C000
000000
6EAB00
0C0100
0C0400
0C0800
0EA800
0C0400
0C0140
0C0240
6EAB00
ENDCHAR
STARTCHAR edotaccent
ENCODING 279
SWIDTH 464 0
DWIDTH 7 0
BBX 6 10 0 0
BITMAP
0600
0700
0000
1A80
20A0
6AA0
A000
7000
3860
1B80
ENDCHAR
STARTCHAR Eogonek
ENCODING 280
SWIDTH 625 0
DWIDTH 9 0
BBX 9 12 0 -3
BITMAP
6EAB00
0C0100
0C0800
0EA800
0C0800
0C0000
0C0040
0C0240
6EAB00
000800
002400
001E00
ENDCHAR
STARTCHAR eogonek
ENCODING 281
SWIDTH 464 0
DWIDTH 7 0
BBX 6 10 0 -3
BITMAP
1A80
20A0
6AA0
A000
7000
3860
1B80
0200
0500
0780
ENDCHAR
STARTCHAR Ecaron
ENCODING 282
SWIDTH 626 0
DWIDTH 9 0
BBX 9 12 0 0
BITMAP
062400
01D000
000000
6EAB00
0C0100
0C0400
0C0800
0EA800
0C0400
0C0140
0C0240
6EAB00
ENDCHAR
STARTCHAR ecaron
ENCODING 283
SWIDTH 464 0
DWIDTH 7 0
BBX 6 10 0 0
BITMAP
1880
0740
0000
1A80
20A0
6AA0
A000
7000
3860
1B80
ENDCHAR
STARTCHAR Gcircumflex
ENCODING 284
SWIDTH 720 0
DWIDTH 10 0
BBX 10 12 0 0
BITMAP
00B400
014800
000000
06AF80
1D0280
380180
740000
740690
740280
380280
1D0280
06AA00
ENDCHAR
STARTCHAR gcircumflex
ENCODING 285
SWIDTH 484 0
DWIDTH 7 0
BBX 7 13 0 -3
BITMAP
0740
1880
0000
1AE4
30A0
7060
34A0
2A40
7000
3FF4
5014
A024
7E90
ENDCHAR
STARTCHAR Gbreve
ENCODING 286
SWIDTH 720 0
DWIDTH 10 0
BBX 10 12 0 0
BITMAP
020500
01B800
000000
06AF80
1D0280
380180
740000
740690
740280
380280
1D0280
06AA00
ENDCHAR
STARTCHAR gbreve
ENCODING 287
SWIDTH 484 0
DWIDTH 7 0
BBX 7 13 0 -3
BITMAP
1050
0A80
0000
1AE4
30A0
7060
34A0
2A40
7000
3FF4
5014
A024
7E90
ENDCHAR
STARTCHAR Gdotaccent
ENCODING 288
SWIDTH 720 0
DWIDTH 10 0
BBX 10 12 0 0
BITMAP
001000
007000
000000
06AF80
1D0280
380180
740000
740690
740280
380280
1D0280
06AA00
ENDCHAR
STARTCHAR gdotaccent
ENCODING 289
SWIDTH 484 0
DWIDTH 7 0
BBX 7 13 0 -3
BITMAP
0600
0700
0000
1AE4
30A0
7060
34A0
2A40
7000
3FF4
5014
A024
7E90
ENDCHAR
STARTCHAR Gcommaaccent
ENCODING 290
SWIDTH 720 0
DWIDTH 10 0
BBX 10 13 0 -4
BITMAP
06AF80
1D0280
380180
740000
740690
740280
380280
1D0280
06AA00
00A000
00B000
002000
004000
ENDCHAR
STARTCHAR gcommaaccent
ENCODING 291
SWIDTH 484 0
DWIDTH 7 0
BBX 7 15 0 -3
BITMAP
0100
0500
0A00
0700
0000
1AE4
30A0
7060
34A0
2A40
7000
3FF4
5014
A024
7E90
ENDCHAR
STARTCHAR Hcircumflex
ENCODING 292
SWIDTH 777 0
DWIDTH 11 0
BBX 10 12 0 0
BITMAP
007400
018900
000000
6E46E0
1C01C0
0C01C0
0C01C0
0EAAC0
0C01C0
0C01C0
0C01C0
6E46E0
ENDCHAR
STARTCHAR hcircumflex
ENCODING 293
SWIDTH 577 0
DWIDTH 8 0
BBX 8 12 0 0
BITMAP
0380
0850
6800
2800
2800
29E0
2928
2818
2818
2818
2818
7D6D
ENDCHAR
STARTCHAR Hbar
ENCODING 294
SWIDTH 788 0
DWIDTH 11 0
BBX 11 9 0 0
BITMAP
6E46E4
0D01C0
6EAAE4
0D01C0
0EAAC0
0D01C0
0D01C0
0D01C0
6E46E4
ENDCHAR
STARTCHAR hbar
ENCODING 295
SWIDTH 579 0
DWIDTH 8 0
BBX 8 10 0 0
BITMAP
6800
2800
6A40
29F0
2D28
2818
2818
2818
2818
7D6D
ENDCHAR
STARTCHAR Itilde
ENCODING 296
SWIDTH 357 0
DWIDTH 5 0
BBX 5 12 0 0
BITMAP
7840
4B40
0000
6E40
1C00
0C00
0C00
0C00
0C00
0C00
0C00
6E40
ENDCHAR
STARTCHAR itilde
ENCODING 297
SWIDTH 285 0
DWIDTH 4 0
BBX 4 9 0 0
BITMAP
BE
00
68
28
28
28
28
28
7D
ENDCHAR
STARTCHAR Imacron
ENCODING 298
SWIDTH 357 0
DWIDTH 5 0
BBX 5 11 0 0
BITMAP
6A40
0000
6E40
1C00
0C00
0C00
0C00
0C00
0C00
0C00
6E40
ENDCHAR
STARTCHAR imacron
ENCODING 299
SWIDTH 285 0
DWIDTH 4 0
BBX 4 9 0 0
BITMAP
A9
00
68
28
28
28
28
28
7D
ENDCHAR
STARTCHAR Ibreve
ENCODING 300
SWIDTH 357 0
DWIDTH 5 0
BBX 5 12 0 0
BITMAP
5140
2E00
0000
6E40
1C00
0C00
0C00
0C00
0C00
0C00
0C00
6E40
ENDCHAR
STARTCHAR ibreve
ENCODING 301
SWIDTH 285 0
DWIDTH 4 0
BBX 4 10 0 0
BITMAP
81
78
00
68
28
28
28
28
28
7D
ENDCHAR
STARTCHAR Iogonek
ENCODING 302
SWIDTH 357 0
DWIDTH 5 0
BBX 5 12 0 -3
BITMAP
6E40
1C00
0C00
0C00
0C00
0C00
0C00
0C00
6E40
0800
2400
2A00
ENDCHAR
STARTCHAR iogonek
ENCODING 303
SWIDTH 285 0
DWIDTH 4 0
BBX 4 13 0 -3
BITMAP
28
14
00
68
28
28
28
28
28
7D
20
60
79
ENDCHAR
STARTCHAR Idotaccent
ENCODING 304
SWIDTH 357 0
DWIDTH 5 0
BBX 5 12 0 0
BITMAP
0800
0C00
0000
6E40
1C00
0C00
0C00
0C00
0C00
0C00
0C00
6E40
ENDCHAR
STARTCHAR dotlessi
ENCODING 305
SWIDTH 285 0
DWIDTH 4 0
BBX 4 7 0 0
BITMAP
68
28
28
28
28
28
7D
ENDCHAR
STARTCHAR IJ
ENCODING 306
SWIDTH 753 0
DWIDTH 11 0
BBX 10 9 0 0
BITMAP
6E46E0
1C01C0
0C01C0
0C01C0
0C01C0
0C01C0
0C01C0
0C21C0
6E6A40
ENDCHAR
STARTCHAR ij
ENCODING 307
SWIDTH 548 0
DWIDTH 8 0
BBX 7 12 0 -3
BITMAP
2828
1414
6868
2828
2828
2828
2828
2828
7D28
0024
0124
03A0
ENDCHAR
STARTCHAR Jcircumflex
ENCODING 308
SWIDTH 396 0
DWIDTH 6 0
BBX 5 12 0 0
BITMAP
0B40
1480
0000
1B80
0700
0700
0700
0700
0700
0700
8700
A900
ENDCHAR
STARTCHAR jcircumflex
ENCODING 309
SWIDTH 263 0
DWIDTH 4 0
BBX 5 13 -1 -3
BITMAP
0E00
2140
0000
1A00
0A00
0A00
0A00
0A00
0A00
0A00
0900
8900
E800
ENDCHAR
STARTCHAR Kcommaaccent
ENCODING 310
SWIDTH 702 0
DWIDTH 10 0
BBX 10 13 0 -4
BITMAP
6E4B80
1C0900
0C2000
0D8000
0E8000
0DE000
0C2800
0C0E00
6E4B90
009000
00B000
002000
004000
ENDCHAR
STARTCHAR kcommaaccent
ENCODING 311
SWIDTH 542 0
DWIDTH 8 0
BBX 8 14 0 -4
BITMAP
6800
2800
2800
28B8
2880
2A00
2B40
29C0
28A0
7D79
0240
0380
0080
0100
ENDCHAR
STARTCHAR kgreenlandic
ENCODING 312
SWIDTH 542 0
DWIDTH 8 0
BBX 8 7 0 0
BITMAP
68B8
2890
2A40
2F00
2AC0
28A0
7D79
ENDCHAR
STARTCHAR Lacute
ENCODING 313
SWIDTH 585 0
DWIDTH 8 0
BBX 8 12 0 0
BITMAP
0740
0900
0000
6E40
1D00
0C00
0C00
0C00
0C00
0C01
1C02
6EAE
ENDCHAR
STARTCHAR lacute
ENCODING 314
SWIDTH 283 0
DWIDTH 4 0
BBX 4 13 0 0
BITMAP
0D
24
00
68
28
28
28
28
28
28
28
28
7D
ENDCHAR
STARTCHAR Lcommaaccent
ENCODING 315
SWIDTH 585 0
DWIDTH 8 0
BBX 8 13 0 -4
BITMAP
6E40
1D00
0C00
0C00
0C00
0C00
0C01
1C02
6EAE
0180
02C0
0080
0100
ENDCHAR
STARTCHAR lcommaaccent
ENCODING 316
SWIDTH 283 0
DWIDTH 4 0
BBX 4 14 0 -4
BITMAP
68
28
28
28
28
28
28
28
28
7D
28
2C
08
10
ENDCHAR
STARTCHAR Lcaron
ENCODING 317
SWIDTH 585 0
DWIDTH 8 0
BBX 8 9 0 0
BITMAP
6E4C
1D08
0C04
0C00
0C00
0C00
0C01
1C02
6EAE
ENDCHAR
STARTCHAR lcaron
ENCODING 318
SWIDTH 366 0
DWIDTH 5 0
BBX 5 10 0 0
BITMAP
6980
2980
2900
2800
2800
2800
2800
2800
2800
7D00
ENDCHAR
STARTCHAR Ldot
ENCODING 319
SWIDTH 605 0
DWIDTH 8 0
BBX 8 9 0 0
BITMAP
6E40
1D00
0C00
0C09
0C0D
0C00
0C01
1C02
6EAE
ENDCHAR
STARTCHAR ldot
ENCODING 320
SWIDTH 357 0
DWIDTH 5 0
BBX 5 10 0 0
BITMAP
6800
2800
2800
2800
2880
28C0
2800
2800
2800
7D00
ENDCHAR
STARTCHAR Lslash
ENCODING 321
SWIDTH 590 0
DWIDTH 8 0
BBX 8 9 0 0
BITMAP
2E40
0D00
0D10
0E80
1D00
5D00
0D01
0D02
2EAE
ENDCHAR
STARTCHAR lslash
ENCODING 322
SWIDTH 290 0
DWIDTH 4 0
BBX 4 10 0 0
BITMAP
68
28
28
29
28
68
28
28
28
6D
ENDCHAR
STARTCHAR Nacute
ENCODING 323
SWIDTH 742 0
DWIDTH 10 0
BBX 10 12 0 0
BITMAP
003800
009000
000000
7D02E0
1F0080
1B8080
15E080
147480
142C80
140B80
140380
6D0180
ENDCHAR
STARTCHAR nacute
ENCODING 324
SWIDTH 576 0
DWIDTH 8 0
BBX 8 10 0 0
BITMAP
0090
0180
0000
69F0
2828
2818
2818
2818
2818
7D6D
ENDCHAR
STARTCHAR Ncommaaccent
ENCODING 325
SWIDTH 742 0
DWIDTH 10 0
BBX 10 13 0 -4
BITMAP
7D02E0
1F0080
1B8080
15E080
147480
142C80
140B80
140380
6D0180
00A000
00B000
002000
004000
ENDCHAR
STARTCHAR ncommaaccent
ENCODING 326
SWIDTH 576 0
DWIDTH 8 0
BBX 8 11 0 -4
BITMAP
69F0
2828
2818
2818
2818
2818
7D6D
0240
02C0
0080
0100
ENDCHAR
STARTCHAR Ncaron
ENCODING 327
SWIDTH 742 0
DWIDTH 10 0
BBX 10 12 0 0
BITMAP
014800
00B400
000000
7D02E0
1F0080
1B8080
15E080
147480
142C80
140B80
140380
6D0180
ENDCHAR
STARTCHAR ncaron
ENCODING 328
SWIDTH 576 0
DWIDTH 8 0
BBX 8 10 0 0
BITMAP
0520
02C0
0000
69F0
2828
2818
2818
2818
2818
7D6D
ENDCHAR
STARTCHAR napostrophe
ENCODING 329
SWIDTH 576 0
DWIDTH 8 0
BBX 10 10 -2 0
BITMAP
E00000
A00000
500000
469F00
028280
028180
028180
028180
028180
07D6D0
ENDCHAR
STARTCHAR Eng
ENCODING 330
SWIDTH 742 0
DWIDTH 10 0
BBX 10 12 0 -3
BITMAP
7D02E0
1F0080
1B8080
15D080
147480
142C80
140E80
140780
6D0180
000080
002080
002A00
ENDCHAR
STARTCHAR eng
ENCODING 331
SWIDTH 559 0
DWIDTH 8 0
BBX 7 10 0 -3
BITMAP
69F0
2828
2818
2818
2818
2818
7D18
0018
0224
02A0
ENDCHAR
STARTCHAR Omacron
ENCODING 332
SWIDTH 738 0
DWIDTH 10 0
BBX 10 11 0 0
BITMAP
02A900
000000
06A900
1D0280
3801D0
7400E0
7400E0
7400D0
3801D0
1C0280
06A900
ENDCHAR
STARTCHAR omacron
ENCODING 333
SWIDTH 514 0
DWIDTH 7 0
BBX 7 9 0 0
BITMAP
1AA0
0000
1A90
3034
7028
A028
7028
3434
1A90
ENDCHAR
STARTCHAR Obreve
ENCODING 334
SWIDTH 738 0
DWIDTH 10 0
BBX 10 12 0 0
BITMAP
020800
01F400
000000
06A900
1D0280
3801D0
7400E0
7400E0
7400D0
3801D0
1C0280
06A900
ENDCHAR
STARTCHAR obreve
ENCODING 335
SWIDTH 514 0
DWIDTH 7 0
BBX 7 10 0 0
BITMAP
1410
0A80
0000
1A90
3034
7028
A028
7028
3434
1A90
ENDCHAR
STARTCHAR Ohungarumlaut
ENCODING 336
SWIDTH 738 0
DWIDTH 10 0
BBX 10 12 0 0
BITMAP
006600
008800
000000
06A900
1D0280
3801D0
7400E0
7400E0
7400D0
3801D0
1C0280
06A900
ENDCHAR
STARTCHAR ohungarumlaut
ENCODING 337
SWIDTH 514 0
DWIDTH 7 0
BBX 7 10 0 0
BITMAP
0370
0590
0000
1A90
3034
7028
A028
7028
3434
1A90
ENDCHAR
STARTCHAR OE
ENCODING 338
SWIDTH 945 0
DWIDTH 13 0
BBX 13 9 0 0
BITMAP
06AFAB40
1D0A0040
380A0500
740BAD00
740A0500
740A0000
380A0080
1D0A0180
06AFAB80
ENDCHAR
STARTCHAR oe
ENCODING 339
SWIDTH 807 0
DWIDTH 11 0
BBX 11 7 0 0
BITMAP
1A96A0
303828
702AA8
A02800
702800
343E14
1A97E0
ENDCHAR
STARTCHAR Racute
ENCODING 340
SWIDTH 659 0
DWIDTH 9 0
BBX 9 12 0 0
BITMAP
00A000
024000
000000
6EA800
1C0E00
0C0A00
0C1D00
0EE000
0C7400
0C2C00
1D0E00
2E4780
ENDCHAR
STARTCHAR racute
ENCODING 341
SWIDTH 380 0
DWIDTH 5 0
BBX 5 10 0 0
BITMAP
0700
0800
0000
6AC0
2940
2800
2800
2800
2800
7D00
ENDCHAR
STARTCHAR Rcommaaccent
ENCODING 342
SWIDTH 659 0
DWIDTH 9 0
BBX 9 13 0 -4
BITMAP
6EA800
1C0E00
0C0A00
0C1D00
0EE000
0C7400
0C2C00
1D0E00
2E4780
009000
00E000
005000
004000
ENDCHAR
STARTCHAR rcommaaccent
ENCODING 343
SWIDTH 380 0
DWIDTH 5 0
BBX 5 11 0 -4
BITMAP
6AC0
2940
2800
2800
2800
2800
7D00
1800
2C00
0800
1000
ENDCHAR
STARTCHAR Rcaron
ENCODING 344
SWIDTH 659 0
DWIDTH 9 0
BBX 9 12 0 0
BITMAP
062000
02D000
000000
6EA800
1C0E00
0C0A00
0C1D00
0EE000
0C7400
0C2C00
1D0E00
2E4780
ENDCHAR
STARTCHAR rcaron
ENCODING 345
SWIDTH 380 0
DWIDTH 5 0
BBX 5 10 0 0
BITMAP
2140
0E00
0000
6AC0
2940
2800
2800
2800
2800
7D00
ENDCHAR
STARTCHAR Sacute
ENCODING 346
SWIDTH 504 0
DWIDTH 7 0
BBX 7 12 0 0
BITMAP
0280
0500
0000
1AF0
7030
7010
2D00
07D0
00B4
4038
6034
7AA0
ENDCHAR
STARTCHAR sacute
ENCODING 347
SWIDTH 394 0
DWIDTH 6 0
BBX 5 10 0 0
BITMAP
0700
0900
0000
2A80
6080
7400
1F40
42C0
50C0
6A40
ENDCHAR
STARTCHAR Scircumflex
ENCODING 348
SWIDTH 504 0
DWIDTH 7 0
BBX 7 12 0 0
BITMAP
0740
1890
0000
1AF0
7030
7010
2D00
07D0
00B4
4038
6034
7AA0
ENDCHAR
STARTCHAR scircumflex
ENCODING 349
SWIDTH 394 0
DWIDTH 6 0
BBX 5 10 0 0
BITMAP
0E00
2140
0000
2A80
6080
7400
1F40
42C0
50C0
6A40
ENDCHAR
STARTCHAR uni015E
ENCODING 350
SWIDTH 504 0
DWIDTH 7 0
BBX 7 12 0 -3
BITMAP
1AF0
7030
7010
2D00
07D0
00B4
4038
6034
7BA0
0240
0080
0640
ENDCHAR
STARTCHAR uni015F
ENCODING 351
SWIDTH 394 0
DWIDTH 6 0
BBX 5 10 0 -3
BITMAP
2A80
6080
7400
1F40
42C0
50C0
6A40
0A00
0200
1900
ENDCHAR
STARTCHAR Scaron
ENCODING 352
SWIDTH 504 0
DWIDTH 7 0
BBX 7 12 0 0
BITMAP
0890
0740
0000
1AF0
7030
7010
2D00
07D0
00B4
4038
6034
7AA0
ENDCHAR
STARTCHAR scaron
ENCODING 353
SWIDTH 394 0
DWIDTH 6 0
BBX 5 10 0 0
BITMAP
2140
0E00
0000
2A80
6080
7400
1F40
42C0
50C0
6A40
ENDCHAR
STARTCHAR uni0162
ENCODING 354
SWIDTH 603 0
DWIDTH 8 0
BBX 9 12 0 -3
BITMAP
BAEB00
81C240
41C000
01C000
01C000
01C000
01C000
01C000
07E000
019000
006000
019000
ENDCHAR
STARTCHAR uni0163
ENCODING 355
SWIDTH 315 0
DWIDTH 4 0
BBX 4 12 0 -3
BITMAP
04
24
7A
24
24
24
24
28
1E
0A
03
19
ENDCHAR
STARTCHAR Tcaron
ENCODING 356
SWIDTH 603 0
DWIDTH 8 0
BBX 9 12 0 0
BITMAP
052000
02D000
000000
BAEB00
81C240
41C000
01C000
01C000
01C000
01C000
01C000
07E000
ENDCHAR
STARTCHAR tcaron
ENCODING 357
SWIDTH 353 0
DWIDTH 5 0
BBX 5 10 0 0
BITMAP
0180
0580
2500
7A00
2400
2400
2400
2400
2800
1E00
ENDCHAR
STARTCHAR Tbar
ENCODING 358
SWIDTH 603 0
DWIDTH 8 0
BBX 9 9 0 0
BITMAP
BAEB00
81C140
01C000
0AE400
01C000
01C000
01C000
01C000
07E000
ENDCHAR
STARTCHAR tbar
ENCODING 359
SWIDTH 328 0
DWIDTH 5 0
BBX 4 9 0 0
BITMAP
04
24
7A
24
7A
24
24
28
1E
ENDCHAR
STARTCHAR Utilde
ENCODING 360
SWIDTH 752 0
DWIDTH 11 0
BBX 10 12 0 0
BITMAP
00E100
011D00
000000
6E02E0
1C00C0
1C0080
1C0080
1C0080
1C0080
1C0080
0E0240
06FD00
ENDCHAR
STARTCHAR utilde
ENCODING 361
SWIDTH 570 0
DWIDTH 8 0
BBX 8 10 0 0
BITMAP
0A50
1190
0000
7478
2428
2428
2428
2428
2828
1EA9
ENDCHAR
STARTCHAR Umacron
ENCODING 362
SWIDTH 752 0
DWIDTH 11 0
BBX 10 11 0 0
BITMAP
01AA00
000000
6E02E0
1C00C0
1C0080
1C0080
1C0080
1C0080
1C0080
0E0240
06FD00
ENDCHAR
STARTCHAR umacron
ENCODING 363
SWIDTH 570 0
DWIDTH 8 0
BBX 8 9 0 0
BITMAP
0AA0
0000
7478
2428
2428
2428
2428
2828
1EA9
ENDCHAR
STARTCHAR Ubreve
ENCODING 364
SWIDTH 752 0
DWIDTH 11 0
BBX 10 12 0 0
BITMAP
014500
00B800
000000
6E02E0
1C00C0
1C0080
1C0080
1C0080
1C0080
1C0080
0E0240
06FD00
ENDCHAR
STARTCHAR ubreve
ENCODING 365
SWIDTH 570 0
DWIDTH 8 0
BBX 8 10 0 0
BITMAP
0420
0690
0000
7478
2428
2428
2428
2428
2828
1EA9
ENDCHAR
STARTCHAR Uring
ENCODING 366
SWIDTH 752 0
DWIDTH 11 0
BBX 10 13 0 0
BITMAP
006400
008800
006400
000000
6E02E0
1C00C0
1C0080
1C0080
1C0080
1C0080
1C0080
0E0240
06FD00
ENDCHAR
STARTCHAR uring
ENCODING 367
SWIDTH 570 0
DWIDTH 8 0
BBX 8 10 0 0
BITMAP
0280
0850
0280
7478
2428
2428
2428
2428
2828
1EA9
ENDCHAR
STARTCHAR Uhungarumlaut
ENCODING 368
SWIDTH 752 0
DWIDTH 11 0
BBX 10 12 0 0
BITMAP
002640
005500
000000
6E02E0
1C00C0
1C0080
1C0080
1C0080
1C0080
1C0080
0E0240
06FD00
ENDCHAR
STARTCHAR uhungarumlaut
ENCODING 369
SWIDTH 570 0
DWIDTH 8 0
BBX 8 10 0 0
BITMAP
0374
0550
0000
7478
2428
2428
2428
2428
2828
1EA9
ENDCHAR
STARTCHAR Uogonek
ENCODING 370
SWIDTH 753 0
DWIDTH 11 0
BBX 10 12 0 -3
BITMAP
6E02E0
1C00C0
1C0080
1C0080
1C0080
1C0080
1C0080
0E0280
06FE00
002000
006000
003900
ENDCHAR
STARTCHAR uogonek
ENCODING 371
SWIDTH 570 0
DWIDTH 8 0
BBX 8 10 0 -3
BITMAP
7478
2428
2428
2428
2428
2828
0FA9
0050
0080
00A8
ENDCHAR
STARTCHAR Wcircumflex
ENCODING 372
SWIDTH 944 0
DWIDTH 13 0
BBX 13 12 0 0
BITMAP
001D0000
00620000
00000000
B96E0780
280D0200
1C0A0200
0E0B0500
0B178800
0361D800
02A0E400
01D0B000
00805000
ENDCHAR
STARTCHAR wcircumflex
ENCODING 373
SWIDTH 749 0
DWIDTH 10 0
BBX 11 10 0 0
BITMAP
00B000
014800
000000
B4B474
343020
283450
1C9880
0D8D40
0B4B00
030600
ENDCHAR
STARTCHAR Ycircumflex
ENCODING 374
SWIDTH 647 0
DWIDTH 9 0
BBX 9 12 0 0
BITMAP
00E000
021400
000000
BD0780
2C0500
0A0800
075400
02E000
00D000
00D000
00D000
06E400
ENDCHAR
STARTCHAR ycircumflex
ENCODING 375
SWIDTH 483 0
DWIDTH 7 0
BBX 7 13 0 -3
BITMAP
0740
0850
0000
B478
3420
2850
0C80
0A80
0740
0300
0200
5800
B400
ENDCHAR
STARTCHAR Ydieresis
ENCODING 376
SWIDTH 647 0
DWIDTH 9 0
BBX 9 12 0 0
BITMAP
050400
061C00
000000
BD0780
2C0500
0A0800
075400
02E000
00D000
00D000
00D000
06E400
ENDCHAR
STARTCHAR Zacute
ENCODING 377
SWIDTH 594 0
DWIDTH 8 0
BBX 8 12 0 0
BITMAP
00A0
0240
0000
3AAE
201C
0074
00E0
02C0
0740
0D01
2802
7AAE
ENDCHAR
STARTCHAR zacute
ENCODING 378
SWIDTH 458 0
DWIDTH 6 0
BBX 6 10 0 0
BITMAP
0280
0200
0000
7AE0
51D0
0380
0A00
1D10
2820
7AB0
ENDCHAR
STARTCHAR Zdotaccent
ENCODING 379
SWIDTH 594 0
DWIDTH 8 0
BBX 8 12 0 0
BITMAP
0080
01C0
0000
3AAE
201C
0074
00E0
02C0
0740
0D01
2802
7AAE
ENDCHAR
STARTCHAR zdotaccent
ENCODING 380
SWIDTH 458 0
DWIDTH 6 0
BBX 6 10 0 0
BITMAP
0600
0700
0000
7AE0
51D0
0380
0A00
1D10
2820
7AB0
ENDCHAR
STARTCHAR Zcaron
ENCODING 381
SWIDTH 594 0
DWIDTH 8 0
BBX 8 12 0 0
BITMAP
0620
01D0
0000
3AAE
201C
0074
00E0
02C0
0740
0D01
2802
7AAE
ENDCHAR
STARTCHAR zcaron
ENCODING 382
SWIDTH 458 0
DWIDTH 6 0
BBX 6 10 0 0
BITMAP
1480
0740
0000
7AE0
51D0
0380
0A00
1D10
2820
7AB0
ENDCHAR
STARTCHAR longs
ENCODING 383
SWIDTH 285 0
DWIDTH 4 0
BBX 5 10 0 0
BITMAP
0AC0
1840
2800
6800
2800
2800
2800
2800
2800
7D00
ENDCHAR
STARTCHAR uni0180
ENCODING 384
SWIDTH 522 0
DWIDTH 7 0
BBX 7 10 0 0
BITMAP
7400
BA80
3400
36E0
3834
3428
3418
3428
3434
2A90
ENDCHAR
STARTCHAR uni0188
ENCODING 392
SWIDTH 446 0
DWIDTH 6 0
BBX 8 9 0 0
BITMAP
002D
0055
1AD0
20A0
6000
6000
6000
3860
1F80
ENDCHAR
STARTCHAR uni0190
ENCODING 400
SWIDTH 518 0
DWIDTH 7 0
BBX 7 9 0 0
BITMAP
1AA4
7024
3400
0B80
2800
7000
7000
7414
1BD0
ENDCHAR
STARTCHAR uni0192
ENCODING 402
SWIDTH 301 0
DWIDTH 4 0
BBX 6 13 -1 -3
BITMAP
02A0
0610
0A00
1A80
0A00
0A00
0A00
0A00
0A00
0A00
0900
4900
A800
ENDCHAR
STARTCHAR uni0195
ENCODING 405
SWIDTH 798 0
DWIDTH 11 0
BBX 11 10 0 0
BITMAP
680000
280000
280000
2AE060
283424
282814
282804
282814
281820
7D0B90
ENDCHAR
STARTCHAR uni0199
ENCODING 409
SWIDTH 538 0
DWIDTH 8 0
BBX 8 10 0 0
BITMAP
06D0
1850
2800
28B4
2880
2A00
2B40
2AC0
28A0
7979
ENDCHAR
STARTCHAR uni019A
ENCODING 410
SWIDTH 287 0
DWIDTH 4 0
BBX 4 10 0 0
BITMAP
68
28
28
28
69
28
28
28
28
7D
ENDCHAR
STARTCHAR uni019B
ENCODING 411
SWIDTH 495 0
DWIDTH 7 0
BBX 7 10 0 0
BITMAP
7800
1640
1A00
0240
0380
0A80
0D50
1820
3420
B428
ENDCHAR
STARTCHAR uni019E
ENCODING 414
SWIDTH 559 0
DWIDTH 8 0
BBX 8 10 0 -3
BITMAP
69F0
2828
2818
2818
2818
2818
7D18
0018
0018
001D
ENDCHAR
STARTCHAR Ohorn
ENCODING 416
SWIDTH 737 0
DWIDTH 10 0
BBX 10 12 0 0
BITMAP
000010
000070
000060
06AF40
1C0280
3801D0
7400E0
7400E0
7400D0
3801C0
1C0280
06A900
ENDCHAR
STARTCHAR ohorn
ENCODING 417
SWIDTH 516 0
DWIDTH 7 0
BBX 7 9 0 0
BITMAP
000C
0008
1AF4
3034
7028
A028
7028
3434
1A90
ENDCHAR
STARTCHAR uni01A5
ENCODING 421
SWIDTH 522 0
DWIDTH 7 0
BBX 7 13 0 -3
BITMAP
0AD0
2440
2400
36E0
3874
3428
3418
3428
3434
3A90
3400
3400
7900
ENDCHAR
STARTCHAR uni01AA
ENCODING 426
SWIDTH 298 0
DWIDTH 4 0
BBX 7 13 -1 -3
BITMAP
6900
4600
8700
1B00
0700
0700
0700
0700
0700
0700
0300
0314
01B4
ENDCHAR
STARTCHAR uni01AB
ENCODING 427
SWIDTH 321 0
DWIDTH 5 0
BBX 5 12 0 -3
BITMAP
0400
2400
7A00
2400
2400
2400
2400
2800
1E40
0140
1140
1A00
ENDCHAR
STARTCHAR uni01AD
ENCODING 429
SWIDTH 315 0
DWIDTH 4 0
BBX 6 10 0 0
BITMAP
0AD0
1450
2400
7A00
2400
2400
2400
2400
2800
1E00
ENDCHAR
STARTCHAR Uhorn
ENCODING 431
SWIDTH 762 0
DWIDTH 11 0
BBX 12 12 0 0
BITMAP
000009
000009
000004
6E02C0
1C00C0
1C0080
1C0080
1C0080
1C0080
1C0080
0E0240
06FD00
ENDCHAR
STARTCHAR uhorn
ENCODING 432
SWIDTH 574 0
DWIDTH 8 0
BBX 8 9 0 0
BITMAP
0003
0002
7478
2428
2428
2428
2428
2828
1EA9
ENDCHAR
STARTCHAR uni01B5
ENCODING 437
SWIDTH 594 0
DWIDTH 8 0
BBX 8 9 0 0
BITMAP
3AAE
2028
00B0
1AE4
0340
0B00
1D01
3802
7AAE
ENDCHAR
STARTCHAR uni01BA
ENCODING 442
SWIDTH 430 0
DWIDTH 6 0
BBX 6 10 0 -3
BITMAP
AAC0
4340
0900
1E40
01D0
00D0
0280
2900
5080
2A80
ENDCHAR
STARTCHAR uni01BB
ENCODING 443
SWIDTH 508 0
DWIDTH 7 0
BBX 7 10 0 0
BITMAP
1B80
20A0
4070
0070
0060
6AE4
0240
0900
2554
7FF4
ENDCHAR
STARTCHAR uni01BE
ENCODING 446
SWIDTH 406 0
DWIDTH 6 0
BBX 6 9 0 0
BITMAP
0800
2800
7E40
2800
0280
00C0
40D0
50C0
6A40
ENDCHAR
STARTCHAR uni01C0
ENCODING 448
SWIDTH 250 0
DWIDTH 4 0
BBX 2 10 1 0
BITMAP
90
90
90
90
90
90
90
90
90
90
ENDCHAR
STARTCHAR uni01C1
ENCODING 449
SWIDTH 423 0
DWIDTH 6 0
BBX 4 10 1 0
BITMAP
96
96
96
96
96
96
96
96
96
96
ENDCHAR
STARTCHAR uni01C2
ENCODING 450
SWIDTH 422 0
DWIDTH 6 0
BBX 6 10 0 0
BITMAP
0A00
0A00
0A00
6E90
0A00
6E90
0A00
0A00
0A00
0A00
ENDCHAR
STARTCHAR uni01C3
ENCODING 451
SWIDTH 245 0
DWIDTH 3 0
BBX 2 10 1 0
BITMAP
D0
D0
D0
90
80
80
80
40
40
D0
ENDCHAR
STARTCHAR uni01DE
ENCODING 478
SWIDTH 718 0
DWIDTH 10 0
BBX 10 13 0 0
BITMAP
02A800
010400
070C00
000000
009000
00F000
017400
022800
050D00
0AAE00
180700
240380
B807E0
ENDCHAR
STARTCHAR uni01DF
ENCODING 479
SWIDTH 480 0
DWIDTH 7 0
BBX 7 11 0 0
BITMAP
2A90
2490
34D0
0000
1680
30D0
0090
09D0
3090
70D0
3AB4
ENDCHAR
STARTCHAR uni01F0
ENCODING 496
SWIDTH 263 0
DWIDTH 4 0
BBX 5 13 -1 -3
BITMAP
2140
0E00
0000
1A00
0A00
0A00
0A00
0A00
0A00
0A00
0900
8900
E800
ENDCHAR
STARTCHAR Aringacute
ENCODING 506
SWIDTH 718 0
DWIDTH 10 0
BBX 10 15 0 0
BITMAP
007400
008000
00A000
015400
00A000
000000
009000
00F000
017400
022800
050D00
0AAE00
180700
240380
B807E0
ENDCHAR
STARTCHAR aringacute
ENCODING 507
SWIDTH 480 0
DWIDTH 7 0
BBX 7 13 0 0
BITMAP
0340
0900
0000
0A40
0880
0A40
1680
30D0
0090
09D0
3090
70D0
3AB4
ENDCHAR
STARTCHAR AEacute
ENCODING 508
SWIDTH 894 0
DWIDTH 13 0
BBX 12 12 0 0
BITMAP
0001D0
000200
000000
00BEAE
005C02
009C00
021C08
02AEA8
081C08
141C01
201C02
B46EAE
ENDCHAR
STARTCHAR aeacute
ENCODING 509
SWIDTH 709 0
DWIDTH 10 0
BBX 10 10 0 0
BITMAP
00A000
008000
000000
26AA40
20D0C0
01EA90
18D000
70D000
70B490
3A2F40
ENDCHAR
STARTCHAR Oslashacute
ENCODING 510
SWIDTH 737 0
DWIDTH 10 0
BBX 10 12 0 0
BITMAP
003400
009000
000000
06A940
1C0380
3809D0
7424E0
7450E0
7540D0
3A01D0
1D0280
26A900
ENDCHAR
STARTCHAR oslashacute
ENCODING 511
SWIDTH 514 0
DWIDTH 7 0
BBX 7 10 0 0
BITMAP
0280
0200
0000
1AA0
3474
7168
A228
7828
3434
6A90
ENDCHAR
STARTCHAR uni0218
ENCODING 536
SWIDTH 504 0
DWIDTH 7 0
BBX 7 13 0 -4
BITMAP
1AF0
7030
7010
2D00
07D0
00B4
4038
6034
7AA0
0600
0740
0140
0100
ENDCHAR
STARTCHAR uni0219
ENCODING 537
SWIDTH 394 0
DWIDTH 6 0
BBX 5 11 0 -4
BITMAP
2A80
6080
7400
1F40
42C0
50C0
6A40
0900
0E00
0500
0400
ENDCHAR
STARTCHAR uni021A
ENCODING 538
SWIDTH 603 0
DWIDTH 8 0
BBX 9 13 0 -4
BITMAP
BAEB00
81C240
41C000
01C000
01C000
01C000
01C000
01C000
07E000
018000
01C000
008000
010000
ENDCHAR
STARTCHAR uni021B
ENCODING 539
SWIDTH 315 0
DWIDTH 4 0
BBX 4 13 0 -4
BITMAP
04
24
7A
24
24
24
24
28
1E
09
0E
05
04
ENDCHAR
STARTCHAR uni0221
ENCODING 545
SWIDTH 674 0
DWIDTH 9 0
BBX 10 12 0 -2
BITMAP
007400
003400
003400
0AB400
303400
603400
A03400
703540
747510
1F6D40
001400
002000
ENDCHAR
STARTCHAR uni0228
ENCODING 552
SWIDTH 626 0
DWIDTH 9 0
BBX 9 12 0 -3
BITMAP
6EAB00
0C0100
0C0400
0C0800
0EA800
0C0400
0C0140
0C0240
6EEB00
009000
002000
019000
ENDCHAR
STARTCHAR uni0229
ENCODING 553
SWIDTH 464 0
DWIDTH 7 0
BBX 6 10 0 -3
BITMAP
1A80
20A0
6AA0
A000
7000
3860
1F80
0640
0180
0640
ENDCHAR
STARTCHAR uni0234
ENCODING 564
SWIDTH 399 0
DWIDTH 6 0
BBX 6 12 0 -2
BITMAP
7400
3400
3400
3400
3400
3400
3400
3590
3520
1D40
0400
2000
ENDCHAR
STARTCHAR uni0235
ENCODING 565
SWIDTH 702 0
DWIDTH 10 0
BBX 10 9 0 -2
BITMAP
69A000
282400
282800
282800
282850
282910
7D1A50
000800
001400
ENDCHAR
STARTCHAR uni0236
ENCODING 566
SWIDTH 406 0
DWIDTH 6 0
BBX 6 11 0 -2
BITMAP
0400
2400
7A00
2400
2400
2400
2450
2610
1E50
0400
1000
ENDCHAR
STARTCHAR uni0237
ENCODING 567
SWIDTH 263 0
DWIDTH 4 0
BBX 4 10 -1 -3
BITMAP
1A
0A
0A
0A
0A
0A
0A
09
89
E8
ENDCHAR
STARTCHAR uni0250
ENCODING 592
SWIDTH 475 0
DWIDTH 7 0
BBX 6 7 0 0
BITMAP
B6E0
2870
2460
2980
2800
2860
1990
ENDCHAR
STARTCHAR uni0251
ENCODING 593
SWIDTH 542 0
DWIDTH 8 0
BBX 7 7 0 0
BITMAP
0AA4
3034
6034
A034
6034
7474
1F78
ENDCHAR
STARTCHAR uni0252
ENCODING 594
SWIDTH 544 0
DWIDTH 8 0
BBX 7 7 0 0
BITMAP
6AE4
2828
281C
280C
280C
2818
2AA0
ENDCHAR
STARTCHAR uni0253
ENCODING 595
SWIDTH 518 0
DWIDTH 7 0
BBX 6 10 1 0
BITMAP
2B40
9100
D000
DB80
E1D0
D0A0
D0A0
D0A0
D0D0
AA40
ENDCHAR
STARTCHAR uni0254
ENCODING 596
SWIDTH 454 0
DWIDTH 6 0
BBX 6 7 0 0
BITMAP
1F80
51D0
00A0
0060
0060
7090
2940
ENDCHAR
STARTCHAR uni0255
ENCODING 597
SWIDTH 447 0
DWIDTH 6 0
BBX 6 9 0 -2
BITMAP
1AD0
20A0
6000
6000
7190
3920
1F90
1400
1000
ENDCHAR
STARTCHAR uni0256
ENCODING 598
SWIDTH 528 0
DWIDTH 7 0
BBX 9 13 0 -3
BITMAP
007400
003400
003400
0AB400
303400
603400
A03400
703400
747400
1F7400
003400
002440
001A80
ENDCHAR
STARTCHAR uni0257
ENCODING 599
SWIDTH 542 0
DWIDTH 8 0
BBX 9 10 0 0
BITMAP
000A80
002440
003400
0AB400
303400
603400
A03400
703400
747400
1F7800
ENDCHAR
STARTCHAR uni0258
ENCODING 600
SWIDTH 466 0
DWIDTH 7 0
BBX 6 7 0 0
BITMAP
1A80
7060
6AB0
0030
0070
51E0
1F80
ENDCHAR
STARTCHAR uni0259
ENCODING 601
SWIDTH 464 0
DWIDTH 7 0
BBX 6 7 0 0
BITMAP
1F80
51E0
0070
0070
6AB0
7060
1A80
ENDCHAR
STARTCHAR uni025A
ENCODING 602
SWIDTH 642 0
DWIDTH 9 0
BBX 9 7 0 0
BITMAP
1F8000
51E540
007680
007000
6AB000
706000
1A8000
ENDCHAR
STARTCHAR uni025B
ENCODING 603
SWIDTH 399 0
DWIDTH 6 0
BBX 5 7 0 0
BITMAP
2A80
6080
3000
1E00
7000
6000
2E40
ENDCHAR
STARTCHAR uni025C
ENCODING 604
SWIDTH 398 0
DWIDTH 6 0
BBX 5 7 0 0
BITMAP
6A40
51C0
0180
1B00
01C0
41C0
2A40
ENDCHAR
STARTCHAR uni025D
ENCODING 605
SWIDTH 575 0
DWIDTH 8 0
BBX 8 7 0 0
BITMAP
6A40
51E5
014A
1B40
01C0
41C0
2A40
ENDCHAR
STARTCHAR uni025E
ENCODING 606
SWIDTH 500 0
DWIDTH 7 0
BBX 7 7 0 0
BITMAP
09A0
3024
6030
A2D0
6034
3024
1AA0
ENDCHAR
STARTCHAR uni025F
ENCODING 607
SWIDTH 272 0
DWIDTH 4 0
BBX 5 10 -1 -3
BITMAP
1A00
0A00
1F40
0A00
0A00
0A00
0A00
0A00
8900
E800
ENDCHAR
STARTCHAR uni0260
ENCODING 608
SWIDTH 541 0
DWIDTH 8 0
BBX 10 13 0 -3
BITMAP
000AD0
002440
003400
0AB400
303400
603400
A03400
603400
747400
1F7400
003000
206000
298000
ENDCHAR
STARTCHAR uni0261
ENCODING 609
SWIDTH 521 0
DWIDTH 7 0
BBX 7 10 0 -3
BITMAP
0AA4
3034
6034
A034
6034
7474
1F74
0030
2060
2980
ENDCHAR
STARTCHAR uni0262
ENCODING 610
SWIDTH 535 0
DWIDTH 7 0
BBX 7 7 0 0
BITMAP
0AB8
3418
7004
A068
7028
3428
1AA4
ENDCHAR
STARTCHAR uni0263
ENCODING 611
SWIDTH 479 0
DWIDTH 7 0
BBX 7 10 0 -3
BITMAP
B478
3420
2850
1C80
0D80
0740
0740
0A80
0980
0A40
ENDCHAR
STARTCHAR uni0264
ENCODING 612
SWIDTH 466 0
DWIDTH 7 0
BBX 7 7 0 0
BITMAP
A9A0
8724
0980
10C0
20D0
20C0
0A40
ENDCHAR
STARTCHAR uni0265
ENCODING 613
SWIDTH 553 0
DWIDTH 8 0
BBX 8 10 0 -3
BITMAP
7468
2428
2428
2428
2428
2828
0BA8
0028
0028
002D
ENDCHAR
STARTCHAR uni0266
ENCODING 614
SWIDTH 577 0
DWIDTH 8 0
BBX 8 10 0 0
BITMAP
06D0
1850
2800
29E0
2928
2818
2818
2818
2818
7D6D
ENDCHAR
STARTCHAR uni0267
ENCODING 615
SWIDTH 562 0
DWIDTH 8 0
BBX 7 13 0 -3
BITMAP
06D0
1850
2800
29F0
2928
2818
2818
2818
2818
7D18
0018
0214
02A0
ENDCHAR
STARTCHAR uni0268
ENCODING 616
SWIDTH 295 0
DWIDTH 4 0
BBX 4 10 0 0
BITMAP
28
14
00
68
28
28
69
28
28
6D
ENDCHAR
STARTCHAR uni0269
ENCODING 617
SWIDTH 286 0
DWIDTH 4 0
BBX 4 7 0 0
BITMAP
74
24
24
24
24
28
1E
ENDCHAR
STARTCHAR uni026A
ENCODING 618
SWIDTH 287 0
DWIDTH 4 0
BBX 4 7 0 0
BITMAP
7D
28
28
28
28
28
7D
ENDCHAR
STARTCHAR uni026B
ENCODING 619
SWIDTH 290 0
DWIDTH 4 0
BBX 4 10 0 0
BITMAP
68
28
28
28
BE
28
28
28
28
7D
ENDCHAR
STARTCHAR uni026C
ENCODING 620
SWIDTH 318 0
DWIDTH 4 0
BBX 4 10 0 0
BITMAP
2C
1C
1C
AC
9C
AE
1C
1C
1C
2E
ENDCHAR
STARTCHAR uni026D
ENCODING 621
SWIDTH 248 0
DWIDTH 3 0
BBX 5 13 0 -3
BITMAP
7400
3400
3400
3400
3400
3400
3400
3400
3400
3400
2400
2440
0B80
ENDCHAR
STARTCHAR uni026E
ENCODING 622
SWIDTH 590 0
DWIDTH 8 0
BBX 8 13 0 -3
BITMAP
6800
2800
2800
2EAE
281C
2834
28A0
28E4
281D
7D07
0007
050A
0764
ENDCHAR
STARTCHAR uni026F
ENCODING 623
SWIDTH 846 0
DWIDTH 12 0
BBX 12 7 0 0
BITMAP
747474
242424
242424
242424
242424
283834
1E5E69
ENDCHAR
STARTCHAR uni0270
ENCODING 624
SWIDTH 826 0
DWIDTH 12 0
BBX 12 10 0 -3
BITMAP
747474
242424
242424
242424
242424
287874
1F5F64
000024
000024
000029
ENDCHAR
STARTCHAR uni0271
ENCODING 625
SWIDTH 835 0
DWIDTH 12 0
BBX 11 10 0 -3
BITMAP
69F2E0
292824
282828
282828
282828
282828
7D7D28
000028
000224
0003A0
ENDCHAR
STARTCHAR uni0272
ENCODING 626
SWIDTH 574 0
DWIDTH 8 0
BBX 9 10 -1 -3
BITMAP
1A6800
0A0A00
0A0600
0A0600
0A0600
0A0600
0A1B40
090000
890000
E80000
ENDCHAR
STARTCHAR uni0273
ENCODING 627
SWIDTH 563 0
DWIDTH 8 0
BBX 10 10 0 -3
BITMAP
69F000
282800
281800
281800
281800
281800
7D1800
001800
001840
000AD0
ENDCHAR
STARTCHAR uni0274
ENCODING 628
SWIDTH 568 0
DWIDTH 8 0
BBX 8 7 0 0
BITMAP
781D
2D08
2748
22C8
20A8
2038
7418
ENDCHAR
STARTCHAR uni0275
ENCODING 629
SWIDTH 514 0
DWIDTH 7 0
BBX 7 7 0 0
BITMAP
1A90
3434
7028
BAA8
7028
3434
1A90
ENDCHAR
STARTCHAR uni0276
ENCODING 630
SWIDTH 732 0
DWIDTH 10 0
BBX 10 7 0 0
BITMAP
1AB590
347010
703040
603680
703040
303020
19B6A0
ENDCHAR
STARTCHAR uni0277
ENCODING 631
SWIDTH 672 0
DWIDTH 9 0
BBX 9 7 0 0
BITMAP
06A800
240300
704280
60D1C0
60D1C0
709280
1A1A00
ENDCHAR
STARTCHAR uni0278
ENCODING 632
SWIDTH 658 0
DWIDTH 9 0
BBX 9 13 0 -3
BITMAP
01C000
00C000
00C000
0AE900
34C740
70C280
A0C280
70C280
34C300
19E900
00C000
00C000
02E000
ENDCHAR
STARTCHAR uni0279
ENCODING 633
SWIDTH 380 0
DWIDTH 5 0
BBX 5 7 0 0
BITMAP
1B40
0700
0700
0700
0700
5B00
A740
ENDCHAR
STARTCHAR uni027A
ENCODING 634
SWIDTH 374 0
DWIDTH 5 0
BBX 5 10 0 0
BITMAP
0B00
0700
0700
0700
0700
0700
0700
0700
5B00
A740
ENDCHAR
STARTCHAR uni027B
ENCODING 635
SWIDTH 375 0
DWIDTH 5 0
BBX 7 10 0 -3
BITMAP
1B40
0700
0700
0700
0700
5B00
A700
0700
0314
01B4
ENDCHAR
STARTCHAR uni027C
ENCODING 636
SWIDTH 378 0
DWIDTH 5 0
BBX 5 10 0 -3
BITMAP
6AC0
2980
2800
2800
2800
2800
2800
2800
2800
7D00
ENDCHAR
STARTCHAR uni027D
ENCODING 637
SWIDTH 373 0
DWIDTH 5 0
BBX 5 10 0 -3
BITMAP
66C0
2840
2400
2400
2400
2400
2400
2400
1880
0A80
ENDCHAR
STARTCHAR uni027E
ENCODING 638
SWIDTH 371 0
DWIDTH 5 0
BBX 5 7 0 0
BITMAP
0A80
1840
2400
2400
2400
2800
7D00
ENDCHAR
STARTCHAR uni027F
ENCODING 639
SWIDTH 371 0
DWIDTH 5 0
BBX 5 7 0 0
BITMAP
A800
4600
0600
0700
0700
0700
1B40
ENDCHAR
STARTCHAR uni0280
ENCODING 640
SWIDTH 494 0
DWIDTH 7 0
BBX 7 7 0 0
BITMAP
6A90
2870
2860
2A80
29C0
28A0
7D38
ENDCHAR
STARTCHAR uni0281
ENCODING 641
SWIDTH 494 0
DWIDTH 7 0
BBX 7 7 0 0
BITMAP
7D38
28A0
29C0
2A80
2860
2870
6A90
ENDCHAR
STARTCHAR uni0282
ENCODING 642
SWIDTH 395 0
DWIDTH 6 0
BBX 5 10 0 -3
BITMAP
2A80
6080
7400
1E40
42C0
50C0
6A40
5000
5100
2900
ENDCHAR
STARTCHAR uni0283
ENCODING 643
SWIDTH 253 0
DWIDTH 4 0
BBX 7 13 -2 -3
BITMAP
00A8
0244
0240
0240
0240
0240
0240
0240
0240
0240
0240
5300
7A00
ENDCHAR
STARTCHAR uni0284
ENCODING 644
SWIDTH 286 0
DWIDTH 4 0
BBX 6 13 -1 -3
BITMAP
01B0
0610
0A00
0A00
0A00
0A00
0A00
0A00
0A00
1A40
0A00
0900
E800
ENDCHAR
STARTCHAR uni0285
ENCODING 645
SWIDTH 361 0
DWIDTH 5 0
BBX 7 10 0 -3
BITMAP
A800
4600
0700
0700
0700
0700
0700
0700
0314
01B4
ENDCHAR
STARTCHAR uni0286
ENCODING 646
SWIDTH 253 0
DWIDTH 4 0
BBX 7 13 -2 -3
BITMAP
00A8
0244
0240
0240
0240
0240
0240
0240
0240
0240
1B40
5350
2A00
ENDCHAR
STARTCHAR uni0287
ENCODING 647
SWIDTH 315 0
DWIDTH 4 0
BBX 4 9 0 -2
BITMAP
78
4C
0C
0C
0C
0C
6E
0D
08
ENDCHAR
STARTCHAR uni0288
ENCODING 648
SWIDTH 309 0
DWIDTH 4 0
BBX 5 12 0 -3
BITMAP
0400
2800
7A00
2800
2800
2800
2800
2800
2800
2800
1880
0A80
ENDCHAR
STARTCHAR uni0289
ENCODING 649
SWIDTH 580 0
DWIDTH 8 0
BBX 8 7 0 0
BITMAP
7478
2828
2828
6969
2828
2828
0FAD
ENDCHAR
STARTCHAR uni028A
ENCODING 650
SWIDTH 548 0
DWIDTH 8 0
BBX 7 7 0 0
BITMAP
2C74
1420
3018
701C
701C
3428
1AA0
ENDCHAR
STARTCHAR uni028B
ENCODING 651
SWIDTH 530 0
DWIDTH 7 0
BBX 7 7 0 0
BITMAP
7434
2428
2408
2408
2408
2810
0B90
ENDCHAR
STARTCHAR uni028C
ENCODING 652
SWIDTH 495 0
DWIDTH 7 0
BBX 7 7 0 0
BITMAP
0300
0740
0A80
14C0
2090
2070
A0B8
ENDCHAR
STARTCHAR uni028D
ENCODING 653
SWIDTH 764 0
DWIDTH 11 0
BBX 11 7 0 0
BITMAP
030600
074B00
0A8A40
15D1C0
20E0D0
20A0A0
A0B4B4
ENDCHAR
STARTCHAR uni028E
ENCODING 654
SWIDTH 492 0
DWIDTH 7 0
BBX 7 10 0 0
BITMAP
0078
0194
0200
0200
0700
0A80
15C0
20D0
2070
A0B8
ENDCHAR
STARTCHAR uni028F
ENCODING 655
SWIDTH 454 0
DWIDTH 6 0
BBX 7 7 0 0
BITMAP
B474
3450
1C80
0A40
0700
0700
0B40
ENDCHAR
STARTCHAR uni0290
ENCODING 656
SWIDTH 458 0
DWIDTH 6 0
BBX 8 10 0 -3
BITMAP
7AE0
51D0
0380
0A00
1D10
2820
7AB0
0020
0021
001A
ENDCHAR
STARTCHAR uni0291
ENCODING 657
SWIDTH 458 0
DWIDTH 6 0
BBX 7 9 0 -2
BITMAP
7AE0
51D0
0380
0A00
1D60
2914
7BA0
0800
0400
ENDCHAR
STARTCHAR uni0292
ENCODING 658
SWIDTH 443 0
DWIDTH 6 0
BBX 6 10 0 -3
BITMAP
7AE0
41C0
0340
0A00
0A40
00D0
0070
0070
90A0
7640
ENDCHAR
STARTCHAR uni0293
ENCODING 659
SWIDTH 443 0
DWIDTH 6 0
BBX 6 12 0 -5
BITMAP
7AE0
41C0
0340
0A00
0A40
00D0
0070
6470
85A0
2B80
0140
0080
ENDCHAR
STARTCHAR uni0294
ENCODING 660
SWIDTH 383 0
DWIDTH 5 0
BBX 6 10 0 0
BITMAP
2640
A0C0
00D0
00C0
0280
1900
2800
2800
2800
7D00
ENDCHAR
STARTCHAR uni0295
ENCODING 661
SWIDTH 383 0
DWIDTH 5 0
BBX 5 10 0 0
BITMAP
2640
91C0
D000
9000
7000
0A00
0700
0700
0700
1B80
ENDCHAR
STARTCHAR uni0296
ENCODING 662
SWIDTH 408 0
DWIDTH 6 0
BBX 6 10 0 0
BITMAP
6800
1800
1800
1800
1900
0280
00C0
00D0
A0C0
2640
ENDCHAR
STARTCHAR uni0297
ENCODING 663
SWIDTH 437 0
DWIDTH 6 0
BBX 6 10 0 -3
BITMAP
0A90
24A0
3010
6000
A000
A000
6000
7000
3820
1F80
ENDCHAR
STARTCHAR uni0298
ENCODING 664
SWIDTH 736 0
DWIDTH 10 0
BBX 10 10 0 0
BITMAP
06A900
180280
3400D0
7000A0
60B060
A06060
7000A0
3400D0
180280
06A900
ENDCHAR
STARTCHAR uni0299
ENCODING 665
SWIDTH 485 0
DWIDTH 7 0
BBX 7 7 0 0
BITMAP
6A90
2870
2860
2A90
2874
2834
7AA0
ENDCHAR
STARTCHAR uni029A
ENCODING 666
SWIDTH 500 0
DWIDTH 7 0
BBX 7 7 0 0
BITMAP
2980
6030
3024
1E28
7024
6030
2A90
ENDCHAR
STARTCHAR uni029B
ENCODING 667
SWIDTH 536 0
DWIDTH 8 0
BBX 9 9 0 0
BITMAP
000A80
000840
0AB800
341800
700000
606800
702800
342800
1AA400
ENDCHAR
STARTCHAR uni029C
ENCODING 668
SWIDTH 599 0
DWIDTH 8 0
BBX 8 7 0 0
BITMAP
7D2D
281C
281C
296C
281C
281C
7D2D
ENDCHAR
STARTCHAR uni029D
ENCODING 669
SWIDTH 263 0
DWIDTH 4 0
BBX 5 12 -1 -3
BITMAP
0A00
0500
1A00
0A00
0A00
0A00
0A00
0A00
0A00
6A00
8A40
A800
ENDCHAR
STARTCHAR uni029E
ENCODING 670
SWIDTH 542 0
DWIDTH 8 0
BBX 7 10 0 -3
BITMAP
78B8
1D34
0734
02B4
0174
0534
6D34
0034
0034
0038
ENDCHAR
STARTCHAR uni029F
ENCODING 671
SWIDTH 440 0
DWIDTH 6 0
BBX 6 7 0 0
BITMAP
7900
2400
2400
2400
2400
2420
7AA0
ENDCHAR
STARTCHAR uni02A0
ENCODING 672
SWIDTH 541 0
DWIDTH 8 0
BBX 10 13 0 -3
BITMAP
000AD0
002440
003400
0AB400
303400
603400
A03400
603400
747400
1F7400
003400
003400
00B800
ENDCHAR
STARTCHAR uni02A1
ENCODING 673
SWIDTH 393 0
DWIDTH 6 0
BBX 6 10 0 0
BITMAP
2640
60C0
00D0
00D0
0180
0600
2800
6E00
2800
6D00
ENDCHAR
STARTCHAR uni02A2
ENCODING 674
SWIDTH 393 0
DWIDTH 6 0
BBX 5 10 0 0
BITMAP
2640
A0C0
D040
9000
6000
1900
0300
1B80
0300
0B80
ENDCHAR
STARTCHAR uni02A3
ENCODING 675
SWIDTH 830 0
DWIDTH 12 0
BBX 11 10 0 0
BITMAP
007400
003400
003400
0ABAAC
303438
6034A0
A035D0
703740
747A08
1F7EAC
ENDCHAR
STARTCHAR uni02A4
ENCODING 676
SWIDTH 838 0
DWIDTH 12 0
BBX 12 13 0 -3
BITMAP
007400
003400
003400
0ABAAD
343428
603470
A034D0
6036D0
747428
1F780D
00000D
00080C
000A60
ENDCHAR
STARTCHAR uni02A5
ENCODING 677
SWIDTH 829 0
DWIDTH 12 0
BBX 12 12 0 -2
BITMAP
007400
003400
003400
0ABAAC
303438
6034A0
A035D0
703758
747E55
1F7EE8
000140
000200
ENDCHAR
STARTCHAR uni02A6
ENCODING 678
SWIDTH 614 0
DWIDTH 9 0
BBX 8 9 0 0
BITMAP
0400
2400
7AEA
2582
25E0
247D
240B
2803
0AA9
ENDCHAR
STARTCHAR uni02A7
ENCODING 679
SWIDTH 513 0
DWIDTH 7 0
BBX 9 13 0 -3
BITMAP
001B40
043040
243000
7AB000
247000
247000
247000
247000
287000
1E7000
007000
046000
0A9000
ENDCHAR
STARTCHAR uni02A8
ENCODING 680
SWIDTH 687 0
DWIDTH 10 0
BBX 9 9 0 0
BITMAP
040000
240000
7A2A80
2491C0
24C000
24C000
24D540
28B440
1E6E80
ENDCHAR
STARTCHAR uni02A9
ENCODING 681
SWIDTH 866 0
DWIDTH 12 0
BBX 11 13 0 -3
BITMAP
0AC000
184000
280000
7EADB4
281D1C
281C0C
281C0C
281C0C
281C0C
7D2D0C
00000C
000158
0002E4
ENDCHAR
STARTCHAR uni02AA
ENCODING 682
SWIDTH 595 0
DWIDTH 8 0
BBX 8 10 0 0
BITMAP
7400
3400
3400
34AA
3642
35D0
34B8
340A
2407
1AA8
ENDCHAR
STARTCHAR uni02AB
ENCODING 683
SWIDTH 580 0
DWIDTH 8 0
BBX 8 10 0 0
BITMAP
6800
2800
2800
2AAD
2828
2834
28A0
29C1
2B46
7FAD
ENDCHAR
STARTCHAR uni02AC
ENCODING 684
SWIDTH 599 0
DWIDTH 8 0
BBX 8 10 0 0
BITMAP
72C6
34C5
1994
0D74
0920
6186
30C1
2594
1D64
0934
ENDCHAR
STARTCHAR uni02AD
ENCODING 685
SWIDTH 479 0
DWIDTH 7 0
BBX 5 9 1 0
BITMAP
FF80
8080
8080
8080
0000
FF80
8080
8080
8080
ENDCHAR
STARTCHAR uni02AE
ENCODING 686
SWIDTH 595 0
DWIDTH 8 0
BBX 9 10 -1 -3
BITMAP
790B40
130340
030340
030340
030340
034740
01E740
000340
000340
000380
ENDCHAR
STARTCHAR uni02AF
ENCODING 687
SWIDTH 600 0
DWIDTH 8 0
BBX 11 10 -1 -3
BITMAP
790B40
130340
030340
030340
030340
034740
01E740
000340
000254
0000B8
ENDCHAR
STARTCHAR uni02B0
ENCODING 688
SWIDTH 488 0
DWIDTH 7 0
BBX 7 7 0 4
BITMAP
7400
2400
2AD0
2460
2460
2460
78B4
ENDCHAR
STARTCHAR uni02B1
ENCODING 689
SWIDTH 488 0
DWIDTH 7 0
BBX 7 8 0 4
BITMAP
0640
2480
2400
2AD0
2460
2460
2460
78B4
ENDCHAR
STARTCHAR uni02B2
ENCODING 690
SWIDTH 222 0
DWIDTH 3 0
BBX 4 10 -1 1
BITMAP
0D
04
1D
09
09
09
09
09
48
A8
ENDCHAR
STARTCHAR uni02B3
ENCODING 691
SWIDTH 325 0
DWIDTH 5 0
BBX 5 5 0 4
BITMAP
7740
2500
2400
2400
7800
ENDCHAR
STARTCHAR uni02B4
ENCODING 692
SWIDTH 325 0
DWIDTH 5 0
BBX 4 5 0 4
BITMAP
1A
06
06
0A
66
ENDCHAR
STARTCHAR uni02B5
ENCODING 693
SWIDTH 325 0
DWIDTH 5 0
BBX 6 7 0 2
BITMAP
1A40
0600
0600
0A00
6600
0600
0190
ENDCHAR
STARTCHAR uni02B6
ENCODING 694
SWIDTH 443 0
DWIDTH 6 0
BBX 6 5 0 4
BITMAP
78A0
2680
2A40
24C0
7A80
ENDCHAR
STARTCHAR uni02B7
ENCODING 695
SWIDTH 653 0
DWIDTH 9 0
BBX 9 5 0 4
BITMAP
B5D280
309200
18B200
0E2900
0A1800
ENDCHAR
STARTCHAR uni02B8
ENCODING 696
SWIDTH 427 0
DWIDTH 6 0
BBX 6 8 0 1
BITMAP
B4A0
3480
2880
0D40
0A00
0500
0800
B400
ENDCHAR
STARTCHAR uni02B9
ENCODING 697
SWIDTH 296 0
DWIDTH 4 0
BBX 2 4 1 6
BITMAP
30
70
90
80
ENDCHAR
STARTCHAR uni02BA
ENCODING 698
SWIDTH 456 0
DWIDTH 6 0
BBX 5 5 1 5
BITMAP
3240
7300
9600
8800
0400
ENDCHAR
STARTCHAR uni02BB
ENCODING 699
SWIDTH 245 0
DWIDTH 3 0
BBX 2 4 1 7
BITMAP
50
80
D0
E0
ENDCHAR
STARTCHAR uni02BC
ENCODING 700
SWIDTH 244 0
DWIDTH 3 0
BBX 3 4 0 7
BITMAP
24
78
14
10
ENDCHAR
STARTCHAR uni02BD
ENCODING 701
SWIDTH 244 0
DWIDTH 3 0
BBX 2 4 1 7
BITMAP
90
E0
80
50
ENDCHAR
STARTCHAR uni02BE
ENCODING 702
SWIDTH 203 0
DWIDTH 3 0
BBX 3 3 0 7
BITMAP
60
14
60
ENDCHAR
STARTCHAR uni02BF
ENCODING 703
SWIDTH 203 0
DWIDTH 3 0
BBX 3 3 0 7
BITMAP
64
90
64
ENDCHAR
STARTCHAR uni02C0
ENCODING 704
SWIDTH 364 0
DWIDTH 5 0
BBX 5 5 0 5
BITMAP
2500
6240
0280
0640
1800
ENDCHAR
STARTCHAR uni02C1
ENCODING 705
SWIDTH 364 0
DWIDTH 5 0
BBX 5 5 0 5
BITMAP
1600
6140
6000
2400
0A00
ENDCHAR
STARTCHAR uni02C2
ENCODING 706
SWIDTH 324 0
DWIDTH 5 0
BBX 4 5 0 6
BITMAP
01
19
70
19
02
ENDCHAR
STARTCHAR uni02C3
ENCODING 707
SWIDTH 324 0
DWIDTH 5 0
BBX 4 5 0 6
BITMAP
40
28
07
28
50
ENDCHAR
STARTCHAR uni02C4
ENCODING 708
SWIDTH 324 0
DWIDTH 5 0
BBX 5 4 0 7
BITMAP
0400
2C00
2600
8240
ENDCHAR
STARTCHAR uni02C5
ENCODING 709
SWIDTH 324 0
DWIDTH 5 0
BBX 5 4 0 7
BITMAP
4140
5200
2900
1800
ENDCHAR
STARTCHAR circumflex
ENCODING 710
SWIDTH 342 0
DWIDTH 5 0
BBX 4 2 0 8
BITMAP
1D
62
ENDCHAR
STARTCHAR caron
ENCODING 711
SWIDTH 342 0
DWIDTH 5 0
BBX 4 2 0 8
BITMAP
52
1D
ENDCHAR
STARTCHAR uni02C8
ENCODING 712
SWIDTH 284 0
DWIDTH 4 0
BBX 2 4 1 7
BITMAP
50
50
50
50
ENDCHAR
STARTCHAR uni02C9
ENCODING 713
SWIDTH 350 0
DWIDTH 5 0
BBX 5 1 0 8
BITMAP
6A40
ENDCHAR
STARTCHAR uni02CA
ENCODING 714
SWIDTH 222 0
DWIDTH 3 0
BBX 3 2 0 8
BITMAP
24
50
ENDCHAR
STARTCHAR uni02CB
ENCODING 715
SWIDTH 222 0
DWIDTH 3 0
BBX 3 2 0 8
BITMAP
70
14
ENDCHAR
STARTCHAR uni02CC
ENCODING 716
SWIDTH 284 0
DWIDTH 4 0
BBX 2 4 1 -3
BITMAP
50
50
50
50
ENDCHAR
STARTCHAR uni02CD
ENCODING 717
SWIDTH 342 0
DWIDTH 5 0
BBX 5 1 0 -2
BITMAP
AA40
ENDCHAR
STARTCHAR uni02CE
ENCODING 718
SWIDTH 222 0
DWIDTH 3 0
BBX 3 2 0 -2
BITMAP
70
14
ENDCHAR
STARTCHAR uni02CF
ENCODING 719
SWIDTH 223 0
DWIDTH 3 0
BBX 3 2 0 -2
BITMAP
24
50
ENDCHAR
STARTCHAR uni02D0
ENCODING 720
SWIDTH 341 0
DWIDTH 5 0
BBX 3 6 1 0
BITMAP
74
30
00
00
70
B4
ENDCHAR
STARTCHAR uni02D1
ENCODING 721
SWIDTH 341 0
DWIDTH 5 0
BBX 3 2 1 4
BITMAP
74
30
ENDCHAR
STARTCHAR uni02D2
ENCODING 722
SWIDTH 341 0
DWIDTH 5 0
BBX 3 5 1 1
BITMAP
A0
18
08
18
A0
ENDCHAR
STARTCHAR uni02D3
ENCODING 723
SWIDTH 341 0
DWIDTH 5 0
BBX 3 5 1 1
BITMAP
68
80
C0
80
28
ENDCHAR
STARTCHAR uni02D4
ENCODING 724
SWIDTH 341 0
DWIDTH 5 0
BBX 3 3 1 2
BITMAP
20
20
A8
ENDCHAR
STARTCHAR uni02D5
ENCODING 725
SWIDTH 341 0
DWIDTH 5 0
BBX 3 3 1 2
BITMAP
A8
20
10
ENDCHAR
STARTCHAR uni02D6
ENCODING 726
SWIDTH 341 0
DWIDTH 5 0
BBX 3 3 1 2
BITMAP
10
A4
20
ENDCHAR
STARTCHAR uni02D7
ENCODING 727
SWIDTH 341 0
DWIDTH 5 0
BBX 3 1 1 3
BITMAP
A4
ENDCHAR
STARTCHAR breve
ENCODING 728
SWIDTH 353 0
DWIDTH 5 0
BBX 5 2 0 8
BITMAP
4140
2A00
ENDCHAR
STARTCHAR dotaccent
ENCODING 729
SWIDTH 194 0
DWIDTH 3 0
BBX 2 2 0 8
BITMAP
60
70
ENDCHAR
STARTCHAR ring
ENCODING 730
SWIDTH 265 0
DWIDTH 4 0
BBX 4 3 0 7
BITMAP
28
85
28
ENDCHAR
STARTCHAR ogonek
ENCODING 731
SWIDTH 277 0
DWIDTH 4 0
BBX 3 3 0 -3
BITMAP
20
50
68
ENDCHAR
STARTCHAR tilde
ENCODING 732
SWIDTH 381 0
DWIDTH 5 0
BBX 5 2 0 8
BITMAP
2940
4640
ENDCHAR
STARTCHAR hungarumlaut
ENCODING 733
SWIDTH 350 0
DWIDTH 5 0
BBX 5 2 0 8
BITMAP
3740
5500
ENDCHAR
STARTCHAR uni02DE
ENCODING 734
SWIDTH 205 0
DWIDTH 3 0
BBX 4 2 -1 3
BITMAP
61
19
ENDCHAR
STARTCHAR uni02DF
ENCODING 735
SWIDTH 302 0
DWIDTH 4 0
BBX 4 3 0 7
BITMAP
69
2C
56
ENDCHAR
STARTCHAR uni02E0
ENCODING 736
SWIDTH 413 0
DWIDTH 6 0
BBX 6 8 0 1
BITMAP
B490
3080
2840
1D00
0A00
0A00
0700
0A00
ENDCHAR
STARTCHAR uni02E1
ENCODING 737
SWIDTH 244 0
DWIDTH 3 0
BBX 3 7 0 4
BITMAP
74
24
24
24
24
24
78
ENDCHAR
STARTCHAR uni02E2
ENCODING 738
SWIDTH 337 0
DWIDTH 5 0
BBX 5 5 0 4
BITMAP
6600
6100
2D00
4340
6600
ENDCHAR
STARTCHAR uni02E3
ENCODING 739
SWIDTH 445 0
DWIDTH 6 0
BBX 6 5 0 4
BITMAP
78D0
1D40
0A00
1680
71E0
ENDCHAR
STARTCHAR uni02E4
ENCODING 740
SWIDTH 364 0
DWIDTH 5 0
BBX 5 7 0 4
BITMAP
2680
6080
6000
2400
0700
0300
0B40
ENDCHAR
STARTCHAR uni02E5
ENCODING 741
SWIDTH 423 0
DWIDTH 6 0
BBX 6 10 0 0
BITMAP
6A90
0050
0050
0050
0050
0050
0050
0050
0050
0050
ENDCHAR
STARTCHAR uni02E6
ENCODING 742
SWIDTH 414 0
DWIDTH 6 0
BBX 6 11 0 -1
BITMAP
0040
0050
0050
6AD0
0050
0050
0050
0050
0050
0050
0040
ENDCHAR
STARTCHAR uni02E7
ENCODING 743
SWIDTH 414 0
DWIDTH 6 0
BBX 6 11 0 -1
BITMAP
0040
0050
0050
0050
0050
6AD0
0050
0050
0050
0050
0040
ENDCHAR
STARTCHAR uni02E8
ENCODING 744
SWIDTH 414 0
DWIDTH 6 0
BBX 6 10 0 0
BITMAP
0050
0050
0050
0050
0050
0050
6AD0
0050
0050
0040
ENDCHAR
STARTCHAR uni02E9
ENCODING 745
SWIDTH 414 0
DWIDTH 6 0
BBX 6 10 0 0
BITMAP
0050
0050
0050
0050
0050
0050
0050
0050
0050
6A90
ENDCHAR
STARTCHAR uni02EC
ENCODING 748
SWIDTH 341 0
DWIDTH 5 0
BBX 4 3 0 -2
BITMAP
62
2A
08
ENDCHAR
STARTCHAR uni02ED
ENCODING 749
SWIDTH 380 0
DWIDTH 5 0
BBX 5 3 0 8
BITMAP
6A80
0000
6A80
ENDCHAR
STARTCHAR uni02F7
ENCODING 759
SWIDTH 381 0
DWIDTH 5 0
BBX 5 2 0 -2
BITMAP
2940
4640
ENDCHAR
STARTCHAR uni0300
ENCODING 768
SWIDTH 0 0
DWIDTH 0 0
BBX 3 2 -5 8
BITMAP
60
24
ENDCHAR
STARTCHAR uni0301
ENCODING 769
SWIDTH 0 0
DWIDTH 0 0
BBX 2 2 -4 8
BITMAP
70
80
ENDCHAR
STARTCHAR uni0302
ENCODING 770
SWIDTH 0 0
DWIDTH 0 0
BBX 4 2 -5 8
BITMAP
38
85
ENDCHAR
STARTCHAR uni0303
ENCODING 771
SWIDTH 0 0
DWIDTH 0 0
BBX 5 2 -6 8
BITMAP
2940
4640
ENDCHAR
STARTCHAR uni0304
ENCODING 772
SWIDTH 0 0
DWIDTH 0 0
BBX 5 1 -6 8
BITMAP
6A80
ENDCHAR
STARTCHAR uni0305
ENCODING 773
SWIDTH 0 0
DWIDTH 0 0
BBX 6 1 -6 8
BITMAP
6AA0
ENDCHAR
STARTCHAR uni0306
ENCODING 774
SWIDTH 0 0
DWIDTH 0 0
BBX 4 2 -5 8
BITMAP
42
68
ENDCHAR
STARTCHAR uni0307
ENCODING 775
SWIDTH 0 0
DWIDTH 0 0
BBX 2 2 -4 8
BITMAP
90
90
ENDCHAR
STARTCHAR uni0308
ENCODING 776
SWIDTH 0 0
DWIDTH 0 0
BBX 5 2 -6 8
BITMAP
6180
71C0
ENDCHAR
STARTCHAR uni0309
ENCODING 777
SWIDTH 0 0
DWIDTH 0 0
BBX 2 3 -4 7
BITMAP
60
20
50
ENDCHAR
STARTCHAR uni030A
ENCODING 778
SWIDTH 0 0
DWIDTH 0 0
BBX 3 3 -5 7
BITMAP
68
88
68
ENDCHAR
STARTCHAR uni030B
ENCODING 779
SWIDTH 0 0
DWIDTH 0 0
BBX 5 2 -5 8
BITMAP
3740
5500
ENDCHAR
STARTCHAR uni030C
ENCODING 780
SWIDTH 0 0
DWIDTH 0 0
BBX 4 2 -5 8
BITMAP
85
38
ENDCHAR
STARTCHAR uni030D
ENCODING 781
SWIDTH 0 0
DWIDTH 0 0
BBX 2 3 -4 7
BITMAP
80
90
90
ENDCHAR
STARTCHAR uni030E
ENCODING 782
SWIDTH 0 0
DWIDTH 0 0
BBX 4 3 -5 7
BITMAP
88
89
89
ENDCHAR
STARTCHAR uni030F
ENCODING 783
SWIDTH 0 0
DWIDTH 0 0
BBX 4 2 -6 8
BITMAP
A9
22
ENDCHAR
STARTCHAR uni0310
ENCODING 784
SWIDTH 0 0
DWIDTH 0 0
BBX 4 3 -5 8
BITMAP
24
65
A9
ENDCHAR
STARTCHAR uni0311
ENCODING 785
SWIDTH 0 0
DWIDTH 0 0
BBX 4 2 -5 8
BITMAP
68
82
ENDCHAR
STARTCHAR uni0312
ENCODING 786
SWIDTH 0 0
DWIDTH 0 0
BBX 3 4 -5 8
BITMAP
04
20
74
34
ENDCHAR
STARTCHAR uni0313
ENCODING 787
SWIDTH 0 0
DWIDTH 0 0
BBX 2 4 -4 7
BITMAP
90
E0
10
40
ENDCHAR
STARTCHAR uni0314
ENCODING 788
SWIDTH 0 0
DWIDTH 0 0
BBX 2 4 -4 7
BITMAP
90
D0
80
10
ENDCHAR
STARTCHAR uni0315
ENCODING 789
SWIDTH 0 0
DWIDTH 0 0
BBX 2 3 -4 7
BITMAP
70
60
50
ENDCHAR
STARTCHAR uni0316
ENCODING 790
SWIDTH 0 0
DWIDTH 0 0
BBX 3 2 -5 -3
BITMAP
60
24
ENDCHAR
STARTCHAR uni0317
ENCODING 791
SWIDTH 0 0
DWIDTH 0 0
BBX 3 2 -4 -3
BITMAP
34
90
ENDCHAR
STARTCHAR uni0318
ENCODING 792
SWIDTH 0 0
DWIDTH 0 0
BBX 2 3 -4 -4
BITMAP
10
A0
20
ENDCHAR
STARTCHAR uni0319
ENCODING 793
SWIDTH 0 0
DWIDTH 0 0
BBX 3 3 -5 -4
BITMAP
50
64
50
ENDCHAR
STARTCHAR uni031A
ENCODING 794
SWIDTH 0 0
DWIDTH 0 0
BBX 4 3 -5 7
BITMAP
A9
05
05
ENDCHAR
STARTCHAR uni031B
ENCODING 795
SWIDTH 0 0
DWIDTH 0 0
BBX 3 3 -3 6
BITMAP
18
08
54
ENDCHAR
STARTCHAR uni031C
ENCODING 796
SWIDTH 0 0
DWIDTH 0 0
BBX 3 3 -5 -4
BITMAP
24
50
24
ENDCHAR
STARTCHAR uni031D
ENCODING 797
SWIDTH 0 0
DWIDTH 0 0
BBX 3 2 -5 -3
BITMAP
20
68
ENDCHAR
STARTCHAR uni031E
ENCODING 798
SWIDTH 0 0
DWIDTH 0 0
BBX 3 2 -5 -3
BITMAP
68
20
ENDCHAR
STARTCHAR uni031F
ENCODING 799
SWIDTH 0 0
DWIDTH 0 0
BBX 3 3 -5 -4
BITMAP
10
68
20
ENDCHAR
STARTCHAR uni0320
ENCODING 800
SWIDTH 0 0
DWIDTH 0 0
BBX 3 1 -5 -3
BITMAP
68
ENDCHAR
STARTCHAR uni0321
ENCODING 801
SWIDTH 0 0
DWIDTH 0 0
BBX 4 4 -6 -4
BITMAP
07
06
95
A8
ENDCHAR
STARTCHAR uni0322
ENCODING 802
SWIDTH 0 0
DWIDTH 0 0
BBX 5 4 -4 -4
BITMAP
7000
7000
3240
1A40
ENDCHAR
STARTCHAR uni0323
ENCODING 803
SWIDTH 0 0
DWIDTH 0 0
BBX 2 2 -4 -3
BITMAP
90
90
ENDCHAR
STARTCHAR uni0324
ENCODING 804
SWIDTH 0 0
DWIDTH 0 0
BBX 5 2 -6 -3
BITMAP
6180
71C0
ENDCHAR
STARTCHAR uni0325
ENCODING 805
SWIDTH 0 0
DWIDTH 0 0
BBX 3 3 -5 -4
BITMAP
68
88
68
ENDCHAR
STARTCHAR uni0326
ENCODING 806
SWIDTH 0 0
DWIDTH 0 0
BBX 2 4 -4 -4
BITMAP
90
E0
20
40
ENDCHAR
STARTCHAR uni0327
ENCODING 807
SWIDTH 0 0
DWIDTH 0 0
BBX 2 4 -4 -3
BITMAP
40
A0
20
A0
ENDCHAR
STARTCHAR uni0328
ENCODING 808
SWIDTH 0 0
DWIDTH 0 0
BBX 3 3 -5 -3
BITMAP
20
90
68
ENDCHAR
STARTCHAR uni0329
ENCODING 809
SWIDTH 0 0
DWIDTH 0 0
BBX 2 3 -4 -3
BITMAP
80
90
90
ENDCHAR
STARTCHAR uni032A
ENCODING 810
SWIDTH 0 0
DWIDTH 0 0
BBX 4 2 -5 -3
BITMAP
A9
82
ENDCHAR
STARTCHAR uni032B
ENCODING 811
SWIDTH 0 0
DWIDTH 0 0
BBX 5 2 -6 -3
BITMAP
5880
2A40
ENDCHAR
STARTCHAR uni032C
ENCODING 812
SWIDTH 0 0
DWIDTH 0 0
BBX 4 2 -5 -3
BITMAP
85
38
ENDCHAR
STARTCHAR uni032D
ENCODING 813
SWIDTH 0 0
DWIDTH 0 0
BBX 4 2 -5 -3
BITMAP
38
85
ENDCHAR
STARTCHAR uni032E
ENCODING 814
SWIDTH 0 0
DWIDTH 0 0
BBX 4 2 -5 -3
BITMAP
42
68
ENDCHAR
STARTCHAR uni032F
ENCODING 815
SWIDTH 0 0
DWIDTH 0 0
BBX 4 2 -5 -3
BITMAP
68
42
ENDCHAR
STARTCHAR uni0330
ENCODING 816
SWIDTH 0 0
DWIDTH 0 0
BBX 5 2 -6 -2
BITMAP
2940
4640
ENDCHAR
STARTCHAR uni0331
ENCODING 817
SWIDTH 0 0
DWIDTH 0 0
BBX 5 1 -6 -2
BITMAP
6A80
ENDCHAR
STARTCHAR uni0332
ENCODING 818
SWIDTH 0 0
DWIDTH 0 0
BBX 8 1 -7 -2
BITMAP
AAA9
ENDCHAR
STARTCHAR uni0333
ENCODING 819
SWIDTH 0 0
DWIDTH 0 0
BBX 8 3 -7 -4
BITMAP
AAA9
0000
AAA9
ENDCHAR
STARTCHAR uni0334
ENCODING 820
SWIDTH 0 0
DWIDTH 0 0
BBX 5 2 -6 3
BITMAP
2980
4640
ENDCHAR
STARTCHAR uni0335
ENCODING 821
SWIDTH 0 0
DWIDTH 0 0
BBX 5 1 -6 3
BITMAP
6A80
ENDCHAR
STARTCHAR uni0336
ENCODING 822
SWIDTH 0 0
DWIDTH 0 0
BBX 8 1 -7 3
BITMAP
AAA9
ENDCHAR
STARTCHAR uni0337
ENCODING 823
SWIDTH 0 0
DWIDTH 0 0
BBX 4 3 -5 4
BITMAP
01
18
90
ENDCHAR
STARTCHAR uni0338
ENCODING 824
SWIDTH 0 0
DWIDTH 0 0
BBX 6 12 -6 -2
BITMAP
0020
0090
0080
0140
0200
0600
0800
0800
2400
2000
5000
8000
ENDCHAR
STARTCHAR uni0339
ENCODING 825
SWIDTH 0 0
DWIDTH 0 0
BBX 2 3 -4 -4
BITMAP
90
20
90
ENDCHAR
STARTCHAR uni033A
ENCODING 826
SWIDTH 0 0
DWIDTH 0 0
BBX 4 2 -5 -3
BITMAP
82
A9
ENDCHAR
STARTCHAR uni033B
ENCODING 827
SWIDTH 0 0
DWIDTH 0 0
BBX 3 3 -5 -4
BITMAP
68
48
68
ENDCHAR
STARTCHAR uni033C
ENCODING 828
SWIDTH 0 0
DWIDTH 0 0
BBX 5 2 -6 -3
BITMAP
6680
0800
ENDCHAR
STARTCHAR uni033D
ENCODING 829
SWIDTH 0 0
DWIDTH 0 0
BBX 3 3 -5 7
BITMAP
68
28
04
ENDCHAR
STARTCHAR uni033E
ENCODING 830
SWIDTH 0 0
DWIDTH 0 0
BBX 2 5 -4 7
BITMAP
50
80
90
50
40
ENDCHAR
STARTCHAR uni033F
ENCODING 831
SWIDTH 0 0
DWIDTH 0 0
BBX 6 3 -6 7
BITMAP
AA90
0000
AA90
ENDCHAR
STARTCHAR uni0346
ENCODING 838
SWIDTH 0 0
DWIDTH 0 0
BBX 5 3 -6 7
BITMAP
6A80
6080
1040
ENDCHAR
STARTCHAR uni0347
ENCODING 839
SWIDTH 0 0
DWIDTH 0 0
BBX 5 2 -6 -3
BITMAP
6A80
6A80
ENDCHAR
STARTCHAR uni034C
ENCODING 844
SWIDTH 0 0
DWIDTH 0 0
BBX 5 4 -6 8
BITMAP
2840
4640
2940
4640
ENDCHAR
STARTCHAR uni034D
ENCODING 845
SWIDTH 0 0
DWIDTH 0 0
BBX 7 3 -7 -4
BITMAP
1010
7ABC
1010
ENDCHAR
STARTCHAR uni0359
ENCODING 857
SWIDTH 0 0
DWIDTH 0 0
BBX 4 5 -5 -5
BITMAP
20
A6
68
A6
20
ENDCHAR
STARTCHAR uni035C
ENCODING 860
SWIDTH 0 0
DWIDTH 0 0
BBX 10 3 -5 -3
BITMAP
400010
600090
1AAA40
ENDCHAR
STARTCHAR uni0360
ENCODING 864
SWIDTH 0 0
DWIDTH 0 0
BBX 8 2 -4 8
BITMAP
2A41
41A8
ENDCHAR
STARTCHAR uni0361
ENCODING 865
SWIDTH 0 0
DWIDTH 0 0
BBX 7 2 -4 8
BITMAP
1AA4
6008
ENDCHAR
STARTCHAR uni0362
ENCODING 866
SWIDTH 0 0
DWIDTH 0 0
BBX 12 3 -6 -4
BITMAP
000004
6AAAAD
000004
ENDCHAR
STARTCHAR uni037E
ENCODING 894
SWIDTH 261 0
DWIDTH 4 0
BBX 2 9 1 -2
BITMAP
A0
00
00
00
00
00
E0
20
50
ENDCHAR
STARTCHAR tonos
ENCODING 900
SWIDTH 165 0
DWIDTH 2 0
BBX 2 2 0 8
BITMAP
60
90
ENDCHAR
STARTCHAR dieresistonos
ENCODING 901
SWIDTH 426 0
DWIDTH 6 0
BBX 6 2 0 8
BITMAP
6A90
0800
ENDCHAR
STARTCHAR Alphatonos
ENCODING 902
SWIDTH 718 0
DWIDTH 10 0
BBX 10 10 0 0
BITMAP
300000
609000
50F000
017400
022800
050D00
0AAE00
180700
240380
B807E0
ENDCHAR
STARTCHAR anoteleia
ENCODING 903
SWIDTH 261 0
DWIDTH 4 0
BBX 2 1 1 6
BITMAP
A0
ENDCHAR
STARTCHAR Epsilontonos
ENCODING 904
SWIDTH 745 0
DWIDTH 10 0
BBX 10 10 0 0
BITMAP
D00000
C7EAE0
818010
018040
018140
01EA40
018000
018020
018020
07EAE0
ENDCHAR
STARTCHAR Etatonos
ENCODING 905
SWIDTH 896 0
DWIDTH 13 0
BBX 12 10 0 0
BITMAP
D00000
C7E07D
82C028
018028
018028
01EAA8
018028
018028
018028
07E07D
ENDCHAR
STARTCHAR Iotatonos
ENCODING 906
SWIDTH 478 0
DWIDTH 7 0
BBX 6 10 0 0
BITMAP
D000
C7E0
81C0
0180
0180
0180
0180
0180
01C0
07E0
ENDCHAR
STARTCHAR Omicrontonos
ENCODING 908
SWIDTH 806 0
DWIDTH 11 0
BBX 11 10 0 0
BITMAP
D00000
C1AA40
8700A0
0D0074
1D0034
1D0038
1D0034
0E0070
0700A0
01AA40
ENDCHAR
STARTCHAR Upsilontonos
ENCODING 910
SWIDTH 787 0
DWIDTH 11 0
BBX 12 10 -1 0
BITMAP
600000
62F42E
50B014
003820
001D90
000B80
000300
000300
000340
001B90
ENDCHAR
STARTCHAR Omegatonos
ENCODING 911
SWIDTH 830 0
DWIDTH 12 0
BBX 11 10 0 0
BITMAP
D1BE40
C796E0
8B00B4
0E0034
0D0034
0D0034
0A0070
134094
158298
1FD3F8
ENDCHAR
STARTCHAR iotadieresistonos
ENCODING 912
SWIDTH 259 0
DWIDTH 4 0
BBX 5 11 -1 0
BITMAP
0A00
A9C0
0800
0000
0D00
0C00
0C00
0C00
0800
0C00
0B40
ENDCHAR
STARTCHAR Alpha
ENCODING 913
SWIDTH 718 0
DWIDTH 10 0
BBX 10 9 0 0
BITMAP
009000
00F000
017400
022800
050D00
0AAE00
180700
240380
B807E0
ENDCHAR
STARTCHAR Beta
ENCODING 914
SWIDTH 618 0
DWIDTH 9 0
BBX 8 9 0 0
BITMAP
6EA8
0C0E
0C0A
0C09
0EB8
0C0A
0C07
0C0B
6EA9
ENDCHAR
STARTCHAR Gamma
ENCODING 915
SWIDTH 569 0
DWIDTH 8 0
BBX 8 10 0 0
BITMAP
7FFE
1D5A
0C02
0C00
0C00
0C00
0C00
0C00
2E00
7F80
ENDCHAR
STARTCHAR Delta
ENCODING 916
SWIDTH 667 0
DWIDTH 9 0
BBX 9 10 0 0
BITMAP
009000
01E000
02B000
023400
052800
081D00
140E00
200B00
200740
BFFF80
ENDCHAR
STARTCHAR Epsilon
ENCODING 917
SWIDTH 626 0
DWIDTH 9 0
BBX 9 9 0 0
BITMAP
6EAB00
0C0100
0C0400
0C0800
0EA800
0C0400
0C0140
0C0240
6EAB00
ENDCHAR
STARTCHAR Zeta
ENCODING 918
SWIDTH 594 0
DWIDTH 8 0
BBX 8 9 0 0
BITMAP
3AAE
201C
0074
00E0
02C0
0740
0D01
2802
7AAE
ENDCHAR
STARTCHAR Eta
ENCODING 919
SWIDTH 777 0
DWIDTH 11 0
BBX 10 9 0 0
BITMAP
6E46E0
1C01C0
0C01C0
0C01C0
0EAAC0
0C01C0
0C01C0
0C01C0
6E46E0
ENDCHAR
STARTCHAR Theta
ENCODING 920
SWIDTH 738 0
DWIDTH 10 0
BBX 10 10 0 0
BITMAP
06F900
1E5B40
2C02C0
3400D0
7504E0
76FCE0
3554D0
2C01C0
1E5B80
06F900
ENDCHAR
STARTCHAR Iota
ENCODING 921
SWIDTH 357 0
DWIDTH 5 0
BBX 5 9 0 0
BITMAP
6E40
1C00
0C00
0C00
0C00
0C00
0C00
0C00
6E40
ENDCHAR
STARTCHAR Kappa
ENCODING 922
SWIDTH 702 0
DWIDTH 10 0
BBX 10 9 0 0
BITMAP
6E4B80
1C0900
0C2000
0D8000
0E8000
0DE000
0C2800
0C0E00
6E4B90
ENDCHAR
STARTCHAR Lambda
ENCODING 923
SWIDTH 710 0
DWIDTH 10 0
BBX 10 10 0 0
BITMAP
009000
00E000
017400
022800
051C00
080E00
080B00
240340
7407D0
FC0FF0
ENDCHAR
STARTCHAR Mu
ENCODING 924
SWIDTH 895 0
DWIDTH 13 0
BBX 12 9 0 0
BITMAP
6D003D
1F0078
1B40A8
1681A8
15D228
14A228
147928
143828
6D147D
ENDCHAR
STARTCHAR Nu
ENCODING 925
SWIDTH 742 0
DWIDTH 10 0
BBX 10 9 0 0
BITMAP
7D02E0
1F0080
1B8080
15E080
147480
142C80
140B80
140380
6D0180
ENDCHAR
STARTCHAR Xi
ENCODING 926
SWIDTH 648 0
DWIDTH 9 0
BBX 9 10 0 0
BITMAP
3FFF00
255600
100000
080800
0BF800
095800
000000
500040
655640
7FFF40
ENDCHAR
STARTCHAR Omicron
ENCODING 927
SWIDTH 738 0
DWIDTH 10 0
BBX 10 9 0 0
BITMAP
06A900
1D0280
3801D0
7400E0
7400E0
7400D0
3801D0
1C0280
06A900
ENDCHAR
STARTCHAR Pi
ENCODING 928
SWIDTH 759 0
DWIDTH 11 0
BBX 10 10 0 0
BITMAP
BFFFF0
2D56D0
0C0280
0C0280
0C0280
0C0280
0C0280
0C0280
1D06D0
BF4BF0
ENDCHAR
STARTCHAR Rho
ENCODING 929
SWIDTH 569 0
DWIDTH 8 0
BBX 7 9 1 0
BITMAP
BAA0
3034
3028
3074
3A90
3000
3000
3400
B900
ENDCHAR
STARTCHAR Sigma
ENCODING 931
SWIDTH 604 0
DWIDTH 8 0
BBX 8 10 0 0
BITMAP
BFFE
395A
0D02
0740
02C0
0180
0200
0802
2556
7FFE
ENDCHAR
STARTCHAR Tau
ENCODING 932
SWIDTH 603 0
DWIDTH 8 0
BBX 9 9 0 0
BITMAP
BAEB00
81C240
41C000
01C000
01C000
01C000
01C000
01C000
07E000
ENDCHAR
STARTCHAR Upsilon
ENCODING 933
SWIDTH 647 0
DWIDTH 9 0
BBX 9 9 0 0
BITMAP
BD0780
2C0500
0A0800
075400
02E000
00D000
00D000
00D000
06E400
ENDCHAR
STARTCHAR Phi
ENCODING 934
SWIDTH 718 0
DWIDTH 10 0
BBX 10 10 0 0
BITMAP
03FC00
01F400
19A780
70A0D0
70A0E0
70A0D0
38A1C0
06A900
01F400
03FC00
ENDCHAR
STARTCHAR Chi
ENCODING 935
SWIDTH 664 0
DWIDTH 9 0
BBX 9 9 0 0
BITMAP
7E0B80
0E0900
075800
02A000
00E000
027400
092C00
180E00
781F80
ENDCHAR
STARTCHAR Psi
ENCODING 936
SWIDTH 720 0
DWIDTH 10 0
BBX 10 10 0 0
BITMAP
E3FCB0
75F4D0
34A0C0
34A0C0
34A1C0
2DA680
0BFE00
00A000
01B400
03FC00
ENDCHAR
STARTCHAR Omega
ENCODING 937
SWIDTH 777 0
DWIDTH 11 0
BBX 10 10 0 0
BITMAP
02FE00
0F57C0
2D01D0
2800E0
3800A0
2800E0
1C00D0
090280
664660
3F8BF0
ENDCHAR
STARTCHAR Iotadieresis
ENCODING 938
SWIDTH 357 0
DWIDTH 5 0
BBX 5 12 0 0
BITMAP
5140
A280
0000
6E40
1C00
0C00
0C00
0C00
0C00
0C00
0C00
6E40
ENDCHAR
STARTCHAR Upsilondieresis
ENCODING 939
SWIDTH 647 0
DWIDTH 9 0
BBX 9 12 0 0
BITMAP
050400
061C00
000000
BD0780
2C0500
0A0800
075400
02E000
00D000
00D000
00D000
06E400
ENDCHAR
STARTCHAR alphatonos
ENCODING 940
SWIDTH 561 0
DWIDTH 8 0
BBX 8 11 0 0
BITMAP
0180
0240
0200
0000
1B4D
24A8
5030
8020
5060
6165
2E2D
ENDCHAR
STARTCHAR epsilontonos
ENCODING 941
SWIDTH 381 0
DWIDTH 5 0
BBX 5 11 0 0
BITMAP
0240
0300
0200
0000
1F80
7540
2000
2A00
6000
6580
2F40
ENDCHAR
STARTCHAR etatonos
ENCODING 942
SWIDTH 510 0
DWIDTH 7 0
BBX 7 14 0 -3
BITMAP
00C0
0180
0140
0000
75E0
6670
1824
1814
1824
2424
2424
0030
0030
0070
ENDCHAR
STARTCHAR iotatonos
ENCODING 943
SWIDTH 259 0
DWIDTH 4 0
BBX 3 11 1 0
BITMAP
60
90
80
00
D0
C0
C0
C0
80
C0
B4
ENDCHAR
STARTCHAR upsilondieresistonos
ENCODING 944
SWIDTH 491 0
DWIDTH 7 0
BBX 7 11 0 0
BITMAP
0700
76A0
0500
0000
B450
6420
2424
2024
2030
25A0
1F80
ENDCHAR
STARTCHAR alpha
ENCODING 945
SWIDTH 561 0
DWIDTH 8 0
BBX 8 7 0 0
BITMAP
1B4D
24A8
5030
8020
5060
6165
2E2D
ENDCHAR
STARTCHAR beta
ENCODING 946
SWIDTH 530 0
DWIDTH 7 0
BBX 7 14 0 -3
BITMAP
02E0
0964
1818
2414
2060
2390
3024
3008
300C
3968
77E0
7000
7000
6000
ENDCHAR
STARTCHAR gamma
ENCODING 947
SWIDTH 466 0
DWIDTH 7 0
BBX 6 10 0 -3
BITMAP
7470
58A0
08D0
0980
0A40
0600
0500
0900
0D00
0C00
ENDCHAR
STARTCHAR delta
ENCODING 948
SWIDTH 479 0
DWIDTH 7 0
BBX 7 11 0 0
BITMAP
0B80
19A0
0810
0740
0BD0
29A0
5030
4024
5030
65A0
2F80
ENDCHAR
STARTCHAR epsilon
ENCODING 949
SWIDTH 381 0
DWIDTH 5 0
BBX 5 7 0 0
BITMAP
1F80
7540
2000
2A00
6000
6580
2F40
ENDCHAR
STARTCHAR zeta
ENCODING 950
SWIDTH 386 0
DWIDTH 5 0
BBX 6 14 0 -3
BITMAP
0400
0C60
06D0
0A00
1800
2000
5000
4000
5000
7900
1BC0
0090
0080
0F40
ENDCHAR
STARTCHAR eta
ENCODING 951
SWIDTH 510 0
DWIDTH 7 0
BBX 7 10 0 -3
BITMAP
75E0
6670
1824
1814
1824
2424
2424
0030
0030
0070
ENDCHAR
STARTCHAR theta
ENCODING 952
SWIDTH 514 0
DWIDTH 7 0
BBX 7 11 0 0
BITMAP
0B80
19A0
2020
2014
5014
7FF8
6554
6014
2020
29A0
0B80
ENDCHAR
STARTCHAR iota
ENCODING 953
SWIDTH 259 0
DWIDTH 4 0
BBX 3 7 1 0
BITMAP
D0
C0
C0
C0
80
C0
B4
ENDCHAR
STARTCHAR kappa
ENCODING 954
SWIDTH 495 0
DWIDTH 7 0
BBX 7 7 0 0
BITMAP
B424
68E0
1A40
1A00
1A40
2894
24B4
ENDCHAR
STARTCHAR lambda
ENCODING 955
SWIDTH 506 0
DWIDTH 7 0
BBX 7 10 0 0
BITMAP
1E00
1700
0240
0240
0340
0980
0C80
2880
34A4
A078
ENDCHAR
STARTCHAR mu
ENCODING 956
SWIDTH 552 0
DWIDTH 8 0
BBX 8 10 0 -3
BITMAP
3434
3030
3030
3020
3060
35A5
6B2D
6000
6000
6000
ENDCHAR
STARTCHAR nu
ENCODING 957
SWIDTH 453 0
DWIDTH 6 0
BBX 6 8 0 -1
BITMAP
B460
6870
1870
08A0
08C0
0A40
0E00
0400
ENDCHAR
STARTCHAR xi
ENCODING 958
SWIDTH 390 0
DWIDTH 5 0
BBX 6 14 0 -3
BITMAP
1400
2590
0E40
2400
2000
1B80
2000
4000
5000
3E40
0BD0
0060
0150
0A40
ENDCHAR
STARTCHAR omicron
ENCODING 959
SWIDTH 475 0
DWIDTH 7 0
BBX 6 7 0 0
BITMAP
1B80
35A0
5020
8020
5020
75A0
1F80
ENDCHAR
STARTCHAR pi
ENCODING 960
SWIDTH 591 0
DWIDTH 8 0
BBX 8 7 0 0
BITMAP
2FFF
5665
0520
0820
0C30
1835
342D
ENDCHAR
STARTCHAR rho
ENCODING 961
SWIDTH 515 0
DWIDTH 7 0
BBX 6 10 1 -3
BITMAP
1F80
6590
8020
8020
C060
E5C0
9F40
C000
C000
C000
ENDCHAR
STARTCHAR uni03C2
ENCODING 962
SWIDTH 377 0
DWIDTH 5 0
BBX 6 10 0 -3
BITMAP
1BC0
2540
5000
4000
6000
2E00
07C0
0090
0580
0A40
ENDCHAR
STARTCHAR sigma
ENCODING 963
SWIDTH 545 0
DWIDTH 8 0
BBX 8 7 0 0
BITMAP
1BFE
3564
5020
5024
5024
35B0
1F80
ENDCHAR
STARTCHAR tau
ENCODING 964
SWIDTH 392 0
DWIDTH 5 0
BBX 6 7 0 0
BITMAP
6FD0
9940
0800
0800
0C00
0D40
0B40
ENDCHAR
STARTCHAR upsilon
ENCODING 965
SWIDTH 491 0
DWIDTH 7 0
BBX 7 7 0 0
BITMAP
B450
6420
2424
2024
2030
25A0
1F80
ENDCHAR
STARTCHAR phi
ENCODING 966
SWIDTH 603 0
DWIDTH 8 0
BBX 8 10 0 -3
BITMAP
1E7C
34D6
5182
4142
5146
3AAD
0BE0
0240
0280
0240
ENDCHAR
STARTCHAR chi
ENCODING 967
SWIDTH 462 0
DWIDTH 6 0
BBX 8 10 -1 -3
BITMAP
2C0E
161C
0234
01A0
01C0
0280
0680
1C50
2875
702D
ENDCHAR
STARTCHAR psi
ENCODING 968
SWIDTH 620 0
DWIDTH 9 0
BBX 8 13 0 -3
BITMAP
00D0
00C0
00C0
74C9
64C2
24C3
20C3
2087
29DD
0BE4
00C0
01C0
0180
ENDCHAR
STARTCHAR omega
ENCODING 969
SWIDTH 660 0
DWIDTH 9 0
BBX 9 7 0 0
BITMAP
1D0600
344240
50D180
50C180
508180
259740
1E2E00
ENDCHAR
STARTCHAR iotadieresis
ENCODING 970
SWIDTH 259 0
DWIDTH 4 0
BBX 5 10 -1 0
BITMAP
61C0
0000
0000
0D00
0C00
0C00
0C00
0800
0C00
0B40
ENDCHAR
STARTCHAR upsilondieresis
ENCODING 971
SWIDTH 491 0
DWIDTH 7 0
BBX 7 10 0 0
BITMAP
34D0
0000
0000
B450
6420
2424
2024
2030
25A0
1F80
ENDCHAR
STARTCHAR omicrontonos
ENCODING 972
SWIDTH 475 0
DWIDTH 7 0
BBX 6 11 0 0
BITMAP
0180
0240
0200
0000
1B80
35A0
5020
8020
5020
75A0
1F80
ENDCHAR
STARTCHAR upsilontonos
ENCODING 973
SWIDTH 491 0
DWIDTH 7 0
BBX 7 11 0 0
BITMAP
0240
0300
0200
0000
B450
6420
2424
2024
2030
25A0
1F80
ENDCHAR
STARTCHAR omegatonos
ENCODING 974
SWIDTH 660 0
DWIDTH 9 0
BBX 9 11 0 0
BITMAP
006000
009000
008000
000000
1D0600
344240
50D180
50C180
508180
259740
1E2E00
ENDCHAR
STARTCHAR uni03D0
ENCODING 976
SWIDTH 438 0
DWIDTH 6 0
BBX 6 11 0 0
BITMAP
02D0
0960
1410
2820
27D0
6000
6B80
3550
3010
2960
0B80
ENDCHAR
STARTCHAR uni03D1
ENCODING 977
SWIDTH 541 0
DWIDTH 8 0
BBX 7 11 0 0
BITMAP
0780
1960
1420
1414
0918
02FC
7818
5814
0824
0970
07D0
ENDCHAR
STARTCHAR uni03D2
ENCODING 978
SWIDTH 616 0
DWIDTH 9 0
BBX 9 10 0 0
BITMAP
7D0B40
5B2680
036140
029000
01C000
01C000
01C000
01C000
06D000
0BF400
ENDCHAR
STARTCHAR uni03D5
ENCODING 981
SWIDTH 575 0
DWIDTH 8 0
BBX 8 13 0 -3
BITMAP
01C0
01C0
01C0
0BE4
2AAC
6185
9142
5145
369C
1BE0
0240
0340
0340
ENDCHAR
STARTCHAR uni03D6
ENCODING 982
SWIDTH 821 0
DWIDTH 12 0
BBX 12 7 0 0
BITMAP
6FFFFD
9A5564
081830
082820
082430
0969A0
03D790
ENDCHAR
STARTCHAR uni03D8
ENCODING 984
SWIDTH 627 0
DWIDTH 9 0
BBX 9 10 0 0
BITMAP
0BF400
2D5E00
740B00
700740
700700
340700
191900
02D000
01C000
06E000
ENDCHAR
STARTCHAR uni03D9
ENCODING 985
SWIDTH 475 0
DWIDTH 7 0
BBX 6 10 0 -3
BITMAP
1B80
35A0
5020
8020
5020
35A0
1B80
0600
0600
0A00
ENDCHAR
STARTCHAR uni03DA
ENCODING 986
SWIDTH 578 0
DWIDTH 8 0
BBX 8 10 0 0
BITMAP
0BFD
2D5D
7405
7000
7000
7400
3D00
0BE0
00A0
01F4
ENDCHAR
STARTCHAR uni03DB
ENCODING 987
SWIDTH 490 0
DWIDTH 7 0
BBX 7 10 0 -3
BITMAP
0BFC
2554
5000
4000
6000
3E00
0B80
0080
0580
0E00
ENDCHAR
STARTCHAR uni03DC
ENCODING 988
SWIDTH 588 0
DWIDTH 8 0
BBX 8 9 0 0
BITMAP
6EAB
0C01
0C08
0C08
0EA8
0C04
0C00
0D00
6E40
ENDCHAR
STARTCHAR uni03DD
ENCODING 989
SWIDTH 386 0
DWIDTH 5 0
BBX 8 10 -2 -3
BITMAP
03FD
0354
0300
0200
02B4
0200
0200
0200
0900
7800
ENDCHAR
STARTCHAR uni03DE
ENCODING 990
SWIDTH 525 0
DWIDTH 7 0
BBX 7 10 0 0
BITMAP
1F80
0A40
0800
1400
2000
7FFC
1564
0050
01C0
07E0
ENDCHAR
STARTCHAR uni03DF
ENCODING 991
SWIDTH 434 0
DWIDTH 6 0
BBX 7 10 -1 0
BITMAP
2C00
5C00
0800
0800
09B0
1FA0
0450
0050
00A4
0074
ENDCHAR
STARTCHAR uni03E0
ENCODING 992
SWIDTH 697 0
DWIDTH 10 0
BBX 10 10 0 0
BITMAP
02C000
00D000
00F000
01B400
022C00
052D00
089A00
148740
2247D0
520FE0
ENDCHAR
STARTCHAR uni03E1
ENCODING 993
SWIDTH 458 0
DWIDTH 6 0
BBX 7 13 -1 -3
BITMAP
7400
2E00
0780
01D0
01A0
1E20
0414
01A8
0348
0008
0008
0008
0014
ENDCHAR
STARTCHAR uni03F0
ENCODING 1008
SWIDTH 504 0
DWIDTH 7 0
BBX 7 7 0 0
BITMAP
7428
5870
08D0
0A80
0E40
2C94
7478
ENDCHAR
STARTCHAR uni03F1
ENCODING 1009
SWIDTH 467 0
DWIDTH 7 0
BBX 6 10 0 -3
BITMAP
0BD0
2560
2020
7060
6FD0
3000
2D00
0B40
0540
0E00
ENDCHAR
STARTCHAR uni03F4
ENCODING 1012
SWIDTH 737 0
DWIDTH 10 0
BBX 10 10 0 0
BITMAP
06F900
1E5B80
2801C0
3400D0
7FFFE0
7555E0
3400D0
2801C0
1E5B40
06F900
ENDCHAR
STARTCHAR uni03F5
ENCODING 1013
SWIDTH 380 0
DWIDTH 5 0
BBX 5 7 0 0
BITMAP
1F80
2540
5000
7F00
5400
2580
1F80
ENDCHAR
STARTCHAR uni03F6
ENCODING 1014
SWIDTH 382 0
DWIDTH 5 0
BBX 5 7 0 0
BITMAP
7E00
5640
0080
2F80
0580
5640
7E00
ENDCHAR
STARTCHAR uni0400
ENCODING 1024
SWIDTH 626 0
DWIDTH 9 0
BBX 9 12 0 0
BITMAP
028000
005000
000000
6EAB00
0C0100
0C0400
0C0800
0EA800
0C0400
0C0140
0C0240
6EAB00
ENDCHAR
STARTCHAR uni0401
ENCODING 1025
SWIDTH 626 0
DWIDTH 9 0
BBX 9 12 0 0
BITMAP
051400
0A2800
000000
6EAB00
0C0100
0C0400
0C0800
0EA800
0C0400
0C0140
0C0240
6EAB00
ENDCHAR
STARTCHAR uni0402
ENCODING 1026
SWIDTH 731 0
DWIDTH 10 0
BBX 10 9 0 0
BITMAP
BAEB40
81C140
01C000
01EA40
01C1D0
01C0A0
01C0A0
01D4A0
07DE80
ENDCHAR
STARTCHAR uni0403
ENCODING 1027
SWIDTH 548 0
DWIDTH 8 0
BBX 8 12 0 0
BITMAP
00E0
0240
0000
6EAD
0C05
0C01
0C00
0C00
0C00
0C00
1D00
6E40
ENDCHAR
STARTCHAR uni0404
ENCODING 1028
SWIDTH 668 0
DWIDTH 9 0
BBX 9 9 0 0
BITMAP
06AF40
180240
340140
7AA400
740000
740000
380040
1D0240
06F900
ENDCHAR
STARTCHAR uni0405
ENCODING 1029
SWIDTH 504 0
DWIDTH 7 0
BBX 7 9 0 0
BITMAP
1AF0
7030
7010
2D00
07D0
00B4
4038
6034
7AA0
ENDCHAR
STARTCHAR uni0406
ENCODING 1030
SWIDTH 357 0
DWIDTH 5 0
BBX 5 9 0 0
BITMAP
6E40
1C00
0C00
0C00
0C00
0C00
0C00
0C00
6E40
ENDCHAR
STARTCHAR uni0407
ENCODING 1031
SWIDTH 357 0
DWIDTH 5 0
BBX 5 12 0 0
BITMAP
5140
A280
0000
6E40
1C00
0C00
0C00
0C00
0C00
0C00
0C00
6E40
ENDCHAR
STARTCHAR uni0408
ENCODING 1032
SWIDTH 396 0
DWIDTH 6 0
BBX 5 9 0 0
BITMAP
1B80
0700
0700
0700
0700
0700
0700
8700
A900
ENDCHAR
STARTCHAR uni0409
ENCODING 1033
SWIDTH 924 0
DWIDTH 13 0
BBX 13 9 0 0
BITMAP
07AF4000
020A0000
020A0000
020BA800
020A0B00
050A0340
080A0340
980A0700
F01FA900
ENDCHAR
STARTCHAR uni040A
ENCODING 1034
SWIDTH 1013 0
DWIDTH 14 0
BBX 14 9 0 0
BITMAP
6E47E000
1D01C000
0C01C000
0C01C000
0EAAEA40
0C01C1D0
0C01C0A0
0C01C0D0
6E46EA40
ENDCHAR
STARTCHAR uni040B
ENCODING 1035
SWIDTH 761 0
DWIDTH 11 0
BBX 11 9 0 0
BITMAP
BAEB40
81C140
01C000
01EA40
01C1D0
01C0D0
01C0D0
01C0D0
07E2E4
ENDCHAR
STARTCHAR uni040C
ENCODING 1036
SWIDTH 658 0
DWIDTH 9 0
BBX 10 12 0 0
BITMAP
007400
009000
000000
6E47C0
0D0980
0C0800
0C1400
0EA000
0C3400
0C1C00
0D0A00
6E4790
ENDCHAR
STARTCHAR uni040D
ENCODING 1037
SWIDTH 780 0
DWIDTH 11 0
BBX 11 12 0 0
BITMAP
028000
006000
000000
6E46E4
0D01C0
0C06C0
0C09C0
0C21C0
0D81C0
0E41C0
0D01C0
6E46E4
ENDCHAR
STARTCHAR uni040E
ENCODING 1038
SWIDTH 625 0
DWIDTH 9 0
BBX 9 13 0 0
BITMAP
061800
0A1C00
016000
000000
BD0B80
280600
0D0800
070800
036000
01E000
008000
158000
2E0000
ENDCHAR
STARTCHAR uni040F
ENCODING 1039
SWIDTH 759 0
DWIDTH 11 0
BBX 10 12 0 -3
BITMAP
6E47D0
0D0280
0C0280
0C0280
0C0280
0C0280
0C0280
0C0280
6EAAD0
002000
007000
007000
ENDCHAR
STARTCHAR uni0410
ENCODING 1040
SWIDTH 718 0
DWIDTH 10 0
BBX 10 9 0 0
BITMAP
009000
00F000
017400
022800
050D00
0AAE00
180700
240380
B807E0
ENDCHAR
STARTCHAR uni0411
ENCODING 1041
SWIDTH 617 0
DWIDTH 9 0
BBX 8 9 0 0
BITMAP
6EAD
0C01
0C00
0EA4
0C0E
0C07
0C07
1C0A
6EA8
ENDCHAR
STARTCHAR uni0412
ENCODING 1042
SWIDTH 618 0
DWIDTH 9 0
BBX 8 9 0 0
BITMAP
6EA8
0C0E
0C0A
0C09
0EB8
0C0A
0C07
0C0B
6EA9
ENDCHAR
STARTCHAR uni0413
ENCODING 1043
SWIDTH 548 0
DWIDTH 8 0
BBX 8 9 0 0
BITMAP
6EAD
0C05
0C01
0C00
0C00
0C00
0C00
1D00
6E40
ENDCHAR
STARTCHAR uni0414
ENCODING 1044
SWIDTH 663 0
DWIDTH 9 0
BBX 9 12 0 -3
BITMAP
0BAE40
060D00
050D00
050D00
080D00
080D00
180D00
200D00
BAAF40
D00180
800080
400040
ENDCHAR
STARTCHAR uni0415
ENCODING 1045
SWIDTH 626 0
DWIDTH 9 0
BBX 9 9 0 0
BITMAP
6EAB00
0C0100
0C0400
0C0800
0EA800
0C0400
0C0140
0C0240
6EAB00
ENDCHAR
STARTCHAR uni0416
ENCODING 1046
SWIDTH 937 0
DWIDTH 13 0
BBX 13 9 0 0
BITMAP
B46E4780
580D0940
050D1400
020D2000
01AEA000
034D3400
0A0D2800
1C0D0D00
786E4780
ENDCHAR
STARTCHAR uni0417
ENCODING 1047
SWIDTH 545 0
DWIDTH 8 0
BBX 7 9 0 0
BITMAP
2AA0
3028
1038
06E0
0010
001C
001C
602C
1BE0
ENDCHAR
STARTCHAR uni0418
ENCODING 1048
SWIDTH 780 0
DWIDTH 11 0
BBX 11 9 0 0
BITMAP
6E46E4
0D01C0
0C06C0
0C09C0
0C21C0
0D81C0
0E41C0
0D01C0
6E46E4
ENDCHAR
STARTCHAR uni0419
ENCODING 1049
SWIDTH 780 0
DWIDTH 11 0
BBX 11 13 0 0
BITMAP
014500
024600
009800
000000
6E46E4
0D01C0
0C06C0
0C09C0
0C21C0
0D81C0
0E41C0
0D01C0
6E46E4
ENDCHAR
STARTCHAR uni041A
ENCODING 1050
SWIDTH 658 0
DWIDTH 9 0
BBX 10 9 0 0
BITMAP
6E47C0
0D0980
0C0800
0C1400
0EA000
0C3400
0C1C00
0D0A00
6E4790
ENDCHAR
STARTCHAR uni041B
ENCODING 1051
SWIDTH 684 0
DWIDTH 10 0
BBX 9 9 0 0
BITMAP
07AF40
020A00
020A00
020A00
020A00
050A00
080A00
980A00
F01F40
ENDCHAR
STARTCHAR uni041C
ENCODING 1052
SWIDTH 895 0
DWIDTH 13 0
BBX 12 9 0 0
BITMAP
6D003D
1F0078
1B40A8
1681A8
15D228
14A228
147928
143828
6D147D
ENDCHAR
STARTCHAR uni041D
ENCODING 1053
SWIDTH 777 0
DWIDTH 11 0
BBX 10 9 0 0
BITMAP
6E46E0
1C01C0
0C01C0
0C01C0
0EAAC0
0C01C0
0C01C0
0C01C0
6E46E0
ENDCHAR
STARTCHAR uni041E
ENCODING 1054
SWIDTH 738 0
DWIDTH 10 0
BBX 10 9 0 0
BITMAP
06A900
1D0280
3801D0
7400E0
7400E0
7400D0
3801D0
1C0280
06A900
ENDCHAR
STARTCHAR uni041F
ENCODING 1055
SWIDTH 759 0
DWIDTH 11 0
BBX 10 10 0 0
BITMAP
BFFFF0
2D56D0
0C0280
0C0280
0C0280
0C0280
0C0280
0C0280
1D06D0
BF4BF0
ENDCHAR
STARTCHAR uni0420
ENCODING 1056
SWIDTH 569 0
DWIDTH 8 0
BBX 7 9 1 0
BITMAP
BAA0
3034
3028
3074
3A90
3000
3000
3400
B900
ENDCHAR
STARTCHAR uni0421
ENCODING 1057
SWIDTH 670 0
DWIDTH 9 0
BBX 9 9 0 0
BITMAP
06AF80
1D0280
380180
740000
740000
740000
380000
1D0140
06F900
ENDCHAR
STARTCHAR uni0422
ENCODING 1058
SWIDTH 603 0
DWIDTH 8 0
BBX 9 9 0 0
BITMAP
BAEB00
81C240
41C000
01C000
01C000
01C000
01C000
01C000
07E000
ENDCHAR
STARTCHAR uni0423
ENCODING 1059
SWIDTH 625 0
DWIDTH 9 0
BBX 9 9 0 0
BITMAP
BD0B80
280600
0D0800
070800
036000
01E000
008000
158000
2E0000
ENDCHAR
STARTCHAR uni0424
ENCODING 1060
SWIDTH 725 0
DWIDTH 10 0
BBX 10 9 0 0
BITMAP
01F400
06A900
28A2C0
70A0E0
70A0A0
70A0D0
28A280
05B500
01F400
ENDCHAR
STARTCHAR uni0425
ENCODING 1061
SWIDTH 664 0
DWIDTH 9 0
BBX 9 9 0 0
BITMAP
7E0B80
0E0900
075800
02A000
00E000
027400
092C00
180E00
781F80
ENDCHAR
STARTCHAR uni0426
ENCODING 1062
SWIDTH 756 0
DWIDTH 11 0
BBX 10 12 0 -3
BITMAP
6E47D0
0D0280
0C0280
0C0280
0C0280
0C0280
0C0280
0C0280
6EAAE0
000070
000020
000010
ENDCHAR
STARTCHAR uni0427
ENCODING 1063
SWIDTH 650 0
DWIDTH 9 0
BBX 9 9 0 0
BITMAP
792E40
380D00
240D00
280D00
1AAD00
000D00
000D00
000D00
006E40
ENDCHAR
STARTCHAR uni0428
ENCODING 1064
SWIDTH 1053 0
DWIDTH 15 0
BBX 14 9 0 0
BITMAP
6E1B86E0
0C0701C0
0C0701C0
0C0701C0
0C0701C0
0C0701C0
0C0701C0
0C0701C0
6EABAAE0
ENDCHAR
STARTCHAR uni0429
ENCODING 1065
SWIDTH 1044 0
DWIDTH 15 0
BBX 14 12 0 -3
BITMAP
6E1B87D0
0C070280
0C070280
0C070280
0C070280
0C070280
0C070280
0C070280
6EABAAE0
00000070
00000020
00000010
ENDCHAR
STARTCHAR uni042A
ENCODING 1066
SWIDTH 723 0
DWIDTH 10 0
BBX 10 9 0 0
BITMAP
BAE000
81C000
01C000
01EA40
01C1D0
01C0A0
01C0A0
01C1D0
06EA40
ENDCHAR
STARTCHAR uni042B
ENCODING 1067
SWIDTH 887 0
DWIDTH 12 0
BBX 12 9 0 0
BITMAP
6E407D
0C0028
0C0028
0EA428
0C1D28
0C0A28
0C0A28
1C0D28
6EA47D
ENDCHAR
STARTCHAR uni042C
ENCODING 1068
SWIDTH 606 0
DWIDTH 8 0
BBX 8 9 0 0
BITMAP
6E40
0C00
0C00
0EA4
0C0E
0C07
0C07
1C0A
6EA8
ENDCHAR
STARTCHAR uni042D
ENCODING 1069
SWIDTH 667 0
DWIDTH 9 0
BBX 8 9 1 0
BITMAP
FAA0
D028
800D
1AAE
000E
000D
001D
9078
2F90
ENDCHAR
STARTCHAR uni042E
ENCODING 1070
SWIDTH 1042 0
DWIDTH 15 0
BBX 14 9 0 0
BITMAP
6E42AA00
1C0E02C0
0C2C00E0
0EB800A0
0C2800B0
0C2800A0
0C1C0090
0D0901C0
6E415600
ENDCHAR
STARTCHAR uni042F
ENCODING 1071
SWIDTH 654 0
DWIDTH 9 0
BBX 9 9 0 0
BITMAP
06AE40
1C0D00
280D00
1D0D00
07ED00
074D00
0E0D00
1C0D00
B82E40
ENDCHAR
STARTCHAR uni0430
ENCODING 1072
SWIDTH 480 0
DWIDTH 7 0
BBX 7 7 0 0
BITMAP
1680
30D0
0090
09D0
3090
70D0
3AB4
ENDCHAR
STARTCHAR uni0431
ENCODING 1073
SWIDTH 520 0
DWIDTH 7 0
BBX 7 11 0 0
BITMAP
0004
01B4
1E90
2400
5A90
6434
7028
7028
7028
3434
0A90
ENDCHAR
STARTCHAR uni0432
ENCODING 1074
SWIDTH 505 0
DWIDTH 7 0
BBX 7 7 0 0
BITMAP
7AA0
2834
2830
2AD0
2834
2824
7AA0
ENDCHAR
STARTCHAR uni0433
ENCODING 1075
SWIDTH 429 0
DWIDTH 6 0
BBX 6 7 0 0
BITMAP
7AA0
2820
2810
2800
2800
2800
7D00
ENDCHAR
STARTCHAR uni0434
ENCODING 1076
SWIDTH 530 0
DWIDTH 7 0
BBX 7 10 0 -3
BITMAP
1EB4
0870
0870
0870
1470
2070
BAB8
C00C
8008
4004
ENDCHAR
STARTCHAR uni0435
ENCODING 1077
SWIDTH 464 0
DWIDTH 7 0
BBX 6 7 0 0
BITMAP
1A80
20A0
6AA0
A000
7000
3860
1B80
ENDCHAR
STARTCHAR uni0436
ENCODING 1078
SWIDTH 754 0
DWIDTH 11 0
BBX 11 7 0 0
BITMAP
B4B4B4
587090
087100
07BA00
0D7240
1871C0
74B4A4
ENDCHAR
STARTCHAR uni0437
ENCODING 1079
SWIDTH 435 0
DWIDTH 6 0
BBX 6 7 0 0
BITMAP
6680
50D0
00C0
0B40
00D0
40D0
2A80
ENDCHAR
STARTCHAR uni0438
ENCODING 1080
SWIDTH 609 0
DWIDTH 9 0
BBX 8 7 0 0
BITMAP
7D2E
281C
286C
288C
2A0C
2C0C
7D2E
ENDCHAR
STARTCHAR uni0439
ENCODING 1081
SWIDTH 609 0
DWIDTH 9 0
BBX 8 10 0 0
BITMAP
0D24
0C24
0550
7D2E
281C
286C
288C
2A0C
2C0C
7D2E
ENDCHAR
STARTCHAR uni043A
ENCODING 1082
SWIDTH 521 0
DWIDTH 7 0
BBX 7 7 0 0
BITMAP
7D2C
2854
2880
2A80
28D0
28A0
7D38
ENDCHAR
STARTCHAR uni043B
ENCODING 1083
SWIDTH 553 0
DWIDTH 8 0
BBX 7 7 0 0
BITMAP
1AB8
0534
0534
0834
0834
5834
E078
ENDCHAR
STARTCHAR uni043C
ENCODING 1084
SWIDTH 697 0
DWIDTH 10 0
BBX 9 7 0 0
BITMAP
7C0780
2D0B40
2A0B40
235340
22A340
21D340
748780
ENDCHAR
STARTCHAR uni043D
ENCODING 1085
SWIDTH 605 0
DWIDTH 8 0
BBX 8 7 0 0
BITMAP
7D2E
280C
280C
2AAC
280C
280C
7D2E
ENDCHAR
STARTCHAR uni043E
ENCODING 1086
SWIDTH 514 0
DWIDTH 7 0
BBX 7 7 0 0
BITMAP
1A90
3034
7028
A028
7028
3434
1A90
ENDCHAR
STARTCHAR uni043F
ENCODING 1087
SWIDTH 591 0
DWIDTH 8 0
BBX 8 7 0 0
BITMAP
7AAD
281C
281C
281C
281C
281C
7D2D
ENDCHAR
STARTCHAR uni0440
ENCODING 1088
SWIDTH 537 0
DWIDTH 8 0
BBX 7 10 0 -3
BITMAP
76E0
2828
241C
241C
241C
2824
2E90
2400
2800
7D00
ENDCHAR
STARTCHAR uni0441
ENCODING 1089
SWIDTH 446 0
DWIDTH 6 0
BBX 6 7 0 0
BITMAP
1A90
20A0
6000
6000
6000
3860
1F80
ENDCHAR
STARTCHAR uni0442
ENCODING 1090
SWIDTH 456 0
DWIDTH 6 0
BBX 7 7 0 0
BITMAP
ABB4
8614
4600
0600
0600
0600
1B40
ENDCHAR
STARTCHAR uni0443
ENCODING 1091
SWIDTH 483 0
DWIDTH 7 0
BBX 7 10 0 -3
BITMAP
B478
3420
2850
0C80
0A80
0740
0300
0200
5800
B400
ENDCHAR
STARTCHAR uni0444
ENCODING 1092
SWIDTH 710 0
DWIDTH 10 0
BBX 10 14 0 -3
BITMAP
005000
01E000
00A000
00A000
1AAA40
30A0C0
70A0D0
60A0D0
70A0D0
30A0C0
1AAA40
00A000
00A000
01F400
ENDCHAR
STARTCHAR uni0445
ENCODING 1093
SWIDTH 479 0
DWIDTH 7 0
BBX 7 7 0 0
BITMAP
78B4
1C80
0A40
0740
0A80
24D0
B0B4
ENDCHAR
STARTCHAR uni0446
ENCODING 1094
SWIDTH 590 0
DWIDTH 8 0
BBX 8 10 0 -3
BITMAP
7D2D
2818
2818
2818
2818
2818
7EAE
0007
0002
0001
ENDCHAR
STARTCHAR uni0447
ENCODING 1095
SWIDTH 535 0
DWIDTH 7 0
BBX 7 7 0 0
BITMAP
B8B8
3030
3030
3470
1AB0
0030
00B8
ENDCHAR
STARTCHAR uni0448
ENCODING 1096
SWIDTH 812 0
DWIDTH 11 0
BBX 11 7 0 0
BITMAP
7D78B4
283470
283470
283470
283470
283470
7979B4
ENDCHAR
STARTCHAR uni0449
ENCODING 1097
SWIDTH 814 0
DWIDTH 11 0
BBX 11 10 0 -3
BITMAP
7978B4
283470
283470
283470
283470
283470
7EBAB8
00000C
000008
000004
ENDCHAR
STARTCHAR uni044A
ENCODING 1098
SWIDTH 568 0
DWIDTH 8 0
BBX 8 7 0 0
BITMAP
AB40
8600
4600
07A4
060D
060A
0BA8
ENDCHAR
STARTCHAR uni044B
ENCODING 1099
SWIDTH 728 0
DWIDTH 10 0
BBX 10 7 0 0
BITMAP
7D02D0
280180
280180
2A9180
283580
283580
7A92D0
ENDCHAR
STARTCHAR uni044C
ENCODING 1100
SWIDTH 489 0
DWIDTH 7 0
BBX 7 7 0 0
BITMAP
7D00
2800
2800
2A90
2834
2834
7AA0
ENDCHAR
STARTCHAR uni044D
ENCODING 1101
SWIDTH 467 0
DWIDTH 7 0
BBX 6 7 0 0
BITMAP
6580
50A0
0070
0AB0
0070
40A0
2A80
ENDCHAR
STARTCHAR uni044E
ENCODING 1102
SWIDTH 774 0
DWIDTH 11 0
BBX 11 7 0 0
BITMAP
7D1A80
287070
28A034
2AE034
28A034
287030
7D1980
ENDCHAR
STARTCHAR uni044F
ENCODING 1103
SWIDTH 518 0
DWIDTH 7 0
BBX 7 7 0 0
BITMAP
19B4
3460
3460
0AA0
0D60
2870
74B4
ENDCHAR
STARTCHAR uni0450
ENCODING 1104
SWIDTH 464 0
DWIDTH 7 0
BBX 6 10 0 0
BITMAP
0900
0200
0000
1A80
20A0
6AA0
A000
7000
3860
1B80
ENDCHAR
STARTCHAR uni0451
ENCODING 1105
SWIDTH 464 0
DWIDTH 7 0
BBX 6 10 0 0
BITMAP
2490
24A0
0000
1A80
20A0
6AA0
A000
7000
3860
1B80
ENDCHAR
STARTCHAR uni0452
ENCODING 1106
SWIDTH 563 0
DWIDTH 8 0
BBX 7 14 0 -3
BITMAP
1400
7800
6E40
2800
29F0
2D28
2818
281C
281C
2818
7D18
0018
0524
0790
ENDCHAR
STARTCHAR uni0453
ENCODING 1107
SWIDTH 429 0
DWIDTH 6 0
BBX 6 10 0 0
BITMAP
0340
0500
0000
7AA0
2820
2810
2800
2800
2800
7D00
ENDCHAR
STARTCHAR uni0454
ENCODING 1108
SWIDTH 460 0
DWIDTH 6 0
BBX 6 7 0 0
BITMAP
1A90
3070
7000
7A40
7000
3410
1B90
ENDCHAR
STARTCHAR uni0455
ENCODING 1109
SWIDTH 394 0
DWIDTH 6 0
BBX 5 7 0 0
BITMAP
2A80
6080
7400
1F40
42C0
50C0
6A40
ENDCHAR
STARTCHAR uni0456
ENCODING 1110
SWIDTH 285 0
DWIDTH 4 0
BBX 4 9 0 0
BITMAP
28
14
68
28
28
28
28
28
7D
ENDCHAR
STARTCHAR uni0457
ENCODING 1111
SWIDTH 285 0
DWIDTH 4 0
BBX 5 9 -1 0
BITMAP
7180
1140
1A00
0A00
0A00
0A00
0A00
0A00
1F40
ENDCHAR
STARTCHAR uni0458
ENCODING 1112
SWIDTH 263 0
DWIDTH 4 0
BBX 4 12 -1 -3
BITMAP
0A
05
1A
0A
0A
0A
0A
0A
0A
09
89
E8
ENDCHAR
STARTCHAR uni0459
ENCODING 1113
SWIDTH 742 0
DWIDTH 10 0
BBX 10 7 0 0
BITMAP
0AB800
053400
053400
083A80
083470
583470
E07A90
ENDCHAR
STARTCHAR uni045A
ENCODING 1114
SWIDTH 790 0
DWIDTH 11 0
BBX 11 7 0 0
BITMAP
7D2D00
281C00
281C00
2AAEA0
281C28
281C28
7D2EA0
ENDCHAR
STARTCHAR uni045B
ENCODING 1115
SWIDTH 579 0
DWIDTH 8 0
BBX 8 10 0 0
BITMAP
6800
2800
6A40
29F0
2D28
2818
2818
2818
2818
7D6D
ENDCHAR
STARTCHAR uni045C
ENCODING 1116
SWIDTH 521 0
DWIDTH 7 0
BBX 7 10 0 0
BITMAP
0180
0200
0000
7D2C
2854
2880
2A80
28D0
28A0
7D38
ENDCHAR
STARTCHAR uni045D
ENCODING 1117
SWIDTH 609 0
DWIDTH 9 0
BBX 8 10 0 0
BITMAP
0700
0140
0000
7D2E
281C
286C
288C
2A0C
2C0C
7D2E
ENDCHAR
STARTCHAR uni045E
ENCODING 1118
SWIDTH 483 0
DWIDTH 7 0
BBX 7 13 0 -3
BITMAP
2870
0550
0000
B478
3420
2850
1C80
0A80
0740
0300
0200
5800
B400
ENDCHAR
STARTCHAR uni045F
ENCODING 1119
SWIDTH 587 0
DWIDTH 8 0
BBX 8 10 0 -3
BITMAP
7D2D
2818
2818
2818
2818
2818
7EAD
0140
0280
0180
ENDCHAR
STARTCHAR uni0462
ENCODING 1122
SWIDTH 727 0
DWIDTH 10 0
BBX 10 11 0 0
BITMAP
06A000
028000
AAEA80
828080
828080
028000
02EA40
0281D0
0280E0
0280D0
07EA40
ENDCHAR
STARTCHAR uni0463
ENCODING 1123
SWIDTH 561 0
DWIDTH 8 0
BBX 8 10 0 0
BITMAP
0A00
0600
0600
ABB4
8614
4600
07A4
060D
0609
1BA8
ENDCHAR
STARTCHAR uni046A
ENCODING 1130
SWIDTH 881 0
DWIDTH 12 0
BBX 13 9 0 0
BITMAP
0BAAA000
03808000
00D14000
00760000
01BE8000
0718A000
0E187400
2C182800
B46D1E40
ENDCHAR
STARTCHAR uni046B
ENCODING 1131
SWIDTH 667 0
DWIDTH 9 0
BBX 10 7 0 0
BITMAP
1EA900
0A0800
02A000
06E400
1CD900
28D700
B1E290
ENDCHAR
STARTCHAR uni0472
ENCODING 1138
SWIDTH 737 0
DWIDTH 10 0
BBX 10 9 0 0
BITMAP
06A900
1C0280
3400D0
76D0E0
75BEE0
7400D0
3801D0
1C0280
06A900
ENDCHAR
STARTCHAR uni0473
ENCODING 1139
SWIDTH 514 0
DWIDTH 7 0
BBX 7 7 0 0
BITMAP
1A90
3034
6028
BFF8
6028
3024
1A90
ENDCHAR
STARTCHAR uni0474
ENCODING 1140
SWIDTH 705 0
DWIDTH 10 0
BBX 10 9 0 0
BITMAP
BD01F0
280260
1D0200
0E0500
070800
035400
02A000
00E000
009000
ENDCHAR
STARTCHAR uni0475
ENCODING 1141
SWIDTH 520 0
DWIDTH 7 0
BBX 8 7 0 0
BITMAP
B41D
3425
2850
1C80
0D80
0B40
0300
ENDCHAR
STARTCHAR uni0490
ENCODING 1168
SWIDTH 525 0
DWIDTH 7 0
BBX 8 11 0 0
BITMAP
0005
0009
6EA8
0C00
0C00
0C00
0C00
0C00
0C00
1D00
6E40
ENDCHAR
STARTCHAR uni0491
ENCODING 1169
SWIDTH 404 0
DWIDTH 6 0
BBX 6 9 0 0
BITMAP
0020
0060
7A90
2800
2800
2800
2800
2800
7D00
ENDCHAR
STARTCHAR uni1D00
ENCODING 7424
SWIDTH 511 0
DWIDTH 7 0
BBX 7 7 0 0
BITMAP
0300
0680
09C0
14D0
25A0
2070
A078
ENDCHAR
STARTCHAR uni1D07
ENCODING 7431
SWIDTH 495 0
DWIDTH 7 0
BBX 7 7 0 0
BITMAP
7AB0
2810
2850
2A90
2800
2814
7AB4
ENDCHAR
STARTCHAR uni1D1C
ENCODING 7452
SWIDTH 584 0
DWIDTH 8 0
BBX 8 7 0 0
BITMAP
791E
2408
2408
2408
2408
2808
0AA0
ENDCHAR
STARTCHAR uni1D81
ENCODING 7553
SWIDTH 539 0
DWIDTH 8 0
BBX 8 13 0 -3
BITMAP
0074
0034
0034
0AB4
3034
6034
A034
7034
7474
1F78
0005
0044
00A8
ENDCHAR
STARTCHAR uni1D84
ENCODING 7556
SWIDTH 542 0
DWIDTH 8 0
BBX 8 13 0 -3
BITMAP
6800
2800
2800
28B8
2880
2A00
2B40
29C0
28A0
7D79
0002
0011
0078
ENDCHAR
STARTCHAR uni1D85
ENCODING 7557
SWIDTH 283 0
DWIDTH 4 0
BBX 4 13 0 -3
BITMAP
68
28
28
28
28
28
28
28
28
7D
02
12
38
ENDCHAR
STARTCHAR uni1D8A
ENCODING 7562
SWIDTH 395 0
DWIDTH 6 0
BBX 5 10 0 -3
BITMAP
2A80
6080
7400
1F40
42C0
50C0
6A80
0080
0480
0E40
ENDCHAR
STARTCHAR uni1D8D
ENCODING 7565
SWIDTH 479 0
DWIDTH 7 0
BBX 7 10 0 -3
BITMAP
78B4
1C80
0A40
0740
0A80
24D0
B0B4
0008
0048
00E4
ENDCHAR
STARTCHAR uni1D8E
ENCODING 7566
SWIDTH 458 0
DWIDTH 6 0
BBX 6 10 0 -3
BITMAP
7AE0
51D0
0380
0A00
1D10
2820
7AB0
0020
0120
0290
ENDCHAR
STARTCHAR uni1D98
ENCODING 7576
SWIDTH 368 0
DWIDTH 5 0
BBX 7 13 0 -3
BITMAP
01B4
0314
0300
0700
0700
0700
0700
0700
4700
A900
8000
8400
6800
ENDCHAR
STARTCHAR uni1D9B
ENCODING 7579
SWIDTH 462 0
DWIDTH 6 0
BBX 6 5 0 4
BITMAP
76D0
3060
3030
3060
2A80
ENDCHAR
STARTCHAR uni1DA3
ENCODING 7587
SWIDTH 488 0
DWIDTH 7 0
BBX 7 8 0 1
BITMAP
78B4
3460
3460
2460
1EA0
0060
0060
0074
ENDCHAR
STARTCHAR uni1E00
ENCODING 7680
SWIDTH 718 0
DWIDTH 10 0
BBX 10 13 0 -4
BITMAP
009000
00F000
017400
022800
050D00
0AAE00
180700
240380
B807E0
000000
019000
022000
019000
ENDCHAR
STARTCHAR uni1E01
ENCODING 7681
SWIDTH 480 0
DWIDTH 7 0
BBX 7 11 0 -4
BITMAP
1680
30D0
0090
09D0
3090
70D0
3AB4
0000
0A40
0880
0A40
ENDCHAR
STARTCHAR uni1E02
ENCODING 7682
SWIDTH 618 0
DWIDTH 9 0
BBX 8 12 0 0
BITMAP
0140
0180
0000
6EA8
0C0E
0C0A
0C09
0EB8
0C0A
0C07
0C0B
6EA9
ENDCHAR
STARTCHAR uni1E03
ENCODING 7683
SWIDTH 522 0
DWIDTH 7 0
BBX 7 13 0 0
BITMAP
0200
0340
0000
7400
3400
3400
36E0
3834
3428
3418
3428
3434
2A90
ENDCHAR
STARTCHAR uni1E04
ENCODING 7684
SWIDTH 618 0
DWIDTH 9 0
BBX 8 12 0 -3
BITMAP
6EA8
0C0E
0C0A
0C09
0EB8
0C0A
0C07
0C0B
6EA9
0000
0180
0180
ENDCHAR
STARTCHAR uni1E05
ENCODING 7685
SWIDTH 522 0
DWIDTH 7 0
BBX 7 13 0 -3
BITMAP
7400
3400
3400
36E0
3834
3428
3418
3428
3434
2A90
0000
0200
0340
ENDCHAR
STARTCHAR uni1E06
ENCODING 7686
SWIDTH 618 0
DWIDTH 9 0
BBX 8 11 0 -2
BITMAP
6EA8
0C0E
0C0A
0C09
0EB8
0C0A
0C07
0C0B
6EA9
0000
0AA0
ENDCHAR
STARTCHAR uni1E07
ENCODING 7687
SWIDTH 522 0
DWIDTH 7 0
BBX 7 12 0 -2
BITMAP
7400
3400
3400
36E0
3834
3428
3418
3428
3434
2A90
0000
1A90
ENDCHAR
STARTCHAR uni1E08
ENCODING 7688
SWIDTH 670 0
DWIDTH 9 0
BBX 9 15 0 -3
BITMAP
003800
009000
000000
06AF80
1D0280
380180
740000
740000
740000
380000
1D0140
06F900
006000
002400
00A000
ENDCHAR
STARTCHAR uni1E09
ENCODING 7689
SWIDTH 446 0
DWIDTH 6 0
BBX 6 13 0 -3
BITMAP
0280
0200
0000
1A90
20A0
6000
6000
6000
3460
1F80
0240
0080
0640
ENDCHAR
STARTCHAR uni1E0A
ENCODING 7690
SWIDTH 730 0
DWIDTH 10 0
BBX 10 12 0 0
BITMAP
005000
009000
000000
6EA900
0C0780
0C01C0
0C00D0
0C00D0
0C00D0
0C01C0
0C0380
6EA900
ENDCHAR
STARTCHAR uni1E0B
ENCODING 7691
SWIDTH 539 0
DWIDTH 8 0
BBX 7 13 0 0
BITMAP
0140
0240
0000
0074
0034
0034
0AB4
3034
6034
A034
7034
7474
1F78
ENDCHAR
STARTCHAR uni1E0C
ENCODING 7692
SWIDTH 730 0
DWIDTH 10 0
BBX 10 12 0 -3
BITMAP
6EA900
0C0780
0C01C0
0C00D0
0C00D0
0C00D0
0C01C0
0C0380
6EA900
000000
008000
00C000
ENDCHAR
STARTCHAR uni1E0D
ENCODING 7693
SWIDTH 539 0
DWIDTH 8 0
BBX 7 13 0 -3
BITMAP
0074
0034
0034
0AB4
3034
6034
A034
7034
7474
1F78
0000
0240
0240
ENDCHAR
STARTCHAR uni1E0E
ENCODING 7694
SWIDTH 730 0
DWIDTH 10 0
BBX 10 11 0 -2
BITMAP
6EA900
0C0780
0C01C0
0C00D0
0C00D0
0C00D0
0C01C0
0C0380
6EA900
000000
06A400
ENDCHAR
STARTCHAR uni1E0F
ENCODING 7695
SWIDTH 539 0
DWIDTH 8 0
BBX 7 12 0 -2
BITMAP
0074
0034
0034
0AB4
3034
6034
A034
7034
7474
1F78
0000
1AA0
ENDCHAR
STARTCHAR uni1E10
ENCODING 7696
SWIDTH 730 0
DWIDTH 10 0
BBX 10 13 0 -4
BITMAP
6EA900
0C0780
0C01C0
0C00D0
0C00D0
0C00D0
0C01C0
0C0380
6EA900
009000
01D000
005000
004000
ENDCHAR
STARTCHAR uni1E11
ENCODING 7697
SWIDTH 539 0
DWIDTH 8 0
BBX 7 14 0 -4
BITMAP
0074
0034
0034
0AB4
3034
6034
A034
7034
7474
1F78
0240
0380
0040
0100
ENDCHAR
STARTCHAR uni1E12
ENCODING 7698
SWIDTH 730 0
DWIDTH 10 0
BBX 10 12 0 -3
BITMAP
6EA900
0C0780
0C01C0
0C00D0
0C00D0
0C00D0
0C01C0
0C0380
6EA900
000000
01D000
022000
ENDCHAR
STARTCHAR uni1E13
ENCODING 7699
SWIDTH 539 0
DWIDTH 8 0
BBX 7 13 0 -3
BITMAP
0074
0034
0034
0AB4
3034
6034
A034
7034
7474
1F78
0000
0380
0850
ENDCHAR
STARTCHAR uni1E14
ENCODING 7700
SWIDTH 626 0
DWIDTH 9 0
BBX 9 14 0 0
BITMAP
028000
005000
000000
06A400
000000
6EAB00
0C0100
0C0400
0C0800
0EA800
0C0400
0C0140
0C0240
6EAB00
ENDCHAR
STARTCHAR uni1E15
ENCODING 7701
SWIDTH 464 0
DWIDTH 7 0
BBX 6 12 0 0
BITMAP
0900
0200
0000
1A90
0000
1A80
20A0
6AA0
A000
7000
3860
1B80
ENDCHAR
STARTCHAR uni1E16
ENCODING 7702
SWIDTH 626 0
DWIDTH 9 0
BBX 9 14 0 0
BITMAP
00A000
014000
000000
06A400
000000
6EAB00
0C0100
0C0400
0C0800
0EA800
0C0400
0C0140
0C0240
6EAB00
ENDCHAR
STARTCHAR uni1E17
ENCODING 7703
SWIDTH 464 0
DWIDTH 7 0
BBX 6 12 0 0
BITMAP
0280
0200
0000
1A90
0000
1A80
20A0
6AA0
A000
7000
3860
1B80
ENDCHAR
STARTCHAR uni1E18
ENCODING 7704
SWIDTH 626 0
DWIDTH 9 0
BBX 9 12 0 -3
BITMAP
6EAB00
0C0100
0C0400
0C0800
0EA800
0C0400
0C0140
0C0240
6EAB00
000000
01D000
022000
ENDCHAR
STARTCHAR uni1E19
ENCODING 7705
SWIDTH 464 0
DWIDTH 7 0
BBX 6 10 0 -3
BITMAP
1A80
20A0
6AA0
A000
7000
3860
1B80
0000
0740
1880
ENDCHAR
STARTCHAR uni1E1A
ENCODING 7706
SWIDTH 626 0
DWIDTH 9 0
BBX 9 11 0 -2
BITMAP
6EAB00
0C0100
0C0400
0C0800
0EA800
0C0400
0C0140
0C0240
6EAB00
069400
04A000
ENDCHAR
STARTCHAR uni1E1B
ENCODING 7707
SWIDTH 464 0
DWIDTH 7 0
BBX 6 9 0 -2
BITMAP
1A80
20A0
6AA0
A000
7000
3860
1B80
1950
1280
ENDCHAR
STARTCHAR uni1E1C
ENCODING 7708
SWIDTH 626 0
DWIDTH 9 0
BBX 9 15 0 -3
BITMAP
051400
02E000
000000
6EAB00
0C0100
0C0400
0C0800
0EA800
0C0400
0C0140
0C0240
6EEB00
009000
002000
019000
ENDCHAR
STARTCHAR uni1E1D
ENCODING 7709
SWIDTH 464 0
DWIDTH 7 0
BBX 6 13 0 -3
BITMAP
1050
0A80
0000
1A80
20A0
6AA0
A000
7000
3860
1F80
0640
0180
0640
ENDCHAR
STARTCHAR uni1E1E
ENCODING 7710
SWIDTH 588 0
DWIDTH 8 0
BBX 8 12 0 0
BITMAP
0080
00D0
0000
6EAB
0C01
0C08
0C08
0EA8
0C04
0C00
0D00
6E40
ENDCHAR
STARTCHAR uni1E1F
ENCODING 7711
SWIDTH 307 0
DWIDTH 4 0
BBX 5 13 0 0
BITMAP
1400
2800
0000
0AC0
1840
2800
6E40
2800
2800
2800
2800
2800
7D00
ENDCHAR
STARTCHAR uni1E20
ENCODING 7712
SWIDTH 720 0
DWIDTH 10 0
BBX 10 11 0 0
BITMAP
02A900
000000
06AF80
1D0280
380180
740000
740690
740280
380280
1D0280
06AA00
ENDCHAR
STARTCHAR uni1E21
ENCODING 7713
SWIDTH 484 0
DWIDTH 7 0
BBX 7 12 0 -3
BITMAP
1A90
0000
1AE4
30A0
7060
34A0
2A40
7000
3FF4
5014
A024
7E90
ENDCHAR
STARTCHAR uni1E22
ENCODING 7714
SWIDTH 777 0
DWIDTH 11 0
BBX 10 12 0 0
BITMAP
002000
007000
000000
6E46E0
1C01C0
0C01C0
0C01C0
0EAAC0
0C01C0
0C01C0
0C01C0
6E46E0
ENDCHAR
STARTCHAR uni1E23
ENCODING 7715
SWIDTH 577 0
DWIDTH 8 0
BBX 8 13 0 0
BITMAP
0140
0180
0000
6800
2800
2800
29E0
2928
2818
2818
2818
2818
7D6D
ENDCHAR
STARTCHAR uni1E24
ENCODING 7716
SWIDTH 777 0
DWIDTH 11 0
BBX 10 12 0 -3
BITMAP
6E46E0
1C01C0
0C01C0
0C01C0
0EAAC0
0C01C0
0C01C0
0C01C0
6E46E0
000000
002000
007000
ENDCHAR
STARTCHAR uni1E25
ENCODING 7717
SWIDTH 577 0
DWIDTH 8 0
BBX 8 13 0 -3
BITMAP
6800
2800
2800
29E0
2928
2818
2818
2818
2818
7D6D
0000
0180
0180
ENDCHAR
STARTCHAR uni1E26
ENCODING 7718
SWIDTH 777 0
DWIDTH 11 0
BBX 10 12 0 0
BITMAP
014500
028A00
000000
6E46E0
1C01C0
0C01C0
0C01C0
0EAAC0
0C01C0
0C01C0
0C01C0
6E46E0
ENDCHAR
STARTCHAR uni1E27
ENCODING 7719
SWIDTH 577 0
DWIDTH 8 0
BBX 8 13 0 0
BITMAP
0410
0D34
0000
6800
2800
2800
29E0
2928
2818
2818
2818
2818
7D6D
ENDCHAR
STARTCHAR uni1E28
ENCODING 7720
SWIDTH 777 0
DWIDTH 11 0
BBX 10 12 0 -3
BITMAP
6E46E0
1C01C0
0C01C0
0C01C0
0EAAC0
0C01C0
0C01C0
0C01C0
6E46E0
090000
020000
190000
ENDCHAR
STARTCHAR uni1E29
ENCODING 7721
SWIDTH 577 0
DWIDTH 8 0
BBX 8 13 0 -3
BITMAP
6800
2800
2800
29E0
2928
2818
2818
2818
2818
7D6D
1800
0900
2800
ENDCHAR
STARTCHAR uni1E2A
ENCODING 7722
SWIDTH 777 0
DWIDTH 11 0
BBX 10 12 0 -3
BITMAP
6E46E0
1C01C0
0C01C0
0C01C0
0EAAC0
0C01C0
0C01C0
0C01C0
6E46E0
000000
010500
00A800
ENDCHAR
STARTCHAR uni1E2B
ENCODING 7723
SWIDTH 577 0
DWIDTH 8 0
BBX 8 13 0 -3
BITMAP
6800
2800
2800
29E0
2928
2818
2818
2818
2818
7D6D
0000
0820
0690
ENDCHAR
STARTCHAR uni1E2C
ENCODING 7724
SWIDTH 357 0
DWIDTH 5 0
BBX 5 11 0 -2
BITMAP
6E40
1C00
0C00
0C00
0C00
0C00
0C00
0C00
6E40
6940
4A00
ENDCHAR
STARTCHAR uni1E2D
ENCODING 7725
SWIDTH 285 0
DWIDTH 4 0
BBX 4 11 0 -2
BITMAP
28
14
68
28
28
28
28
28
7D
A5
5A
ENDCHAR
STARTCHAR uni1E2E
ENCODING 7726
SWIDTH 357 0
DWIDTH 5 0
BBX 5 14 0 0
BITMAP
0A00
1400
5140
A280
0000
6E40
1C00
0C00
0C00
0C00
0C00
0C00
0C00
6E40
ENDCHAR
STARTCHAR uni1E2F
ENCODING 7727
SWIDTH 285 0
DWIDTH 4 0
BBX 5 12 -1 0
BITMAP
0700
0800
0000
7180
1140
1A00
0A00
0A00
0A00
0A00
0A00
1F40
ENDCHAR
STARTCHAR uni1E30
ENCODING 7728
SWIDTH 702 0
DWIDTH 10 0
BBX 10 12 0 0
BITMAP
007400
008000
000000
6E4B80
1C0900
0C2000
0D8000
0E8000
0DE000
0C2800
0C0E00
6E4B90
ENDCHAR
STARTCHAR uni1E31
ENCODING 7729
SWIDTH 542 0
DWIDTH 8 0
BBX 8 13 0 0
BITMAP
01C0
0600
0000
6800
2800
2800
28B8
2880
2A00
2B40
29C0
28A0
7D79
ENDCHAR
STARTCHAR uni1E32
ENCODING 7730
SWIDTH 702 0
DWIDTH 10 0
BBX 10 12 0 -3
BITMAP
6E4B80
1C0900
0C2000
0D8000
0E8000
0DE000
0C2800
0C0E00
6E4B90
000000
009000
00A000
ENDCHAR
STARTCHAR uni1E33
ENCODING 7731
SWIDTH 542 0
DWIDTH 8 0
BBX 8 13 0 -3
BITMAP
6800
2800
2800
28B8
2880
2A00
2B40
29C0
28A0
7D79
0000
0240
0240
ENDCHAR
STARTCHAR uni1E34
ENCODING 7732
SWIDTH 702 0
DWIDTH 10 0
BBX 10 11 0 -2
BITMAP
6E4B80
1C0900
0C2000
0D8000
0E8000
0DE000
0C2800
0C0E00
6E4B90
000000
02A800
ENDCHAR
STARTCHAR uni1E35
ENCODING 7733
SWIDTH 542 0
DWIDTH 8 0
BBX 8 12 0 -2
BITMAP
6800
2800
2800
28B8
2880
2A00
2B40
29C0
28A0
7D79
0000
0AA0
ENDCHAR
STARTCHAR uni1E36
ENCODING 7734
SWIDTH 585 0
DWIDTH 8 0
BBX 8 12 0 -3
BITMAP
6E40
1D00
0C00
0C00
0C00
0C00
0C01
1C02
6EAE
0000
0180
0280
ENDCHAR
STARTCHAR uni1E37
ENCODING 7735
SWIDTH 283 0
DWIDTH 4 0
BBX 4 13 0 -3
BITMAP
68
28
28
28
28
28
28
28
28
7D
00
24
28
ENDCHAR
STARTCHAR uni1E38
ENCODING 7736
SWIDTH 585 0
DWIDTH 8 0
BBX 8 14 0 -3
BITMAP
6A40
0000
6E40
1D00
0C00
0C00
0C00
0C00
0C01
1C02
6EAE
0000
0180
0280
ENDCHAR
STARTCHAR uni1E39
ENCODING 7737
SWIDTH 283 0
DWIDTH 4 0
BBX 4 15 0 -3
BITMAP
AA
00
68
28
28
28
28
28
28
28
28
7D
00
24
28
ENDCHAR
STARTCHAR uni1E3A
ENCODING 7738
SWIDTH 585 0
DWIDTH 8 0
BBX 8 11 0 -2
BITMAP
6E40
1D00
0C00
0C00
0C00
0C00
0C01
1C02
6EAE
0000
0AA0
ENDCHAR
STARTCHAR uni1E3B
ENCODING 7739
SWIDTH 283 0
DWIDTH 4 0
BBX 4 12 0 -2
BITMAP
68
28
28
28
28
28
28
28
28
7D
00
AA
ENDCHAR
STARTCHAR uni1E3C
ENCODING 7740
SWIDTH 585 0
DWIDTH 8 0
BBX 8 12 0 -3
BITMAP
6E40
1D00
0C00
0C00
0C00
0C00
0C01
1C02
6EAE
0000
0280
0560
ENDCHAR
STARTCHAR uni1E3D
ENCODING 7741
SWIDTH 283 0
DWIDTH 4 0
BBX 4 13 0 -3
BITMAP
68
28
28
28
28
28
28
28
28
7D
00
28
95
ENDCHAR
STARTCHAR uni1E3E
ENCODING 7742
SWIDTH 895 0
DWIDTH 13 0
BBX 12 12 0 0
BITMAP
001D00
002400
000000
6D003D
1F0078
1B40A8
1681A8
15D228
14A228
147928
143828
6D147D
ENDCHAR
STARTCHAR uni1E3F
ENCODING 7743
SWIDTH 852 0
DWIDTH 12 0
BBX 12 10 0 0
BITMAP
000D00
001400
000000
69B2A0
282824
282828
282828
282828
282828
7D7D7D
ENDCHAR
STARTCHAR uni1E40
ENCODING 7744
SWIDTH 895 0
DWIDTH 13 0
BBX 12 12 0 0
BITMAP
001400
001800
000000
6D003D
1F0078
1B40A8
1681A8
15D228
14A228
147928
143828
6D147D
ENDCHAR
STARTCHAR uni1E41
ENCODING 7745
SWIDTH 852 0
DWIDTH 12 0
BBX 12 10 0 0
BITMAP
001800
002800
000000
69B2A0
282824
282828
282828
282828
282828
7D7D7D
ENDCHAR
STARTCHAR uni1E42
ENCODING 7746
SWIDTH 895 0
DWIDTH 13 0
BBX 12 12 0 -3
BITMAP
6D003D
1F0078
1B40A8
1681A8
15D228
14A228
147928
143828
6D147D
000000
002400
002800
ENDCHAR
STARTCHAR uni1E43
ENCODING 7747
SWIDTH 852 0
DWIDTH 12 0
BBX 12 10 0 -3
BITMAP
69B2A0
282824
282828
282828
282828
282828
7D7D7D
000000
001800
002800
ENDCHAR
STARTCHAR uni1E44
ENCODING 7748
SWIDTH 742 0
DWIDTH 10 0
BBX 10 12 0 0
BITMAP
001000
007000
000000
7D02E0
1F0080
1B8080
15E080
147480
142C80
140B80
140380
6D0180
ENDCHAR
STARTCHAR uni1E45
ENCODING 7749
SWIDTH 576 0
DWIDTH 8 0
BBX 8 10 0 0
BITMAP
0180
0180
0000
69F0
2828
2818
2818
2818
2818
7D6D
ENDCHAR
STARTCHAR uni1E46
ENCODING 7750
SWIDTH 742 0
DWIDTH 10 0
BBX 10 12 0 -3
BITMAP
7D02E0
1F0080
1B8080
15E080
147480
142C80
140B80
140380
6D0180
000000
005000
00A000
ENDCHAR
STARTCHAR uni1E47
ENCODING 7751
SWIDTH 576 0
DWIDTH 8 0
BBX 8 10 0 -3
BITMAP
69F0
2828
2818
2818
2818
2818
7D6D
0000
0180
0280
ENDCHAR
STARTCHAR uni1E48
ENCODING 7752
SWIDTH 742 0
DWIDTH 10 0
BBX 10 11 0 -2
BITMAP
7D02E0
1F0080
1B8080
15E080
147480
142C80
140B80
140380
6D0180
000000
02A800
ENDCHAR
STARTCHAR uni1E49
ENCODING 7753
SWIDTH 576 0
DWIDTH 8 0
BBX 8 9 0 -2
BITMAP
69F0
2828
2818
2818
2818
2818
7D6D
0000
0AA0
ENDCHAR
STARTCHAR uni1E4A
ENCODING 7754
SWIDTH 742 0
DWIDTH 10 0
BBX 10 12 0 -3
BITMAP
7D02E0
1F0080
1B8080
15E080
147480
142C80
140B80
140380
6D0180
000000
00A000
025800
ENDCHAR
STARTCHAR uni1E4B
ENCODING 7755
SWIDTH 576 0
DWIDTH 8 0
BBX 8 10 0 -3
BITMAP
69F0
2828
2818
2818
2818
2818
7D6D
0000
0280
0560
ENDCHAR
STARTCHAR uni1E4C
ENCODING 7756
SWIDTH 738 0
DWIDTH 10 0
BBX 10 14 0 0
BITMAP
003400
009000
01D100
012800
000000
06A900
1D0280
3801D0
7400E0
7400E0
7400D0
3801D0
1C0280
06A900
ENDCHAR
STARTCHAR uni1E4D
ENCODING 7757
SWIDTH 514 0
DWIDTH 7 0
BBX 7 12 0 0
BITMAP
01C0
0200
0A50
1190
0000
1A90
3034
7028
A028
7028
3434
1A90
ENDCHAR
STARTCHAR uni1E4E
ENCODING 7758
SWIDTH 738 0
DWIDTH 10 0
BBX 10 14 0 0
BITMAP
010400
034D00
01D100
012800
000000
06A900
1D0280
3801D0
7400E0
7400E0
7400D0
3801D0
1C0280
06A900
ENDCHAR
STARTCHAR uni1E4F
ENCODING 7759
SWIDTH 514 0
DWIDTH 7 0
BBX 7 12 0 0
BITMAP
1860
1860
0A50
1190
0000
1A90
3034
7028
A028
7028
3434
1A90
ENDCHAR
STARTCHAR uni1E50
ENCODING 7760
SWIDTH 738 0
DWIDTH 10 0
BBX 10 14 0 0
BITMAP
00D000
002400
000000
02A900
000000
06A900
1D0280
3801D0
7400E0
7400E0
7400D0
3801D0
1C0280
06A900
ENDCHAR
STARTCHAR uni1E51
ENCODING 7761
SWIDTH 514 0
DWIDTH 7 0
BBX 7 12 0 0
BITMAP
0A00
0240
0000
1AA0
0000
1A90
3034
7028
A028
7028
3434
1A90
ENDCHAR
STARTCHAR uni1E52
ENCODING 7762
SWIDTH 738 0
DWIDTH 10 0
BBX 10 14 0 0
BITMAP
003400
009000
000000
02A900
000000
06A900
1D0280
3801D0
7400E0
7400E0
7400D0
3801D0
1C0280
06A900
ENDCHAR
STARTCHAR uni1E53
ENCODING 7763
SWIDTH 514 0
DWIDTH 7 0
BBX 7 12 0 0
BITMAP
01C0
0200
0000
1AA0
0000
1A90
3034
7028
A028
7028
3434
1A90
ENDCHAR
STARTCHAR uni1E54
ENCODING 7764
SWIDTH 569 0
DWIDTH 8 0
BBX 7 12 1 0
BITMAP
0740
0900
0000
BAA0
3034
3028
3074
3A90
3000
3000
3400
B900
ENDCHAR
STARTCHAR uni1E55
ENCODING 7765
SWIDTH 537 0
DWIDTH 8 0
BBX 7 13 0 -3
BITMAP
01C0
0200
0000
76E0
2828
241C
241C
241C
2824
2E90
2400
2800
7D00
ENDCHAR
STARTCHAR uni1E56
ENCODING 7766
SWIDTH 569 0
DWIDTH 8 0
BBX 7 12 1 0
BITMAP
0500
0A00
0000
BAA0
3034
3028
3074
3A90
3000
3000
3400
B900
ENDCHAR
STARTCHAR uni1E57
ENCODING 7767
SWIDTH 537 0
DWIDTH 8 0
BBX 7 13 0 -3
BITMAP
0240
0240
0000
76E0
2828
241C
241C
241C
2824
2E90
2400
2800
7D00
ENDCHAR
STARTCHAR uni1E58
ENCODING 7768
SWIDTH 659 0
DWIDTH 9 0
BBX 9 12 0 0
BITMAP
004000
01C000
000000
6EA800
1C0E00
0C0A00
0C1D00
0EE000
0C7400
0C2C00
1D0E00
2E4780
ENDCHAR
STARTCHAR uni1E59
ENCODING 7769
SWIDTH 380 0
DWIDTH 5 0
BBX 5 10 0 0
BITMAP
0900
0D00
0000
6AC0
2940
2800
2800
2800
2800
7D00
ENDCHAR
STARTCHAR uni1E5A
ENCODING 7770
SWIDTH 659 0
DWIDTH 9 0
BBX 9 12 0 -3
BITMAP
6EA800
1C0E00
0C0A00
0C1D00
0EE000
0C7400
0C2C00
1D0E00
2E4780
000000
009000
00D000
ENDCHAR
STARTCHAR uni1E5B
ENCODING 7771
SWIDTH 380 0
DWIDTH 5 0
BBX 5 10 0 -3
BITMAP
6AC0
2940
2800
2800
2800
2800
7D00
0000
1800
1800
ENDCHAR
STARTCHAR uni1E5C
ENCODING 7772
SWIDTH 659 0
DWIDTH 9 0
BBX 9 14 0 -3
BITMAP
0AA400
000000
6EA800
1C0E00
0C0A00
0C1D00
0EE000
0C7400
0C2C00
1D0E00
2E4780
000000
009000
00D000
ENDCHAR
STARTCHAR uni1E5D
ENCODING 7773
SWIDTH 380 0
DWIDTH 5 0
BBX 5 12 0 -3
BITMAP
6A80
0000
6AC0
2940
2800
2800
2800
2800
7D00
0000
1800
1800
ENDCHAR
STARTCHAR uni1E5E
ENCODING 7774
SWIDTH 659 0
DWIDTH 9 0
BBX 9 11 0 -2
BITMAP
6EA800
1C0E00
0C0A00
0C1D00
0EE000
0C7400
0C2C00
1D0E00
2E4780
000000
06A800
ENDCHAR
STARTCHAR uni1E5F
ENCODING 7775
SWIDTH 380 0
DWIDTH 5 0
BBX 5 9 0 -2
BITMAP
6AC0
2940
2800
2800
2800
2800
7D00
0000
AA00
ENDCHAR
STARTCHAR uni1E60
ENCODING 7776
SWIDTH 504 0
DWIDTH 7 0
BBX 7 12 0 0
BITMAP
0200
0340
0000
1AF0
7030
7010
2D00
07D0
00B4
4038
6034
7AA0
ENDCHAR
STARTCHAR uni1E61
ENCODING 7777
SWIDTH 394 0
DWIDTH 6 0
BBX 5 10 0 0
BITMAP
0900
0900
0000
2A80
6080
7400
1F40
42C0
50C0
6A40
ENDCHAR
STARTCHAR uni1E62
ENCODING 7778
SWIDTH 504 0
DWIDTH 7 0
BBX 7 12 0 -3
BITMAP
1AF0
7030
7010
2D00
07D0
00B4
4038
6034
7AA0
0000
0200
0700
ENDCHAR
STARTCHAR uni1E63
ENCODING 7779
SWIDTH 394 0
DWIDTH 6 0
BBX 5 10 0 -3
BITMAP
2A80
6080
7400
1F40
42C0
50C0
6A40
0000
0900
0D00
ENDCHAR
STARTCHAR uni1E64
ENCODING 7780
SWIDTH 504 0
DWIDTH 7 0
BBX 7 13 0 0
BITMAP
0400
0DD0
0240
0000
1AF0
7030
7010
2D00
07D0
00B4
4038
6034
7AA0
ENDCHAR
STARTCHAR uni1E65
ENCODING 7781
SWIDTH 394 0
DWIDTH 6 0
BBX 5 11 0 0
BITMAP
1000
2B40
1900
0000
2A80
6080
7400
1F40
42C0
50C0
6A40
ENDCHAR
STARTCHAR uni1E66
ENCODING 7782
SWIDTH 504 0
DWIDTH 7 0
BBX 7 13 0 0
BITMAP
0200
0A90
0740
0000
1AF0
7030
7010
2D00
07D0
00B4
4038
6034
7AA0
ENDCHAR
STARTCHAR uni1E67
ENCODING 7783
SWIDTH 394 0
DWIDTH 6 0
BBX 5 12 0 0
BITMAP
0400
0D00
2540
0E00
0000
2A80
6080
7400
1F40
42C0
50C0
6A40
ENDCHAR
STARTCHAR uni1E68
ENCODING 7784
SWIDTH 504 0
DWIDTH 7 0
BBX 7 15 0 -3
BITMAP
0200
0340
0000
1AF0
7030
7010
2D00
07D0
00B4
4038
6034
7AA0
0000
0200
0700
ENDCHAR
STARTCHAR uni1E69
ENCODING 7785
SWIDTH 394 0
DWIDTH 6 0
BBX 5 13 0 -3
BITMAP
0900
0900
0000
2A80
6080
7400
1F40
42C0
50C0
6A40
0000
0900
0D00
ENDCHAR
STARTCHAR uni1E6A
ENCODING 7786
SWIDTH 603 0
DWIDTH 8 0
BBX 9 12 0 0
BITMAP
014000
018000
000000
BAEB00
81C240
41C000
01C000
01C000
01C000
01C000
01C000
07E000
ENDCHAR
STARTCHAR uni1E6B
ENCODING 7787
SWIDTH 315 0
DWIDTH 4 0
BBX 4 11 0 0
BITMAP
18
1C
04
24
7A
24
24
24
24
28
1E
ENDCHAR
STARTCHAR uni1E6C
ENCODING 7788
SWIDTH 603 0
DWIDTH 8 0
BBX 9 12 0 -3
BITMAP
BAEB00
81C240
41C000
01C000
01C000
01C000
01C000
01C000
07E000
000000
018000
01C000
ENDCHAR
STARTCHAR uni1E6D
ENCODING 7789
SWIDTH 315 0
DWIDTH 4 0
BBX 4 12 0 -3
BITMAP
04
24
7A
24
24
24
24
28
1E
00
09
0D
ENDCHAR
STARTCHAR uni1E6E
ENCODING 7790
SWIDTH 603 0
DWIDTH 8 0
BBX 9 11 0 -2
BITMAP
BAEB00
81C240
41C000
01C000
01C000
01C000
01C000
01C000
07E000
000000
0AA400
ENDCHAR
STARTCHAR uni1E6F
ENCODING 7791
SWIDTH 315 0
DWIDTH 4 0
BBX 5 11 0 -2
BITMAP
0400
2400
7A00
2400
2400
2400
2400
2800
1E00
0000
6A40
ENDCHAR
STARTCHAR uni1E70
ENCODING 7792
SWIDTH 603 0
DWIDTH 8 0
BBX 9 12 0 -3
BITMAP
BAEB00
81C240
41C000
01C000
01C000
01C000
01C000
01C000
07E000
000000
02C000
052000
ENDCHAR
STARTCHAR uni1E71
ENCODING 7793
SWIDTH 315 0
DWIDTH 4 0
BBX 5 12 0 -3
BITMAP
0400
2400
7A00
2400
2400
2400
2400
2800
1E00
0000
1D00
2240
ENDCHAR
STARTCHAR uni1E72
ENCODING 7794
SWIDTH 752 0
DWIDTH 11 0
BBX 10 12 0 -3
BITMAP
6E02E0
1C00C0
1C0080
1C0080
1C0080
1C0080
1C0080
0E0240
06FD00
000000
024900
024900
ENDCHAR
STARTCHAR uni1E73
ENCODING 7795
SWIDTH 570 0
DWIDTH 8 0
BBX 8 10 0 -3
BITMAP
7478
2428
2428
2428
2428
2828
1EA9
0000
1860
1C70
ENDCHAR
STARTCHAR uni1E74
ENCODING 7796
SWIDTH 752 0
DWIDTH 11 0
BBX 10 11 0 -2
BITMAP
6E02E0
1C00C0
1C0080
1C0080
1C0080
1C0080
1C0080
0E0240
06FD00
019500
012800
ENDCHAR
STARTCHAR uni1E75
ENCODING 7797
SWIDTH 570 0
DWIDTH 8 0
BBX 8 9 0 -2
BITMAP
7478
2428
2428
2428
2428
2828
1EA9
0A50
1190
ENDCHAR
STARTCHAR uni1E76
ENCODING 7798
SWIDTH 752 0
DWIDTH 11 0
BBX 10 12 0 -3
BITMAP
6E02E0
1C00C0
1C0080
1C0080
1C0080
1C0080
1C0080
0E0240
06FD00
000000
00B400
014800
ENDCHAR
STARTCHAR uni1E77
ENCODING 7799
SWIDTH 570 0
DWIDTH 8 0
BBX 8 10 0 -3
BITMAP
7478
2428
2428
2428
2428
2828
1EA9
0000
0380
0850
ENDCHAR
STARTCHAR uni1E78
ENCODING 7800
SWIDTH 752 0
DWIDTH 11 0
BBX 10 14 0 0
BITMAP
002800
006000
00E100
011D00
000000
6E02E0
1C00C0
1C0080
1C0080
1C0080
1C0080
1C0080
0E0240
06FD00
ENDCHAR
STARTCHAR uni1E79
ENCODING 7801
SWIDTH 570 0
DWIDTH 8 0
BBX 8 12 0 0
BITMAP
01C0
0240
0A50
1190
0000
7478
2428
2428
2428
2428
2828
1EA9
ENDCHAR
STARTCHAR uni1E7A
ENCODING 7802
SWIDTH 752 0
DWIDTH 11 0
BBX 10 13 0 0
BITMAP
014500
028600
01AA00
000000
6E02E0
1C00C0
1C0080
1C0080
1C0080
1C0080
1C0080
0E0240
06FD00
ENDCHAR
STARTCHAR uni1E7B
ENCODING 7803
SWIDTH 570 0
DWIDTH 8 0
BBX 8 12 0 0
BITMAP
1860
1C70
0000
0AA0
0000
7478
2428
2428
2428
2428
2828
1EA9
ENDCHAR
STARTCHAR uni1E7C
ENCODING 7804
SWIDTH 680 0
DWIDTH 10 0
BBX 10 12 0 0
BITMAP
029400
047800
000000
BD02D0
280240
1D0200
0E0500
070800
034800
02E000
00E000
009000
ENDCHAR
STARTCHAR uni1E7D
ENCODING 7805
SWIDTH 481 0
DWIDTH 7 0
BBX 7 10 0 0
BITMAP
0A50
1190
0000
B478
3420
2850
1C80
0D80
0B40
0300
ENDCHAR
STARTCHAR uni1E7E
ENCODING 7806
SWIDTH 680 0
DWIDTH 10 0
BBX 10 12 0 -3
BITMAP
BD02D0
280240
1D0200
0E0500
070800
034800
02E000
00E000
009000
000000
009000
009000
ENDCHAR
STARTCHAR uni1E7F
ENCODING 7807
SWIDTH 481 0
DWIDTH 7 0
BBX 7 10 0 -3
BITMAP
B478
3420
2850
1C80
0D80
0B40
0300
0000
0600
0700
ENDCHAR
STARTCHAR Wgrave
ENCODING 7808
SWIDTH 944 0
DWIDTH 13 0
BBX 13 12 0 0
BITMAP
00280000
00090000
00000000
B96E0780
280D0200
1C0A0200
0E0B0500
0B178800
0361D800
02A0E400
01D0B000
00805000
ENDCHAR
STARTCHAR wgrave
ENCODING 7809
SWIDTH 749 0
DWIDTH 10 0
BBX 11 10 0 0
BITMAP
00D000
002000
000000
B4B474
343020
283450
1C9880
0D8D40
0B4B00
030600
ENDCHAR
STARTCHAR Wacute
ENCODING 7810
SWIDTH 944 0
DWIDTH 13 0
BBX 13 12 0 0
BITMAP
000A0000
00240000
00000000
B96E0780
280D0200
1C0A0200
0E0B0500
0B178800
0361D800
02A0E400
01D0B000
00805000
ENDCHAR
STARTCHAR wacute
ENCODING 7811
SWIDTH 749 0
DWIDTH 10 0
BBX 11 10 0 0
BITMAP
002400
006000
000000
B4B474
343020
283450
1C9880
0D8D40
0B4B00
030600
ENDCHAR
STARTCHAR Wdieresis
ENCODING 7812
SWIDTH 944 0
DWIDTH 13 0
BBX 13 12 0 0
BITMAP
00514000
00A28000
00000000
B96E0780
280D0200
1C0A0200
0E0B0500
0B178800
0361D800
02A0E400
01D0B000
00805000
ENDCHAR
STARTCHAR wdieresis
ENCODING 7813
SWIDTH 749 0
DWIDTH 10 0
BBX 11 10 0 0
BITMAP
024900
034D00
000000
B4B474
343020
283450
1C9880
0D8D40
0B4B00
030600
ENDCHAR
STARTCHAR uni1E86
ENCODING 7814
SWIDTH 944 0
DWIDTH 13 0
BBX 13 12 0 0
BITMAP
00080000
001C0000
00000000
B96E0780
280D0200
1C0A0200
0E0B0500
0B178800
0361D800
02A0E400
01D0B000
00805000
ENDCHAR
STARTCHAR uni1E87
ENCODING 7815
SWIDTH 749 0
DWIDTH 10 0
BBX 11 10 0 0
BITMAP
006000
007000
000000
B4B474
343020
283450
1C9880
0D8D40
0B4B00
030600
ENDCHAR
STARTCHAR uni1E88
ENCODING 7816
SWIDTH 944 0
DWIDTH 13 0
BBX 13 12 0 -3
BITMAP
B96E0780
280D0200
1C0A0200
0E0B0500
0B178800
0361D800
02A0E400
01D0B000
00805000
00000000
00090000
000D0000
ENDCHAR
STARTCHAR uni1E89
ENCODING 7817
SWIDTH 749 0
DWIDTH 10 0
BBX 11 10 0 -3
BITMAP
B4B474
343020
283450
1C9880
0D8D40
0B4B00
030600
000000
006000
007000
ENDCHAR
STARTCHAR uni1E8A
ENCODING 7818
SWIDTH 664 0
DWIDTH 9 0
BBX 9 12 0 0
BITMAP
005000
009000
000000
7E0B80
0E0900
075800
02A000
00E000
027400
092C00
180E00
781F80
ENDCHAR
STARTCHAR uni1E8B
ENCODING 7819
SWIDTH 479 0
DWIDTH 7 0
BBX 7 10 0 0
BITMAP
0200
0700
0000
78B4
1C80
0A40
0740
0A80
24D0
B0B4
ENDCHAR
STARTCHAR uni1E8C
ENCODING 7820
SWIDTH 664 0
DWIDTH 9 0
BBX 9 12 0 0
BITMAP
010400
071C00
000000
7E0B80
0E0900
075800
02A000
00E000
027400
092C00
180E00
781F80
ENDCHAR
STARTCHAR uni1E8D
ENCODING 7821
SWIDTH 479 0
DWIDTH 7 0
BBX 7 10 0 0
BITMAP
2490
24A0
0000
78B4
1C80
0A40
0740
0A80
24D0
B0B4
ENDCHAR
STARTCHAR uni1E8E
ENCODING 7822
SWIDTH 647 0
DWIDTH 9 0
BBX 9 12 0 0
BITMAP
005000
009000
000000
BD0780
2C0500
0A0800
075400
02E000
00D000
00D000
00D000
06E400
ENDCHAR
STARTCHAR uni1E8F
ENCODING 7823
SWIDTH 483 0
DWIDTH 7 0
BBX 7 13 0 -3
BITMAP
0200
0340
0000
B478
3420
2850
0C80
0A80
0740
0300
0200
5800
B400
ENDCHAR
STARTCHAR uni1E90
ENCODING 7824
SWIDTH 594 0
DWIDTH 8 0
BBX 8 12 0 0
BITMAP
01D0
0620
0000
3AAE
201C
0074
00E0
02C0
0740
0D01
2802
7AAE
ENDCHAR
STARTCHAR uni1E91
ENCODING 7825
SWIDTH 458 0
DWIDTH 6 0
BBX 6 10 0 0
BITMAP
0740
1480
0000
7AE0
51D0
0380
0A00
1D10
2820
7AB0
ENDCHAR
STARTCHAR uni1E92
ENCODING 7826
SWIDTH 594 0
DWIDTH 8 0
BBX 8 12 0 -3
BITMAP
3AAE
201C
0074
00E0
02C0
0740
0D01
2802
7AAE
0000
0180
0280
ENDCHAR
STARTCHAR uni1E93
ENCODING 7827
SWIDTH 458 0
DWIDTH 6 0
BBX 6 10 0 -3
BITMAP
7AE0
51D0
0380
0A00
1D10
2820
7AB0
0000
0600
0600
ENDCHAR
STARTCHAR uni1E94
ENCODING 7828
SWIDTH 594 0
DWIDTH 8 0
BBX 8 11 0 -2
BITMAP
3AAE
201C
0074
00E0
02C0
0740
0D01
2802
7AAE
0000
0AA0
ENDCHAR
STARTCHAR uni1E95
ENCODING 7829
SWIDTH 458 0
DWIDTH 6 0
BBX 6 9 0 -2
BITMAP
7AE0
51D0
0380
0A00
1D10
2820
7AB0
0000
2A90
ENDCHAR
STARTCHAR uni1E96
ENCODING 7830
SWIDTH 577 0
DWIDTH 8 0
BBX 8 12 0 -2
BITMAP
6800
2800
2800
29E0
2928
2818
2818
2818
2818
7D6D
0000
0AA0
ENDCHAR
STARTCHAR uni1E97
ENCODING 7831
SWIDTH 315 0
DWIDTH 4 0
BBX 5 11 0 0
BITMAP
9240
D240
0400
2400
7A00
2400
2400
2400
2400
2800
1E00
ENDCHAR
STARTCHAR uni1E98
ENCODING 7832
SWIDTH 749 0
DWIDTH 10 0
BBX 11 10 0 0
BITMAP
00A400
008800
00A400
B4B474
343020
283450
1C9880
0D8D40
0B4B00
030600
ENDCHAR
STARTCHAR uni1E99
ENCODING 7833
SWIDTH 483 0
DWIDTH 7 0
BBX 7 13 0 -3
BITMAP
0640
0880
0640
B478
3420
2850
0C80
0A80
0740
0300
0200
5800
B400
ENDCHAR
STARTCHAR uni1E9A
ENCODING 7834
SWIDTH 480 0
DWIDTH 7 0
BBX 7 11 0 0
BITMAP
0600
0140
0600
0000
1680
30D0
0090
09D0
3090
70D0
3AB4
ENDCHAR
STARTCHAR uni1E9B
ENCODING 7835
SWIDTH 285 0
DWIDTH 4 0
BBX 5 13 0 0
BITMAP
1400
2800
0000
0AC0
1840
2800
6800
2800
2800
2800
2800
2800
7D00
ENDCHAR
STARTCHAR uni1E9C
ENCODING 7836
SWIDTH 300 0
DWIDTH 4 0
BBX 6 10 0 0
BITMAP
0AD0
1840
1800
6900
1D00
2800
6800
1800
1800
6D00
ENDCHAR
STARTCHAR uni1E9D
ENCODING 7837
SWIDTH 285 0
DWIDTH 4 0
BBX 5 10 0 0
BITMAP
06C0
1880
6E00
6800
2800
2800
2800
2800
2800
7D00
ENDCHAR
STARTCHAR uni1E9E
ENCODING 7838
SWIDTH 684 0
DWIDTH 10 0
BBX 9 9 0 0
BITMAP
02AA40
0E0700
1C0D00
1C2800
1C2A00
1C0280
1C01C0
1C4180
6CA600
ENDCHAR
STARTCHAR uni1E9F
ENCODING 7839
SWIDTH 517 0
DWIDTH 7 0
BBX 7 11 0 0
BITMAP
0690
1830
1C00
0B40
07D0
28B0
7038
B028
7028
3434
1A90
ENDCHAR
STARTCHAR uni1EA0
ENCODING 7840
SWIDTH 718 0
DWIDTH 10 0
BBX 10 12 0 -3
BITMAP
009000
00F000
017400
022800
050D00
0AAE00
180700
240380
B807E0
000000
009000
00D000
ENDCHAR
STARTCHAR uni1EA1
ENCODING 7841
SWIDTH 480 0
DWIDTH 7 0
BBX 7 10 0 -3
BITMAP
1680
30D0
0090
09D0
3090
70D0
3AB4
0000
0600
0700
ENDCHAR
STARTCHAR uni1EA2
ENCODING 7842
SWIDTH 718 0
DWIDTH 10 0
BBX 10 13 0 0
BITMAP
00A000
002400
005000
000000
009000
00F000
017400
022800
050D00
0AAE00
180700
240380
B807E0
ENDCHAR
STARTCHAR uni1EA3
ENCODING 7843
SWIDTH 480 0
DWIDTH 7 0
BBX 7 10 0 0
BITMAP
0540
0180
0200
1680
30D0
0090
09D0
3090
70D0
3AB4
ENDCHAR
STARTCHAR uni1EA4
ENCODING 7844
SWIDTH 718 0
DWIDTH 10 0
BBX 10 13 0 0
BITMAP
000140
00E600
025800
000000
009000
00F000
017400
022800
050D00
0AAE00
180700
240380
B807E0
ENDCHAR
STARTCHAR uni1EA5
ENCODING 7845
SWIDTH 480 0
DWIDTH 7 0
BBX 7 11 0 0
BITMAP
0014
0030
0B50
1480
1680
30D0
0090
09D0
3090
70D0
3AB4
ENDCHAR
STARTCHAR uni1EA6
ENCODING 7846
SWIDTH 718 0
DWIDTH 10 0
BBX 10 13 0 0
BITMAP
001800
00A600
025800
000000
009000
00F000
017400
022800
050D00
0AAE00
180700
240380
B807E0
ENDCHAR
STARTCHAR uni1EA7
ENCODING 7847
SWIDTH 480 0
DWIDTH 7 0
BBX 7 11 0 0
BITMAP
0040
0080
0B50
1480
1680
30D0
0090
09D0
3090
70D0
3AB4
ENDCHAR
STARTCHAR uni1EA8
ENCODING 7848
SWIDTH 718 0
DWIDTH 10 0
BBX 10 14 0 0
BITMAP
000A00
000200
00A800
021400
000000
009000
00F000
017400
022800
050D00
0AAE00
180700
240380
B807E0
ENDCHAR
STARTCHAR uni1EA9
ENCODING 7849
SWIDTH 480 0
DWIDTH 7 0
BBX 7 11 0 0
BITMAP
0050
0024
0B50
1880
2680
30D0
0090
09D0
3090
70D0
3AB4
ENDCHAR
STARTCHAR uni1EAA
ENCODING 7850
SWIDTH 718 0
DWIDTH 10 0
BBX 10 14 0 0
BITMAP
029400
016800
00A000
025400
000000
009000
00F000
017400
022800
050D00
0AAE00
180700
240380
B807E0
ENDCHAR
STARTCHAR uni1EAB
ENCODING 7851
SWIDTH 480 0
DWIDTH 7 0
BBX 7 11 0 0
BITMAP
1D10
1280
0B00
1480
1680
30D0
0090
09D0
3090
70D0
3AB4
ENDCHAR
STARTCHAR uni1EAC
ENCODING 7852
SWIDTH 718 0
DWIDTH 10 0
BBX 10 15 0 -3
BITMAP
00E000
025800
000000
009000
00F000
017400
022800
050D00
0AAE00
180700
240380
B807E0
000000
009000
00D000
ENDCHAR
STARTCHAR uni1EAD
ENCODING 7853
SWIDTH 480 0
DWIDTH 7 0
BBX 7 13 0 -3
BITMAP
0B00
1480
0000
1680
30D0
0090
09D0
3090
70D0
3AB4
0000
0600
0700
ENDCHAR
STARTCHAR uni1EAE
ENCODING 7854
SWIDTH 718 0
DWIDTH 10 0
BBX 10 13 0 0
BITMAP
007400
024800
01F400
000000
009000
00F000
017400
022800
050D00
0AAE00
180700
240380
B807E0
ENDCHAR
STARTCHAR uni1EAF
ENCODING 7855
SWIDTH 480 0
DWIDTH 7 0
BBX 7 11 0 0
BITMAP
0140
0200
2540
1B80
1680
30D0
0090
09D0
3090
70D0
3AB4
ENDCHAR
STARTCHAR uni1EB0
ENCODING 7856
SWIDTH 718 0
DWIDTH 10 0
BBX 10 13 0 0
BITMAP
018000
021800
01F400
000000
009000
00F000
017400
022800
050D00
0AAE00
180700
240380
B807E0
ENDCHAR
STARTCHAR uni1EB1
ENCODING 7857
SWIDTH 480 0
DWIDTH 7 0
BBX 7 11 0 0
BITMAP
0400
0900
2140
1B80
1680
30D0
0090
09D0
3090
70D0
3AB4
ENDCHAR
STARTCHAR uni1EB2
ENCODING 7858
SWIDTH 718 0
DWIDTH 10 0
BBX 10 14 0 0
BITMAP
00A000
002400
025800
01F400
000000
009000
00F000
017400
022800
050D00
0AAE00
180700
240380
B807E0
ENDCHAR
STARTCHAR uni1EB3
ENCODING 7859
SWIDTH 480 0
DWIDTH 7 0
BBX 7 11 0 0
BITMAP
0540
0140
2540
1B80
1680
30D0
0090
09D0
3090
70D0
3AB4
ENDCHAR
STARTCHAR uni1EB4
ENCODING 7860
SWIDTH 718 0
DWIDTH 10 0
BBX 10 14 0 0
BITMAP
02D400
016400
020800
01F400
000000
009000
00F000
017400
022800
050D00
0AAE00
180700
240380
B807E0
ENDCHAR
STARTCHAR uni1EB5
ENCODING 7861
SWIDTH 480 0
DWIDTH 7 0
BBX 7 11 0 0
BITMAP
1D10
1280
2040
1B80
1680
30D0
0090
09D0
3090
70D0
3AB4
ENDCHAR
STARTCHAR uni1EB6
ENCODING 7862
SWIDTH 718 0
DWIDTH 10 0
BBX 10 15 0 -3
BITMAP
020800
01F400
000000
009000
00F000
017400
022800
050D00
0AAE00
180700
240380
B807E0
000000
009000
00D000
ENDCHAR
STARTCHAR uni1EB7
ENCODING 7863
SWIDTH 480 0
DWIDTH 7 0
BBX 7 13 0 -3
BITMAP
2040
1A40
0000
1680
30D0
0090
09D0
3090
70D0
3AB4
0000
0600
0700
ENDCHAR
STARTCHAR uni1EB8
ENCODING 7864
SWIDTH 626 0
DWIDTH 9 0
BBX 9 12 0 -3
BITMAP
6EAB00
0C0100
0C0400
0C0800
0EA800
0C0400
0C0140
0C0240
6EAB00
000000
008000
00C000
ENDCHAR
STARTCHAR uni1EB9
ENCODING 7865
SWIDTH 464 0
DWIDTH 7 0
BBX 6 10 0 -3
BITMAP
1A80
20A0
6AA0
A000
7000
3860
1B80
0000
0600
0700
ENDCHAR
STARTCHAR uni1EBA
ENCODING 7866
SWIDTH 626 0
DWIDTH 9 0
BBX 9 13 0 0
BITMAP
015000
002000
008000
000000
6EAB00
0C0100
0C0400
0C0800
0EA800
0C0400
0C0140
0C0240
6EAB00
ENDCHAR
STARTCHAR uni1EBB
ENCODING 7867
SWIDTH 464 0
DWIDTH 7 0
BBX 6 10 0 0
BITMAP
0540
0080
0200
1A80
20A0
6AA0
A000
7000
3860
1B80
ENDCHAR
STARTCHAR uni1EBC
ENCODING 7868
SWIDTH 626 0
DWIDTH 9 0
BBX 9 12 0 0
BITMAP
078400
04B400
000000
6EAB00
0C0100
0C0400
0C0800
0EA800
0C0400
0C0140
0C0240
6EAB00
ENDCHAR
STARTCHAR uni1EBD
ENCODING 7869
SWIDTH 464 0
DWIDTH 7 0
BBX 6 10 0 0
BITMAP
1A50
1280
0000
1A80
20A0
6AA0
A000
7000
3860
1B80
ENDCHAR
STARTCHAR uni1EBE
ENCODING 7870
SWIDTH 626 0
DWIDTH 9 0
BBX 9 13 0 0
BITMAP
000100
01D900
062400
000000
6EAB00
0C0100
0C0400
0C0800
0EA800
0C0400
0C0140
0C0240
6EAB00
ENDCHAR
STARTCHAR uni1EBF
ENCODING 7871
SWIDTH 464 0
DWIDTH 7 0
BBX 7 11 0 0
BITMAP
0014
0024
0750
1880
1A80
20A0
6AA0
A000
7000
3860
1B80
ENDCHAR
STARTCHAR uni1EC0
ENCODING 7872
SWIDTH 626 0
DWIDTH 9 0
BBX 9 13 0 0
BITMAP
001400
01D900
062400
000000
6EAB00
0C0100
0C0400
0C0800
0EA800
0C0400
0C0140
0C0240
6EAB00
ENDCHAR
STARTCHAR uni1EC1
ENCODING 7873
SWIDTH 464 0
DWIDTH 7 0
BBX 6 11 0 0
BITMAP
0040
0090
0750
1880
1A80
20A0
6AA0
A000
7000
3860
1B80
ENDCHAR
STARTCHAR uni1EC2
ENCODING 7874
SWIDTH 626 0
DWIDTH 9 0
BBX 9 14 0 0
BITMAP
001900
000600
01D800
051400
000000
6EAB00
0C0100
0C0400
0C0800
0EA800
0C0400
0C0140
0C0240
6EAB00
ENDCHAR
STARTCHAR uni1EC3
ENCODING 7875
SWIDTH 464 0
DWIDTH 7 0
BBX 7 11 0 0
BITMAP
0054
0014
0750
0880
1A90
20A0
6AA0
A000
7000
3860
1B80
ENDCHAR
STARTCHAR uni1EC4
ENCODING 7876
SWIDTH 626 0
DWIDTH 9 0
BBX 9 14 0 0
BITMAP
038400
04A400
019000
066000
000000
6EAB00
0C0100
0C0400
0C0800
0EA800
0C0400
0C0140
0C0240
6EAB00
ENDCHAR
STARTCHAR uni1EC5
ENCODING 7877
SWIDTH 464 0
DWIDTH 7 0
BBX 6 11 0 0
BITMAP
1E10
1280
0740
1880
1A80
20A0
6AA0
A000
7000
3860
1B80
ENDCHAR
STARTCHAR uni1EC6
ENCODING 7878
SWIDTH 626 0
DWIDTH 9 0
BBX 9 15 0 -3
BITMAP
01D000
062400
000000
6EAB00
0C0100
0C0400
0C0800
0EA800
0C0400
0C0140
0C0240
6EAB00
000000
008000
00C000
ENDCHAR
STARTCHAR uni1EC7
ENCODING 7879
SWIDTH 464 0
DWIDTH 7 0
BBX 6 13 0 -3
BITMAP
0740
1880
0000
1A80
20A0
6AA0
A000
7000
3860
1B80
0000
0600
0700
ENDCHAR
STARTCHAR uni1EC8
ENCODING 7880
SWIDTH 357 0
DWIDTH 5 0
BBX 5 13 0 0
BITMAP
1500
0200
0800
0000
6E40
1C00
0C00
0C00
0C00
0C00
0C00
0C00
6E40
ENDCHAR
STARTCHAR uni1EC9
ENCODING 7881
SWIDTH 285 0
DWIDTH 4 0
BBX 4 10 0 0
BITMAP
18
08
14
68
28
28
28
28
28
7D
ENDCHAR
STARTCHAR uni1ECA
ENCODING 7882
SWIDTH 357 0
DWIDTH 5 0
BBX 5 12 0 -3
BITMAP
6E40
1C00
0C00
0C00
0C00
0C00
0C00
0C00
6E40
0000
0800
0C00
ENDCHAR
STARTCHAR uni1ECB
ENCODING 7883
SWIDTH 285 0
DWIDTH 4 0
BBX 4 12 0 -3
BITMAP
28
14
68
28
28
28
28
28
7D
00
18
28
ENDCHAR
STARTCHAR uni1ECC
ENCODING 7884
SWIDTH 738 0
DWIDTH 10 0
BBX 10 12 0 -3
BITMAP
06A900
1D0280
3801D0
7400E0
7400E0
7400D0
3801D0
1C0280
06A900
000000
006000
006000
ENDCHAR
STARTCHAR uni1ECD
ENCODING 7885
SWIDTH 514 0
DWIDTH 7 0
BBX 7 10 0 -3
BITMAP
1A90
3034
7028
A028
7028
3434
1A90
0000
0240
0340
ENDCHAR
STARTCHAR uni1ECE
ENCODING 7886
SWIDTH 738 0
DWIDTH 10 0
BBX 10 13 0 0
BITMAP
005400
001800
002000
000000
06A900
1D0280
3801D0
7400E0
7400E0
7400D0
3801D0
1C0280
06A900
ENDCHAR
STARTCHAR uni1ECF
ENCODING 7887
SWIDTH 514 0
DWIDTH 7 0
BBX 7 10 0 0
BITMAP
0540
0080
0100
1A90
3034
7028
A028
7028
3434
1A90
ENDCHAR
STARTCHAR uni1ED0
ENCODING 7888
SWIDTH 738 0
DWIDTH 10 0
BBX 10 13 0 0
BITMAP
000040
00B600
014800
000000
06A900
1D0280
3801D0
7400E0
7400E0
7400D0
3801D0
1C0280
06A900
ENDCHAR
STARTCHAR uni1ED1
ENCODING 7889
SWIDTH 514 0
DWIDTH 7 0
BBX 7 11 0 0
BITMAP
0004
0024
0750
0850
1A90
3034
7028
A028
7028
3434
1A90
ENDCHAR
STARTCHAR uni1ED2
ENCODING 7890
SWIDTH 738 0
DWIDTH 10 0
BBX 10 13 0 0
BITMAP
000900
00A600
014800
000000
06A900
1D0280
3801D0
7400E0
7400E0
7400D0
3801D0
1C0280
06A900
ENDCHAR
STARTCHAR uni1ED3
ENCODING 7891
SWIDTH 514 0
DWIDTH 7 0
BBX 7 11 0 0
BITMAP
0040
0060
0750
0850
1A90
3034
7028
A028
7028
3434
1A90
ENDCHAR
STARTCHAR uni1ED4
ENCODING 7892
SWIDTH 738 0
DWIDTH 10 0
BBX 10 14 0 0
BITMAP
000A00
000240
00B500
014800
000000
06A900
1D0280
3801D0
7400E0
7400E0
7400D0
3801D0
1C0280
06A900
ENDCHAR
STARTCHAR uni1ED5
ENCODING 7893
SWIDTH 514 0
DWIDTH 7 0
BBX 7 11 0 0
BITMAP
0054
0018
0760
0880
1A90
3034
7028
A028
7028
3434
1A90
ENDCHAR
STARTCHAR uni1ED6
ENCODING 7894
SWIDTH 738 0
DWIDTH 10 0
BBX 10 14 0 0
BITMAP
01D100
012800
006000
015800
000000
06A900
1D0280
3801D0
7400E0
7400E0
7400D0
3801D0
1C0280
06A900
ENDCHAR
STARTCHAR uni1ED7
ENCODING 7895
SWIDTH 514 0
DWIDTH 7 0
BBX 7 11 0 0
BITMAP
0A10
1190
0740
0890
1A90
3034
7028
A028
7028
3434
1A90
ENDCHAR
STARTCHAR uni1ED8
ENCODING 7896
SWIDTH 738 0
DWIDTH 10 0
BBX 10 15 0 -3
BITMAP
00B000
014800
000000
06A900
1D0280
3801D0
7400E0
7400E0
7400D0
3801D0
1C0280
06A900
000000
006000
006000
ENDCHAR
STARTCHAR uni1ED9
ENCODING 7897
SWIDTH 514 0
DWIDTH 7 0
BBX 7 13 0 -3
BITMAP
0740
0850
0000
1A90
3034
7028
A028
7028
3434
1A90
0000
0240
0340
ENDCHAR
STARTCHAR uni1EDA
ENCODING 7898
SWIDTH 737 0
DWIDTH 10 0
BBX 10 12 0 0
BITMAP
003410
009070
000060
06AF40
1C0280
3801D0
7400E0
7400E0
7400D0
3801C0
1C0280
06A900
ENDCHAR
STARTCHAR uni1EDB
ENCODING 7899
SWIDTH 516 0
DWIDTH 7 0
BBX 7 10 0 0
BITMAP
01C0
020C
0008
1AF4
3034
7028
A028
7028
3434
1A90
ENDCHAR
STARTCHAR uni1EDC
ENCODING 7900
SWIDTH 737 0
DWIDTH 10 0
BBX 10 12 0 0
BITMAP
00D010
002470
000060
06AF40
1C0280
3801D0
7400E0
7400E0
7400D0
3801C0
1C0280
06A900
ENDCHAR
STARTCHAR uni1EDD
ENCODING 7901
SWIDTH 516 0
DWIDTH 7 0
BBX 7 10 0 0
BITMAP
0A00
024C
0008
1AF4
3034
7028
A028
7028
3434
1A90
ENDCHAR
STARTCHAR uni1EDE
ENCODING 7902
SWIDTH 737 0
DWIDTH 10 0
BBX 10 13 0 0
BITMAP
005400
001410
001070
000060
06AF40
1C0280
3801D0
7400E0
7400E0
7400D0
3801C0
1C0280
06A900
ENDCHAR
STARTCHAR uni1EDF
ENCODING 7903
SWIDTH 516 0
DWIDTH 7 0
BBX 7 10 0 0
BITMAP
0540
008C
0108
1AF4
3034
7028
A028
7028
3434
1A90
ENDCHAR
STARTCHAR uni1EE0
ENCODING 7904
SWIDTH 737 0
DWIDTH 10 0
BBX 10 12 0 0
BITMAP
01D110
012870
000060
06AF40
1C0280
3801D0
7400E0
7400E0
7400D0
3801C0
1C0280
06A900
ENDCHAR
STARTCHAR uni1EE1
ENCODING 7905
SWIDTH 516 0
DWIDTH 7 0
BBX 7 9 0 0
BITMAP
1FDC
0008
1AF4
3034
7028
A028
7028
3434
1A90
ENDCHAR
STARTCHAR uni1EE2
ENCODING 7906
SWIDTH 737 0
DWIDTH 10 0
BBX 10 15 0 -3
BITMAP
000010
000070
000060
06AF40
1C0280
3801D0
7400E0
7400E0
7400D0
3801C0
1C0280
06A900
000000
006000
006000
ENDCHAR
STARTCHAR uni1EE3
ENCODING 7907
SWIDTH 516 0
DWIDTH 7 0
BBX 7 12 0 -3
BITMAP
000C
0008
1AF4
3034
7028
A028
7028
3434
1A90
0000
0240
0340
ENDCHAR
STARTCHAR uni1EE4
ENCODING 7908
SWIDTH 752 0
DWIDTH 11 0
BBX 10 12 0 -3
BITMAP
6E02E0
1C00C0
1C0080
1C0080
1C0080
1C0080
1C0080
0E0240
06FD00
000000
006000
007000
ENDCHAR
STARTCHAR uni1EE5
ENCODING 7909
SWIDTH 570 0
DWIDTH 8 0
BBX 8 10 0 -3
BITMAP
7478
2428
2428
2428
2428
2828
1EA9
0000
0240
0240
ENDCHAR
STARTCHAR uni1EE6
ENCODING 7910
SWIDTH 752 0
DWIDTH 11 0
BBX 10 13 0 0
BITMAP
005400
000C00
002000
000000
6E02E0
1C00C0
1C0080
1C0080
1C0080
1C0080
1C0080
0E0240
06FD00
ENDCHAR
STARTCHAR uni1EE7
ENCODING 7911
SWIDTH 570 0
DWIDTH 8 0
BBX 8 10 0 0
BITMAP
0180
0090
0140
7478
2428
2428
2428
2428
2828
1EA9
ENDCHAR
STARTCHAR uni1EE8
ENCODING 7912
SWIDTH 762 0
DWIDTH 11 0
BBX 12 12 0 0
BITMAP
002809
006009
000004
6E02C0
1C00C0
1C0080
1C0080
1C0080
1C0080
1C0080
0E0240
06FD00
ENDCHAR
STARTCHAR uni1EE9
ENCODING 7913
SWIDTH 574 0
DWIDTH 8 0
BBX 8 10 0 0
BITMAP
01C0
0203
0002
7478
2428
2428
2428
2428
2828
1EA9
ENDCHAR
STARTCHAR uni1EEA
ENCODING 7914
SWIDTH 762 0
DWIDTH 11 0
BBX 12 12 0 0
BITMAP
00A009
001809
000004
6E02C0
1C00C0
1C0080
1C0080
1C0080
1C0080
1C0080
0E0240
06FD00
ENDCHAR
STARTCHAR uni1EEB
ENCODING 7915
SWIDTH 574 0
DWIDTH 8 0
BBX 8 10 0 0
BITMAP
0600
0243
0002
7478
2428
2428
2428
2428
2828
1EA9
ENDCHAR
STARTCHAR uni1EEC
ENCODING 7916
SWIDTH 762 0
DWIDTH 11 0
BBX 12 13 0 0
BITMAP
005400
000C09
002009
000004
6E02C0
1C00C0
1C0080
1C0080
1C0080
1C0080
1C0080
0E0240
06FD00
ENDCHAR
STARTCHAR uni1EED
ENCODING 7917
SWIDTH 574 0
DWIDTH 8 0
BBX 8 10 0 0
BITMAP
0180
0083
0142
7478
2428
2428
2428
2428
2828
1EA9
ENDCHAR
STARTCHAR uni1EEE
ENCODING 7918
SWIDTH 762 0
DWIDTH 11 0
BBX 12 12 0 0
BITMAP
00E109
011D09
000004
6E02C0
1C00C0
1C0080
1C0080
1C0080
1C0080
1C0080
0E0240
06FD00
ENDCHAR
STARTCHAR uni1EEF
ENCODING 7919
SWIDTH 574 0
DWIDTH 8 0
BBX 8 10 0 0
BITMAP
0A50
1193
0002
7478
2428
2428
2428
2428
2828
1EA9
ENDCHAR
STARTCHAR uni1EF0
ENCODING 7920
SWIDTH 762 0
DWIDTH 11 0
BBX 12 15 0 -3
BITMAP
000009
000009
000004
6E02C0
1C00C0
1C0080
1C0080
1C0080
1C0080
1C0080
0E0240
06FD00
000000
006000
007000
ENDCHAR
STARTCHAR uni1EF1
ENCODING 7921
SWIDTH 574 0
DWIDTH 8 0
BBX 8 12 0 -3
BITMAP
0003
0002
7478
2428
2428
2428
2428
2828
1EA9
0000
0240
0240
ENDCHAR
STARTCHAR Ygrave
ENCODING 7922
SWIDTH 647 0
DWIDTH 9 0
BBX 9 12 0 0
BITMAP
01C000
006000
000000
BD0780
2C0500
0A0800
075400
02E000
00D000
00D000
00D000
06E400
ENDCHAR
STARTCHAR ygrave
ENCODING 7923
SWIDTH 483 0
DWIDTH 7 0
BBX 7 13 0 -3
BITMAP
0A00
0240
0000
B478
3420
2850
0C80
0A80
0740
0300
0200
5800
B400
ENDCHAR
STARTCHAR uni1EF4
ENCODING 7924
SWIDTH 647 0
DWIDTH 9 0
BBX 9 12 0 -3
BITMAP
BD0780
2C0500
0A0800
075400
02E000
00D000
00D000
00D000
06E400
000000
008000
00D000
ENDCHAR
STARTCHAR uni1EF5
ENCODING 7925
SWIDTH 483 0
DWIDTH 7 0
BBX 7 10 0 -3
BITMAP
B478
3420
2850
0C80
0A80
0740
0300
0200
5890
B4D0
ENDCHAR
STARTCHAR uni1EF6
ENCODING 7926
SWIDTH 647 0
DWIDTH 9 0
BBX 9 13 0 0
BITMAP
006000
002000
005000
000000
BD0780
2C0500
0A0800
075400
02E000
00D000
00D000
00D000
06E400
ENDCHAR
STARTCHAR uni1EF7
ENCODING 7927
SWIDTH 483 0
DWIDTH 7 0
BBX 7 13 0 -3
BITMAP
0540
00C0
0200
B478
3420
2850
0C80
0A80
0740
0300
0200
5800
B400
ENDCHAR
STARTCHAR uni1EF8
ENCODING 7928
SWIDTH 647 0
DWIDTH 9 0
BBX 9 12 0 0
BITMAP
029400
047400
000000
BD0780
2C0500
0A0800
075400
02E000
00D000
00D000
00D000
06E400
ENDCHAR
STARTCHAR uni1EF9
ENCODING 7929
SWIDTH 483 0
DWIDTH 7 0
BBX 7 13 0 -3
BITMAP
0A50
1190
0000
B478
3420
2850
0C80
0A80
0740
0300
0200
5800
B400
ENDCHAR
STARTCHAR uni2000
ENCODING 8192
SWIDTH 500 0
DWIDTH 7 0
BBX 1 1 0 0
BITMAP
00
ENDCHAR
STARTCHAR uni2001
ENCODING 8193
SWIDTH 1000 0
DWIDTH 14 0
BBX 1 1 0 0
BITMAP
00
ENDCHAR
STARTCHAR uni2002
ENCODING 8194
SWIDTH 500 0
DWIDTH 7 0
BBX 1 1 0 0
BITMAP
00
ENDCHAR
STARTCHAR uni2003
ENCODING 8195
SWIDTH 1000 0
DWIDTH 14 0
BBX 1 1 0 0
BITMAP
00
ENDCHAR
STARTCHAR uni2004
ENCODING 8196
SWIDTH 334 0
DWIDTH 5 0
BBX 1 1 0 0
BITMAP
00
ENDCHAR
STARTCHAR uni2005
ENCODING 8197
SWIDTH 250 0
DWIDTH 4 0
BBX 1 1 0 0
BITMAP
00
ENDCHAR
STARTCHAR uni2006
ENCODING 8198
SWIDTH 167 0
DWIDTH 2 0
BBX 1 1 0 0
BITMAP
00
ENDCHAR
STARTCHAR uni2007
ENCODING 8199
SWIDTH 560 0
DWIDTH 8 0
BBX 1 1 0 0
BITMAP
00
ENDCHAR
STARTCHAR uni2008
ENCODING 8200
SWIDTH 297 0
DWIDTH 4 0
BBX 1 1 0 0
BITMAP
00
ENDCHAR
STARTCHAR uni2009
ENCODING 8201
SWIDTH 125 0
DWIDTH 2 0
BBX 1 1 0 0
BITMAP
00
ENDCHAR
STARTCHAR uni200A
ENCODING 8202
SWIDTH 63 0
DWIDTH 1 0
BBX 1 1 0 0
BITMAP
00
ENDCHAR
STARTCHAR uni200B
ENCODING 8203
SWIDTH 0 0
DWIDTH 0 0
BBX 1 1 0 0
BITMAP
00
ENDCHAR
STARTCHAR uni200C
ENCODING 8204
SWIDTH 0 0
DWIDTH 0 0
BBX 2 15 -1 -4
BITMAP
50
50
50
50
50
50
50
50
50
50
50
50
50
50
50
ENDCHAR
STARTCHAR uni200D
ENCODING 8205
SWIDTH 0 0
DWIDTH 0 0
BBX 4 17 -2 -4
BITMAP
41
14
14
55
14
14
14
14
14
14
14
14
14
14
14
14
14
ENDCHAR
STARTCHAR uni2010
ENCODING 8208
SWIDTH 315 0
DWIDTH 4 0
BBX 4 1 0 3
BITMAP
7E
ENDCHAR
STARTCHAR uni2011
ENCODING 8209
SWIDTH 315 0
DWIDTH 4 0
BBX 4 1 0 3
BITMAP
7E
ENDCHAR
STARTCHAR figuredash
ENCODING 8210
SWIDTH 495 0
DWIDTH 7 0
BBX 7 1 0 3
BITMAP
6AA4
ENDCHAR
STARTCHAR endash
ENCODING 8211
SWIDTH 500 0
DWIDTH 7 0
BBX 7 1 0 3
BITMAP
6AA4
ENDCHAR
STARTCHAR emdash
ENCODING 8212
SWIDTH 1000 0
DWIDTH 14 0
BBX 14 1 0 3
BITMAP
6AAAAA90
ENDCHAR
STARTCHAR uni2015
ENCODING 8213
SWIDTH 940 0
DWIDTH 13 0
BBX 13 1 0 3
BITMAP
AAAAAA80
ENDCHAR
STARTCHAR uni2016
ENCODING 8214
SWIDTH 427 0
DWIDTH 6 0
BBX 4 13 1 -3
BITMAP
96
96
96
96
96
96
96
96
96
96
96
96
96
ENDCHAR
STARTCHAR underscoredbl
ENCODING 8215
SWIDTH 512 0
DWIDTH 7 0
BBX 7 3 0 -4
BITMAP
AAA8
0000
AAA8
ENDCHAR
STARTCHAR quoteleft
ENCODING 8216
SWIDTH 245 0
DWIDTH 3 0
BBX 2 4 1 7
BITMAP
10
80
D0
E0
ENDCHAR
STARTCHAR quoteright
ENCODING 8217
SWIDTH 245 0
DWIDTH 3 0
BBX 3 4 0 6
BITMAP
74
28
14
10
ENDCHAR
STARTCHAR quotesinglbase
ENCODING 8218
SWIDTH 243 0
DWIDTH 3 0
BBX 3 4 0 -2
BITMAP
24
78
14
10
ENDCHAR
STARTCHAR quotereversed
ENCODING 8219
SWIDTH 243 0
DWIDTH 3 0
BBX 2 4 1 6
BITMAP
E0
D0
80
10
ENDCHAR
STARTCHAR quotedblleft
ENCODING 8220
SWIDTH 435 0
DWIDTH 6 0
BBX 5 4 1 7
BITMAP
1000
8200
D600
E740
ENDCHAR
STARTCHAR quotedblright
ENCODING 8221
SWIDTH 434 0
DWIDTH 6 0
BBX 6 4 0 6
BITMAP
75C0
2990
1480
1100
ENDCHAR
STARTCHAR quotedblbase
ENCODING 8222
SWIDTH 433 0
DWIDTH 6 0
BBX 6 4 0 -2
BITMAP
2580
7AD0
1480
1140
ENDCHAR
STARTCHAR uni201F
ENCODING 8223
SWIDTH 434 0
DWIDTH 6 0
BBX 5 4 1 6
BITMAP
E740
D600
8200
1000
ENDCHAR
STARTCHAR dagger
ENCODING 8224
SWIDTH 512 0
DWIDTH 7 0
BBX 6 12 1 -2
BITMAP
0C00
0800
0400
EAD0
4440
0800
0D00
0C00
0800
0400
0400
0400
ENDCHAR
STARTCHAR daggerdbl
ENCODING 8225
SWIDTH 512 0
DWIDTH 7 0
BBX 6 12 1 -2
BITMAP
0C00
0800
0400
EAD0
4440
0800
0C00
0400
EAD0
4440
0C00
0800
ENDCHAR
STARTCHAR bullet
ENCODING 8226
SWIDTH 457 0
DWIDTH 6 0
BBX 4 4 1 2
BITMAP
18
7E
7E
2D
ENDCHAR
STARTCHAR twodotenleader
ENCODING 8229
SWIDTH 500 0
DWIDTH 7 0
BBX 7 2 0 0
BITMAP
2020
7034
ENDCHAR
STARTCHAR ellipsis
ENCODING 8230
SWIDTH 887 0
DWIDTH 12 0
BBX 10 2 1 0
BITMAP
606060
707060
ENDCHAR
STARTCHAR uni202F
ENCODING 8239
SWIDTH 125 0
DWIDTH 2 0
BBX 1 1 0 0
BITMAP
00
ENDCHAR
STARTCHAR perthousand
ENCODING 8240
SWIDTH 1017 0
DWIDTH 14 0
BBX 14 9 0 0
BITMAP
1A960000
30490000
60580000
61300000
14954240
00984910
02249C20
05249850
081A0940
ENDCHAR
STARTCHAR uni2031
ENCODING 8241
SWIDTH 1342 0
DWIDTH 19 0
BBX 18 9 0 0
BITMAP
1A96000000
3049000000
6058000000
6130000000
1495424150
0098491610
02249C2910
0524985920
081A094650
ENDCHAR
STARTCHAR minute
ENCODING 8242
SWIDTH 296 0
DWIDTH 4 0
BBX 2 4 1 6
BITMAP
30
70
90
80
ENDCHAR
STARTCHAR second
ENCODING 8243
SWIDTH 436 0
DWIDTH 6 0
BBX 4 4 1 6
BITMAP
37
76
99
88
ENDCHAR
STARTCHAR uni2034
ENCODING 8244
SWIDTH 576 0
DWIDTH 8 0
BBX 6 4 1 6
BITMAP
3730
7660
9990
8880
ENDCHAR
STARTCHAR uni2035
ENCODING 8245
SWIDTH 296 0
DWIDTH 4 0
BBX 2 4 1 6
BITMAP
C0
90
60
20
ENDCHAR
STARTCHAR uni2036
ENCODING 8246
SWIDTH 436 0
DWIDTH 6 0
BBX 4 4 1 6
BITMAP
CC
99
66
22
ENDCHAR
STARTCHAR uni2037
ENCODING 8247
SWIDTH 576 0
DWIDTH 8 0
BBX 6 4 1 6
BITMAP
CDC0
9990
6660
2220
ENDCHAR
STARTCHAR uni2038
ENCODING 8248
SWIDTH 523 0
DWIDTH 7 0
BBX 6 4 1 -2
BITMAP
0900
2600
5080
4050
ENDCHAR
STARTCHAR guilsinglleft
ENCODING 8249
SWIDTH 307 0
DWIDTH 4 0
BBX 4 6 0 0
BITMAP
05
14
60
24
08
01
ENDCHAR
STARTCHAR guilsinglright
ENCODING 8250
SWIDTH 307 0
DWIDTH 4 0
BBX 3 5 1 1
BITMAP
80
60
28
24
90
ENDCHAR
STARTCHAR uni203B
ENCODING 8251
SWIDTH 701 0
DWIDTH 10 0
BBX 8 8 1 0
BITMAP
9286
2158
1860
5685
A38A
0960
2558
9286
ENDCHAR
STARTCHAR exclamdbl
ENCODING 8252
SWIDTH 565 0
DWIDTH 8 0
BBX 6 9 1 0
BITMAP
A0A0
A0A0
A0A0
A090
5090
5050
0040
5050
A0A0
ENDCHAR
STARTCHAR uni203E
ENCODING 8254
SWIDTH 512 0
DWIDTH 7 0
BBX 7 1 0 11
BITMAP
AAA8
ENDCHAR
STARTCHAR uni2040
ENCODING 8256
SWIDTH 810 0
DWIDTH 11 0
BBX 9 3 1 7
BITMAP
0AF900
640680
400040
ENDCHAR
STARTCHAR uni2043
ENCODING 8259
SWIDTH 352 0
DWIDTH 5 0
BBX 5 3 0 3
BITMAP
1500
7F40
7F40
ENDCHAR
STARTCHAR fraction
ENCODING 8260
SWIDTH 205 0
DWIDTH 3 0
BBX 7 10 -2 0
BITMAP
0014
0020
0050
0080
0200
0600
0800
1400
2000
8000
ENDCHAR
STARTCHAR uni2047
ENCODING 8263
SWIDTH 822 0
DWIDTH 12 0
BBX 11 9 0 0
BITMAP
2A86A4
60D91C
50D51C
01C018
024020
050090
040040
050080
0900D0
ENDCHAR
STARTCHAR uni204B
ENCODING 8267
SWIDTH 605 0
DWIDTH 8 0
BBX 7 12 1 -3
BITMAP
BBA0
3224
3218
3228
3224
3390
3200
3200
3200
3200
3300
6240
ENDCHAR
STARTCHAR uni204C
ENCODING 8268
SWIDTH 479 0
DWIDTH 7 0
BBX 5 4 1 2
BITMAP
2640
B500
B500
2640
ENDCHAR
STARTCHAR uni204D
ENCODING 8269
SWIDTH 479 0
DWIDTH 7 0
BBX 5 4 1 2
BITMAP
6A00
1B40
1B40
6A00
ENDCHAR
STARTCHAR uni204E
ENCODING 8270
SWIDTH 410 0
DWIDTH 6 0
BBX 5 5 0 -2
BITMAP
0900
79C0
1A00
65C0
0900
ENDCHAR
STARTCHAR uni204F
ENCODING 8271
SWIDTH 245 0
DWIDTH 3 0
BBX 3 9 0 -2
BITMAP
34
24
00
00
00
24
74
20
14
ENDCHAR
STARTCHAR uni2050
ENCODING 8272
SWIDTH 809 0
DWIDTH 11 0
BBX 10 10 1 0
BITMAP
0AB900
640640
800090
400000
000000
000000
000000
800090
640280
0AA900
ENDCHAR
STARTCHAR uni2051
ENCODING 8273
SWIDTH 410 0
DWIDTH 6 0
BBX 5 11 0 -1
BITMAP
0900
65C0
1A40
69C0
0900
0000
0900
79C0
1A00
65C0
0900
ENDCHAR
STARTCHAR uni2052
ENCODING 8274
SWIDTH 482 0
DWIDTH 7 0
BBX 5 14 1 -3
BITMAP
0040
D180
4240
0300
0600
0900
0C00
1800
2400
2400
3000
6000
9280
C140
ENDCHAR
STARTCHAR uni2057
ENCODING 8279
SWIDTH 727 0
DWIDTH 10 0
BBX 8 4 1 6
BITMAP
3733
7667
9999
8888
ENDCHAR
STARTCHAR uni205F
ENCODING 8287
SWIDTH 222 0
DWIDTH 3 0
BBX 1 1 0 0
BITMAP
00
ENDCHAR
STARTCHAR uni2061
ENCODING 8289
SWIDTH 0 0
DWIDTH 0 0
BBX 1 1 0 0
BITMAP
00
ENDCHAR
STARTCHAR uni2062
ENCODING 8290
SWIDTH 0 0
DWIDTH 0 0
BBX 1 1 0 0
BITMAP
00
ENDCHAR
STARTCHAR uni2063
ENCODING 8291
SWIDTH 0 0
DWIDTH 0 0
BBX 1 1 0 0
BITMAP
00
ENDCHAR
STARTCHAR uni2064
ENCODING 8292
SWIDTH 0 0
DWIDTH 0 0
BBX 1 1 0 0
BITMAP
00
ENDCHAR
STARTCHAR zerosuperior
ENCODING 8304
SWIDTH 412 0
DWIDTH 6 0
BBX 6 6 0 4
BITMAP
1640
60C0
A090
A090
60C0
2A40
ENDCHAR
STARTCHAR uni2071
ENCODING 8305
SWIDTH 245 0
DWIDTH 3 0
BBX 3 7 0 4
BITMAP
24
10
74
24
24
24
78
ENDCHAR
STARTCHAR foursuperior
ENCODING 8308
SWIDTH 403 0
DWIDTH 6 0
BBX 6 6 0 4
BITMAP
0340
0640
5240
BFD0
0240
0240
ENDCHAR
STARTCHAR fivesuperior
ENCODING 8309
SWIDTH 358 0
DWIDTH 5 0
BBX 5 6 0 4
BITMAP
2F40
3E00
0240
0140
0140
A500
ENDCHAR
STARTCHAR sixsuperior
ENCODING 8310
SWIDTH 390 0
DWIDTH 5 0
BBX 5 6 0 4
BITMAP
0500
2A40
61C0
A0C0
60C0
2640
ENDCHAR
STARTCHAR sevensuperior
ENCODING 8311
SWIDTH 364 0
DWIDTH 5 0
BBX 5 6 0 4
BITMAP
7F80
4140
0200
0600
0800
1800
ENDCHAR
STARTCHAR eightsuperior
ENCODING 8312
SWIDTH 374 0
DWIDTH 5 0
BBX 5 6 0 4
BITMAP
2640
6180
2A00
1240
9180
6640
ENDCHAR
STARTCHAR ninesuperior
ENCODING 8313
SWIDTH 390 0
DWIDTH 5 0
BBX 5 6 0 4
BITMAP
2640
9080
A1C0
2AC0
0240
1900
ENDCHAR
STARTCHAR uni207A
ENCODING 8314
SWIDTH 536 0
DWIDTH 8 0
BBX 7 6 0 4
BITMAP
0200
0200
6BA8
0200
0200
0200
ENDCHAR
STARTCHAR uni207B
ENCODING 8315
SWIDTH 536 0
DWIDTH 8 0
BBX 7 1 0 6
BITMAP
6AA8
ENDCHAR
STARTCHAR uni207C
ENCODING 8316
SWIDTH 534 0
DWIDTH 7 0
BBX 7 3 0 5
BITMAP
6AA8
0000
6AA8
ENDCHAR
STARTCHAR parenleftsuperior
ENCODING 8317
SWIDTH 268 0
DWIDTH 4 0
BBX 4 10 0 2
BITMAP
01
18
20
60
90
90
50
60
24
09
ENDCHAR
STARTCHAR parenrightsuperior
ENCODING 8318
SWIDTH 268 0
DWIDTH 4 0
BBX 4 10 0 2
BITMAP
40
20
08
08
09
09
09
08
14
50
ENDCHAR
STARTCHAR nsuperior
ENCODING 8319
SWIDTH 491 0
DWIDTH 7 0
BBX 7 5 0 4
BITMAP
76D0
2460
2460
2460
78B4
ENDCHAR
STARTCHAR zeroinferior
ENCODING 8320
SWIDTH 412 0
DWIDTH 6 0
BBX 6 6 0 -3
BITMAP
1640
60C0
A090
A090
60C0
2A40
ENDCHAR
STARTCHAR oneinferior
ENCODING 8321
SWIDTH 333 0
DWIDTH 5 0
BBX 3 6 1 -3
BITMAP
B0
30
30
30
30
B4
ENDCHAR
STARTCHAR twoinferior
ENCODING 8322
SWIDTH 373 0
DWIDTH 5 0
BBX 5 6 0 -3
BITMAP
2A00
4280
0240
0500
1440
BF80
ENDCHAR
STARTCHAR threeinferior
ENCODING 8323
SWIDTH 374 0
DWIDTH 5 0
BBX 5 6 0 -3
BITMAP
2A00
0200
1A00
0280
0180
6600
ENDCHAR
STARTCHAR fourinferior
ENCODING 8324
SWIDTH 403 0
DWIDTH 6 0
BBX 6 6 0 -3
BITMAP
0340
0640
5240
BFD0
0240
0240
ENDCHAR
STARTCHAR fiveinferior
ENCODING 8325
SWIDTH 358 0
DWIDTH 5 0
BBX 5 6 0 -3
BITMAP
2F40
3E00
0240
0140
0140
A500
ENDCHAR
STARTCHAR sixinferior
ENCODING 8326
SWIDTH 390 0
DWIDTH 5 0
BBX 5 6 0 -3
BITMAP
0500
2A40
61C0
A0C0
60C0
2640
ENDCHAR
STARTCHAR seveninferior
ENCODING 8327
SWIDTH 364 0
DWIDTH 5 0
BBX 5 6 0 -3
BITMAP
7F80
4140
0200
0600
0800
1800
ENDCHAR
STARTCHAR eightinferior
ENCODING 8328
SWIDTH 374 0
DWIDTH 5 0
BBX 5 6 0 -3
BITMAP
2640
6180
2A00
1240
9180
6640
ENDCHAR
STARTCHAR nineinferior
ENCODING 8329
SWIDTH 390 0
DWIDTH 5 0
BBX 5 6 0 -3
BITMAP
2640
9080
A1C0
2AC0
0240
1900
ENDCHAR
STARTCHAR uni208A
ENCODING 8330
SWIDTH 536 0
DWIDTH 8 0
BBX 7 6 0 -3
BITMAP
0200
0200
6BA8
0200
0200
0200
ENDCHAR
STARTCHAR uni208B
ENCODING 8331
SWIDTH 536 0
DWIDTH 8 0
BBX 7 1 0 -1
BITMAP
6AA8
ENDCHAR
STARTCHAR uni208C
ENCODING 8332
SWIDTH 534 0
DWIDTH 7 0
BBX 7 3 0 -2
BITMAP
6AA8
0000
6AA8
ENDCHAR
STARTCHAR parenleftinferior
ENCODING 8333
SWIDTH 268 0
DWIDTH 4 0
BBX 4 10 0 -5
BITMAP
01
18
20
60
90
90
50
60
24
09
ENDCHAR
STARTCHAR parenrightinferior
ENCODING 8334
SWIDTH 268 0
DWIDTH 4 0
BBX 4 10 0 -5
BITMAP
40
20
08
08
09
09
09
08
14
50
ENDCHAR
STARTCHAR uni20A3
ENCODING 8355
SWIDTH 495 0
DWIDTH 7 0
BBX 7 9 0 0
BITMAP
6AA4
1808
1800
6E90
1800
6E90
1800
1800
6E00
ENDCHAR
STARTCHAR uni20A4
ENCODING 8356
SWIDTH 495 0
DWIDTH 7 0
BBX 7 9 0 0
BITMAP
02A0
0824
0C00
6E80
6E80
0900
0900
6D14
96E0
ENDCHAR
STARTCHAR uni20A7
ENCODING 8359
SWIDTH 1193 0
DWIDTH 17 0
BBX 16 9 1 0
BITMAP
65904000
70718000
7036A1A8
70728308
7A428380
700281F4
7002802D
70028209
B901E398
ENDCHAR
STARTCHAR uni20AB
ENCODING 8363
SWIDTH 495 0
DWIDTH 7 0
BBX 7 9 0 0
BITMAP
0190
06E4
1AE0
30A0
60A0
60A0
74A0
2EA4
2AA0
ENDCHAR
STARTCHAR Euro
ENCODING 8364
SWIDTH 495 0
DWIDTH 7 0
BBX 7 9 0 0
BITMAP
06A8
1818
2404
7A80
BA80
3400
2800
1D14
07E0
ENDCHAR
STARTCHAR uni20B9
ENCODING 8377
SWIDTH 495 0
DWIDTH 7 0
BBX 7 9 0 0
BITMAP
6AA0
01C0
6AE0
01C0
6E00
0700
0280
00D0
0064
ENDCHAR
STARTCHAR uni20BA
ENCODING 8378
SWIDTH 495 0
DWIDTH 7 0
BBX 7 9 0 0
BITMAP
6900
2800
2800
2E40
6940
6D14
2828
2834
7E90
ENDCHAR
STARTCHAR uni20BD
ENCODING 8381
SWIDTH 495 0
DWIDTH 7 0
BBX 7 9 0 0
BITMAP
6A90
1834
1828
1834
6E90
1800
6E80
1800
6D00
ENDCHAR
STARTCHAR uni20D0
ENCODING 8400
SWIDTH 0 0
DWIDTH 0 0
BBX 7 2 -7 9
BITMAP
1400
6AA4
ENDCHAR
STARTCHAR uni20D1
ENCODING 8401
SWIDTH 0 0
DWIDTH 0 0
BBX 6 2 -6 9
BITMAP
0080
AAA0
ENDCHAR
STARTCHAR uni20D2
ENCODING 8402
SWIDTH 0 0
DWIDTH 0 0
BBX 1 12 -4 -2
BITMAP
80
80
80
80
80
80
80
80
80
80
80
80
ENDCHAR
STARTCHAR uni20D3
ENCODING 8403
SWIDTH 0 0
DWIDTH 0 0
BBX 1 10 -4 -2
BITMAP
40
80
80
80
80
80
80
80
80
80
ENDCHAR
STARTCHAR uni20D4
ENCODING 8404
SWIDTH 0 0
DWIDTH 0 0
BBX 8 4 -8 8
BITMAP
01A4
4509
5402
3901
ENDCHAR
STARTCHAR uni20D5
ENCODING 8405
SWIDTH 0 0
DWIDTH 0 0
BBX 8 4 -7 8
BITMAP
0690
2421
2009
501D
ENDCHAR
STARTCHAR uni20D6
ENCODING 8406
SWIDTH 0 0
DWIDTH 0 0
BBX 7 3 -7 8
BITMAP
1400
7AA4
1400
ENDCHAR
STARTCHAR uni20D7
ENCODING 8407
SWIDTH 0 0
DWIDTH 0 0
BBX 6 3 -6 8
BITMAP
0080
AAE0
0080
ENDCHAR
STARTCHAR uni20D8
ENCODING 8408
SWIDTH 0 0
DWIDTH 0 0
BBX 5 5 -6 2
BITMAP
1A00
2180
5080
2180
1A00
ENDCHAR
STARTCHAR uni20D9
ENCODING 8409
SWIDTH 0 0
DWIDTH 0 0
BBX 6 5 -6 2
BITMAP
1A00
22D0
50C0
2180
1A00
ENDCHAR
STARTCHAR uni20DA
ENCODING 8410
SWIDTH 0 0
DWIDTH 0 0
BBX 6 5 -6 2
BITMAP
1A00
2180
50C0
22D0
1A00
ENDCHAR
STARTCHAR uni20DB
ENCODING 8411
SWIDTH 0 0
DWIDTH 0 0
BBX 8 2 -7 7
BITMAP
A34D
0104
ENDCHAR
STARTCHAR uni20DC
ENCODING 8412
SWIDTH 0 0
DWIDTH 0 0
BBX 10 2 -8 7
BITMAP
C718A0
410000
ENDCHAR
STARTCHAR uni20DD
ENCODING 8413
SWIDTH 0 0
DWIDTH 0 0
BBX 14 14 -10 -3
BITMAP
00BF9000
07406800
18000700
30000280
900000C0
C0000090
C0000060
C0000060
80000090
900000C0
30000280
18000700
07406800
00AF9000
ENDCHAR
STARTCHAR uni20DE
ENCODING 8414
SWIDTH 0 0
DWIDTH 0 0
BBX 14 14 -10 -3
BITMAP
FFFFFFE0
C0000060
C0000060
C0000060
C0000060
C0000060
C0000060
C0000060
C0000060
C0000060
C0000060
C0000060
C0000060
FFFFFFE0
ENDCHAR
STARTCHAR uni20DF
ENCODING 8415
SWIDTH 0 0
DWIDTH 0 0
BBX 17 17 -12 -5
BITMAP
0000900000
0002B40000
000A0D0000
0028034000
00A000D000
0280003400
0A00000D00
2800000340
70000001C0
2800000740
0A00001D00
0280007400
00A001D000
0028074000
000A1D0000
0002B40000
0000900000
ENDCHAR
STARTCHAR uni20E1
ENCODING 8417
SWIDTH 0 0
DWIDTH 0 0
BBX 7 3 -7 8
BITMAP
2014
7AAC
2014
ENDCHAR
STARTCHAR uni20E4
ENCODING 8420
SWIDTH 0 0
DWIDTH 0 0
BBX 21 17 -14 -2
BITMAP
000004000000
00001E000000
00002B400000
000072800000
0000D0D00000
000280700000
000700280000
000D000D0000
001800070000
003400028000
00A00000D000
01C000006000
034000003400
0A0000001C00
1C0000000A00
280000000340
7FFFFFFFFFC0
ENDCHAR
STARTCHAR uni20E5
ENCODING 8421
SWIDTH 0 0
DWIDTH 0 0
BBX 6 12 -6 -2
BITMAP
4000
9000
6000
2000
1400
0800
0900
0200
0200
0180
0080
0050
ENDCHAR
STARTCHAR uni20E6
ENCODING 8422
SWIDTH 0 0
DWIDTH 0 0
BBX 4 12 -5 -2
BITMAP
41
85
85
85
85
85
85
85
85
85
85
85
ENDCHAR
STARTCHAR uni20E7
ENCODING 8423
SWIDTH 0 0
DWIDTH 0 0
BBX 12 13 -9 -3
BITMAP
BFFFFF
000003
000003
000003
000003
000003
000003
000003
000003
000003
000003
000003
000003
ENDCHAR
STARTCHAR uni20E8
ENCODING 8424
SWIDTH 0 0
DWIDTH 0 0
BBX 8 2 -7 -4
BITMAP
A34D
0004
ENDCHAR
STARTCHAR uni20E9
ENCODING 8425
SWIDTH 0 0
DWIDTH 0 0
BBX 8 3 -7 7
BITMAP
EAAA
8006
4001
ENDCHAR
STARTCHAR uni20EA
ENCODING 8426
SWIDTH 0 0
DWIDTH 0 0
BBX 11 5 -9 1
BITMAP
040000
240000
BFFFFC
240000
040000
ENDCHAR
STARTCHAR uni20EB
ENCODING 8427
SWIDTH 0 0
DWIDTH 0 0
BBX 10 14 -8 -3
BITMAP
001890
002080
002140
005200
008600
014800
020800
021400
092000
085000
148000
208000
624000
920000
ENDCHAR
STARTCHAR uni20EC
ENCODING 8428
SWIDTH 0 0
DWIDTH 0 0
BBX 6 2 -6 -4
BITMAP
AAA0
0080
ENDCHAR
STARTCHAR uni20ED
ENCODING 8429
SWIDTH 0 0
DWIDTH 0 0
BBX 7 2 -7 -4
BITMAP
6AA4
1400
ENDCHAR
STARTCHAR uni20EE
ENCODING 8430
SWIDTH 0 0
DWIDTH 0 0
BBX 7 3 -7 -4
BITMAP
1400
7AA4
1400
ENDCHAR
STARTCHAR uni20EF
ENCODING 8431
SWIDTH 0 0
DWIDTH 0 0
BBX 6 3 -6 -4
BITMAP
0080
AAE0
0080
ENDCHAR
STARTCHAR uni20F0
ENCODING 8432
SWIDTH 0 0
DWIDTH 0 0
BBX 4 5 -5 7
BITMAP
10
65
69
AA
20
ENDCHAR
STARTCHAR uni2100
ENCODING 8448
SWIDTH 939 0
DWIDTH 13 0
BBX 13 10 0 0
BITMAP
00001400
16002000
21808000
06818000
21821600
62856280
29989140
00209000
00606040
00802E00
ENDCHAR
STARTCHAR uni2101
ENCODING 8449
SWIDTH 936 0
DWIDTH 13 0
BBX 13 10 0 0
BITMAP
16002400
31802000
01808000
26814000
61821640
29996140
00083900
00200740
00505180
00806A00
ENDCHAR
STARTCHAR uni2102
ENCODING 8450
SWIDTH 695 0
DWIDTH 10 0
BBX 9 10 0 0
BITMAP
01A900
0D0280
280040
580000
580000
580000
280000
280040
090180
01A900
ENDCHAR
STARTCHAR uni2103
ENCODING 8451
SWIDTH 1028 0
DWIDTH 14 0
BBX 14 11 0 0
BITMAP
1A000000
20800000
6081ABE0
208740A0
1A0E0020
000D0000
001D0000
001D0000
000E0000
00078050
0001BE40
ENDCHAR
STARTCHAR uni2104
ENCODING 8452
SWIDTH 646 0
DWIDTH 9 0
BBX 9 10 0 0
BITMAP
1A8000
070000
1BA000
772000
A70000
A70000
7B1000
1F8080
070180
1AAA40
ENDCHAR
STARTCHAR uni2105
ENCODING 8453
SWIDTH 953 0
DWIDTH 13 0
BBX 13 11 0 0
BITMAP
00001000
16405000
21808000
60014000
60020000
74486900
1F54C240
00218180
00518180
0080C240
01006900
ENDCHAR
STARTCHAR uni2106
ENCODING 8454
SWIDTH 1072 0
DWIDTH 15 0
BBX 15 10 0 0
BITMAP
06402000
21C05000
60008000
60020000
344574A0
1F482460
00142460
00202460
00802860
01400A64
ENDCHAR
STARTCHAR uni2107
ENCODING 8455
SWIDTH 612 0
DWIDTH 9 0
BBX 8 10 0 0
BITMAP
0AAA
3806
3402
2800
0B90
7800
B000
7002
380A
06A4
ENDCHAR
STARTCHAR uni2108
ENCODING 8456
SWIDTH 669 0
DWIDTH 9 0
BBX 8 10 1 0
BITMAP
0500
E5A0
C02C
440D
050E
07AE
000E
001D
9078
2B90
ENDCHAR
STARTCHAR uni2109
ENCODING 8457
SWIDTH 949 0
DWIDTH 13 0
BBX 13 11 0 0
BITMAP
1A000000
20800000
609BAAC0
20834040
1A034200
00034200
0003AA00
00034100
00034000
00034000
001B9000
ENDCHAR
STARTCHAR uni210A
ENCODING 8458
SWIDTH 657 0
DWIDTH 9 0
BBX 10 10 -1 -3
BITMAP
001A40
005280
018240
034300
0A4790
625B00
02D600
090900
1C1800
0A9000
ENDCHAR
STARTCHAR uni210B
ENCODING 8459
SWIDTH 951 0
DWIDTH 13 0
BBX 14 10 0 0
BITMAP
016901A0
08280810
18241800
14342400
003AB000
00606000
0090A000
0080A000
9140A100
65006800
ENDCHAR
STARTCHAR uni210C
ENCODING 8460
SWIDTH 728 0
DWIDTH 10 0
BBX 9 12 1 -3
BITMAP
024400
0BF000
244000
347800
395E00
1E0740
0B0380
560340
B80700
100900
0BA400
259000
ENDCHAR
STARTCHAR uni210D
ENCODING 8461
SWIDTH 715 0
DWIDTH 10 0
BBX 8 10 1 0
BITMAP
A41A
9416
9416
9416
9416
9AA6
9416
9416
9416
A41A
ENDCHAR
STARTCHAR uni210E
ENCODING 8462
SWIDTH 569 0
DWIDTH 8 0
BBX 8 10 0 0
BITMAP
0A00
0A00
0900
0C78
1D5C
1A18
2C28
3424
3035
6038
ENDCHAR
STARTCHAR uni210F
ENCODING 8463
SWIDTH 569 0
DWIDTH 8 0
BBX 8 10 0 0
BITMAP
0A00
0A50
1E40
1C78
1D5C
1A18
2C28
3424
3035
6038
ENDCHAR
STARTCHAR uni2110
ENCODING 8464
SWIDTH 496 0
DWIDTH 7 0
BBX 7 10 0 0
BITMAP
0168
0824
2434
2430
0060
00A0
0090
00C0
9240
6900
ENDCHAR
STARTCHAR uni2111
ENCODING 8465
SWIDTH 673 0
DWIDTH 9 0
BBX 9 10 0 -1
BITMAP
0BE440
29BF40
300400
200A40
051C00
001D00
2D0B00
5B0740
074700
01A800
ENDCHAR
STARTCHAR uni2112
ENCODING 8466
SWIDTH 699 0
DWIDTH 10 0
BBX 9 10 0 0
BITMAP
001900
008700
028100
034000
070000
060000
080040
240040
AB8240
81BE00
ENDCHAR
STARTCHAR uni2113
ENCODING 8467
SWIDTH 529 0
DWIDTH 7 0
BBX 7 10 0 0
BITMAP
0068
0188
0208
0614
0950
1D00
6400
3450
3040
1900
ENDCHAR
STARTCHAR uni2114
ENCODING 8468
SWIDTH 787 0
DWIDTH 11 0
BBX 11 10 0 0
BITMAP
78B000
6ABA40
287000
2876D0
287474
287034
287024
287034
287060
692940
ENDCHAR
STARTCHAR uni2115
ENCODING 8469
SWIDTH 692 0
DWIDTH 10 0
BBX 8 10 1 0
BITMAP
A001
8802
D502
A242
8882
8522
8256
808A
8022
401A
ENDCHAR
STARTCHAR uni2116
ENCODING 8470
SWIDTH 1070 0
DWIDTH 15 0
BBX 15 10 0 0
BITMAP
1A001A00
07805600
02D08000
02B08150
02348924
021C8918
020A8924
0503C150
9501C000
A40086A4
ENDCHAR
STARTCHAR uni2117
ENCODING 8471
SWIDTH 781 0
DWIDTH 11 0
BBX 10 10 0 0
BITMAP
015500
090180
119810
20C620
50C610
50D410
20C020
119010
090180
015500
ENDCHAR
STARTCHAR uni2118
ENCODING 8472
SWIDTH 846 0
DWIDTH 12 0
BBX 12 11 0 -3
BITMAP
02A000
1D0164
341D0D
70B00D
31C00D
1B4918
0E8C20
1C9540
289000
248000
190000
ENDCHAR
STARTCHAR uni2119
ENCODING 8473
SWIDTH 665 0
DWIDTH 9 0
BBX 8 10 1 0
BITMAP
AAA4
9429
9422
9422
9429
9AA4
9400
9400
9400
A400
ENDCHAR
STARTCHAR uni211A
ENCODING 8474
SWIDTH 751 0
DWIDTH 11 0
BBX 10 11 0 -1
BITMAP
01A900
090280
280190
280160
580160
580160
180160
280190
08A540
01AA00
0001A0
ENDCHAR
STARTCHAR uni211B
ENCODING 8475
SWIDTH 789 0
DWIDTH 11 0
BBX 10 10 0 0
BITMAP
006A40
0634A0
1C3070
1870A0
006180
00AD00
00DA00
008700
920350
640190
ENDCHAR
STARTCHAR uni211C
ENCODING 8476
SWIDTH 778 0
DWIDTH 11 0
BBX 10 10 0 0
BITMAP
164A40
71E6C0
74D1C0
2CE280
0DEB00
18D740
00C380
018380
2E02D0
190180
ENDCHAR
STARTCHAR uni211D
ENCODING 8477
SWIDTH 729 0
DWIDTH 10 0
BBX 9 10 1 0
BITMAP
AAA400
942900
942200
942200
942900
9AB400
959800
945500
942200
A41A40
ENDCHAR
STARTCHAR uni211E
ENCODING 8478
SWIDTH 725 0
DWIDTH 10 0
BBX 10 11 0 -1
BITMAP
6AA400
1C1D00
1C0A00
1C0A00
1C1D00
1EE000
1C7450
1C2E40
1C0F00
6A2690
004000
ENDCHAR
STARTCHAR uni211F
ENCODING 8479
SWIDTH 659 0
DWIDTH 9 0
BBX 9 15 0 -3
BITMAP
00A000
005400
6AA400
1C2D00
0C6E00
0C9A00
0C9C00
0EE000
0E7400
0E2C00
1D0E00
2E4680
040000
098000
064000
ENDCHAR
STARTCHAR uni2120
ENCODING 8480
SWIDTH 937 0
DWIDTH 13 0
BBX 13 6 0 3
BITMAP
2A580640
610E0A00
28071600
0745A200
5144D200
65184640
ENDCHAR
STARTCHAR uni2121
ENCODING 8481
SWIDTH 1200 0
DWIDTH 17 0
BBX 17 6 0 3
BITMAP
6A9A58A000
4916049000
0906609000
0906109000
0906089140
0A0658A600
ENDCHAR
STARTCHAR trademark
ENCODING 8482
SWIDTH 881 0
DWIDTH 12 0
BBX 12 5 0 4
BITMAP
599909
484A19
080A69
0C09D9
191849
ENDCHAR
STARTCHAR uni2123
ENCODING 8483
SWIDTH 680 0
DWIDTH 10 0
BBX 10 15 0 -3
BITMAP
00A000
005400
A91690
382140
1C2200
0D8200
0B8900
074800
039400
06E000
08E000
084000
140000
154000
064000
ENDCHAR
STARTCHAR uni2124
ENCODING 8484
SWIDTH 648 0
DWIDTH 9 0
BBX 9 10 0 0
BITMAP
2AAA80
001540
006200
008800
025400
056000
088000
224000
550000
AAAA40
ENDCHAR
STARTCHAR uni2125
ENCODING 8485
SWIDTH 434 0
DWIDTH 6 0
BBX 6 13 0 -3
BITMAP
6690
4340
0D00
2A90
0340
0A00
1640
00D0
00A0
00A0
00D0
5180
6500
ENDCHAR
STARTCHAR uni2126
ENCODING 8486
SWIDTH 763 0
DWIDTH 11 0
BBX 11 10 0 -1
BITMAP
01A900
1D0280
2800E0
3400A0
3800E0
3800E0
1E0280
414904
BF4BF4
150150
ENDCHAR
STARTCHAR uni2127
ENCODING 8487
SWIDTH 763 0
DWIDTH 11 0
BBX 11 10 0 0
BITMAP
BF4BF4
554954
0A0740
2C01D0
3800E0
7400B0
3400E0
2800D0
0D0280
01A900
ENDCHAR
STARTCHAR uni2128
ENCODING 8488
SWIDTH 641 0
DWIDTH 9 0
BBX 9 13 0 -3
BITMAP
01A400
080D00
100B00
000700
000A00
021D00
01F400
010E00
000740
2D0740
5E0740
070A00
01A400
ENDCHAR
STARTCHAR uni2129
ENCODING 8489
SWIDTH 368 0
DWIDTH 5 0
BBX 4 7 0 0
BITMAP
29
4F
0B
0B
0B
0B
0A
ENDCHAR
STARTCHAR uni212A
ENCODING 8490
SWIDTH 702 0
DWIDTH 10 0
BBX 10 9 0 0
BITMAP
6E4B80
1C0900
0C2000
0D8000
0E8000
0DE000
0C2800
0C0E00
6E4B90
ENDCHAR
STARTCHAR uni212B
ENCODING 8491
SWIDTH 722 0
DWIDTH 10 0
BBX 10 12 0 0
BITMAP
00A000
015400
01A000
00A000
00B000
026800
021C00
050D00
0AAF00
180740
240380
A806A0
ENDCHAR
STARTCHAR uni212C
ENCODING 8492
SWIDTH 754 0
DWIDTH 11 0
BBX 10 10 0 0
BITMAP
017A80
0930A0
287060
246180
00AB40
00D0D0
0080A0
024090
050280
7FF900
ENDCHAR
STARTCHAR uni212D
ENCODING 8493
SWIDTH 639 0
DWIDTH 9 0
BBX 9 11 0 -1
BITMAP
065940
186E00
34C000
74D000
70B400
703800
742800
385100
1E0900
0BF400
004000
ENDCHAR
STARTCHAR estimated
ENCODING 8494
SWIDTH 863 0
DWIDTH 12 0
BBX 12 10 0 -1
BITMAP
015540
090060
280018
78001D
795569
780000
780000
280010
090060
015540
ENDCHAR
STARTCHAR uni212F
ENCODING 8495
SWIDTH 527 0
DWIDTH 7 0
BBX 7 7 0 0
BITMAP
01A0
0624
1C60
2A40
7804
6860
1A80
ENDCHAR
STARTCHAR uni2130
ENCODING 8496
SWIDTH 572 0
DWIDTH 8 0
BBX 8 10 0 0
BITMAP
0198
0A0A
0905
0600
06A0
2800
7000
7004
7424
1A90
ENDCHAR
STARTCHAR uni2131
ENCODING 8497
SWIDTH 713 0
DWIDTH 10 0
BBX 11 10 0 0
BITMAP
016E44
091DA0
1C2800
142400
01BA40
003000
006000
009000
914000
650000
ENDCHAR
STARTCHAR uni2132
ENCODING 8498
SWIDTH 588 0
DWIDTH 8 0
BBX 8 10 0 0
BITMAP
00A9
0034
0034
0034
2034
2AB4
2034
4034
8034
AAA9
ENDCHAR
STARTCHAR uni2133
ENCODING 8499
SWIDTH 1038 0
DWIDTH 15 0
BBX 15 10 0 0
BITMAP
06D000A8
04B40784
00A80A40
009C2340
009C5700
014D8700
010E4A00
020E0A00
850D0A10
A4080640
ENDCHAR
STARTCHAR uni2134
ENCODING 8500
SWIDTH 691 0
DWIDTH 10 0
BBX 11 7 -1 0
BITMAP
001A00
005384
0182E0
078180
1A4240
528600
00A400
ENDCHAR
STARTCHAR uni2135
ENCODING 8501
SWIDTH 698 0
DWIDTH 10 0
BBX 9 10 0 0
BITMAP
100400
740700
2D03C0
0F4280
2AD500
34B800
381E00
2D0780
0A01C0
190040
ENDCHAR
STARTCHAR uni2136
ENCODING 8502
SWIDTH 654 0
DWIDTH 9 0
BBX 7 10 1 -1
BITMAP
9550
BFF4
1428
0018
0018
0014
0014
0024
BFFC
5550
ENDCHAR
STARTCHAR uni2137
ENCODING 8503
SWIDTH 517 0
DWIDTH 7 0
BBX 6 10 1 -1
BITMAP
3900
2F40
0240
0140
0100
0240
0380
09D0
B860
5000
ENDCHAR
STARTCHAR uni2138
ENCODING 8504
SWIDTH 613 0
DWIDTH 9 0
BBX 6 10 1 -1
BITMAP
9590
FFF0
1420
0090
00D0
00D0
00E0
00E0
00D0
0040
ENDCHAR
STARTCHAR uni2139
ENCODING 8505
SWIDTH 361 0
DWIDTH 5 0
BBX 5 10 0 0
BITMAP
2E00
2E00
1900
6E00
2E00
2E00
2E00
2E00
2E00
6A80
ENDCHAR
STARTCHAR uni213A
ENCODING 8506
SWIDTH 907 0
DWIDTH 13 0
BBX 13 10 0 -1
BITMAP
06FE0040
1E56C140
34006740
60002E00
50002800
50002000
20002000
1D45D000
07FF4000
00100000
ENDCHAR
STARTCHAR uni213B
ENCODING 8507
SWIDTH 1216 0
DWIDTH 17 0
BBX 17 6 0 3
BITMAP
6592419240
241280A500
2A44902800
2449A06D00
2414308600
64242A4640
ENDCHAR
STARTCHAR uni213C
ENCODING 8508
SWIDTH 689 0
DWIDTH 10 0
BBX 9 7 0 0
BITMAP
6AAA40
165800
165800
165800
165800
162840
1A1A40
ENDCHAR
STARTCHAR uni213D
ENCODING 8509
SWIDTH 552 0
DWIDTH 8 0
BBX 8 10 0 -3
BITMAP
2405
9908
2624
09A0
0690
0260
02A0
01A0
02A0
0190
ENDCHAR
STARTCHAR uni213E
ENCODING 8510
SWIDTH 550 0
DWIDTH 8 0
BBX 7 10 1 0
BITMAP
AAA4
9400
9400
9400
9400
9400
9400
9400
9400
A400
ENDCHAR
STARTCHAR uni213F
ENCODING 8511
SWIDTH 714 0
DWIDTH 10 0
BBX 8 10 1 0
BITMAP
AAAA
9416
9416
9416
9416
9416
9416
9416
9416
A41A
ENDCHAR
STARTCHAR uni2140
ENCODING 8512
SWIDTH 945 0
DWIDTH 13 0
BBX 12 15 1 -4
BITMAP
EBAAA0
924000
618000
249000
082000
061800
024900
018600
024900
061800
082000
249000
218000
920000
EBAAAA
ENDCHAR
STARTCHAR uni2141
ENCODING 8513
SWIDTH 711 0
DWIDTH 10 0
BBX 9 10 1 0
BITMAP
6FA000
E46D00
D00B00
D00340
F80280
000280
000340
800700
A01D00
2FE400
ENDCHAR
STARTCHAR uni2142
ENCODING 8514
SWIDTH 572 0
DWIDTH 8 0
BBX 7 10 0 0
BITMAP
BFFC
001C
001C
001C
001C
001C
001C
001C
001C
0018
ENDCHAR
STARTCHAR uni2143
ENCODING 8515
SWIDTH 572 0
DWIDTH 8 0
BBX 7 10 0 0
BITMAP
0004
001C
001C
001C
001C
001C
001C
001C
001C
BFFC
ENDCHAR
STARTCHAR uni2144
ENCODING 8516
SWIDTH 645 0
DWIDTH 9 0
BBX 9 10 0 0
BITMAP
008000
00C000
00C000
00C000
01D000
02E000
073400
0D1C00
280A00
700340
ENDCHAR
STARTCHAR uni2145
ENCODING 8517
SWIDTH 717 0
DWIDTH 10 0
BBX 10 10 0 0
BITMAP
0AA900
094180
160190
220250
220260
250250
280580
580680
880A00
AAA400
ENDCHAR
STARTCHAR uni2146
ENCODING 8518
SWIDTH 607 0
DWIDTH 9 0
BBX 9 10 0 0
BITMAP
000680
000880
000940
0A9A00
292600
582200
882200
882500
649800
1A6800
ENDCHAR
STARTCHAR uni2147
ENCODING 8519
SWIDTH 520 0
DWIDTH 7 0
BBX 7 7 0 0
BITMAP
0690
2864
5858
8AA4
9400
7420
1A80
ENDCHAR
STARTCHAR uni2148
ENCODING 8520
SWIDTH 285 0
DWIDTH 4 0
BBX 4 10 0 0
BITMAP
0A
1A
00
29
25
25
58
58
88
A4
ENDCHAR
STARTCHAR uni2149
ENCODING 8521
SWIDTH 284 0
DWIDTH 4 0
BBX 6 13 -2 -3
BITMAP
00A0
01A0
0000
0290
0250
0280
0580
0580
0880
0940
0A00
1A00
A400
ENDCHAR
STARTCHAR uni214A
ENCODING 8522
SWIDTH 680 0
DWIDTH 10 0
BBX 9 10 0 0
BITMAP
024000
024000
7FFD00
624240
624180
124240
02FE00
024000
024000
02FF00
ENDCHAR
STARTCHAR uni214B
ENCODING 8523
SWIDTH 736 0
DWIDTH 10 0
BBX 10 10 0 0
BITMAP
2E1B90
42D0B0
01A070
0234A0
091D40
2A1A00
005700
008300
008300
001500
ENDCHAR
STARTCHAR uni214C
ENCODING 8524
SWIDTH 794 0
DWIDTH 11 0
BBX 11 10 0 0
BITMAP
290A90
432074
47A038
172534
2321F0
2F26D0
0BA950
032010
032000
019000
ENDCHAR
STARTCHAR uni214D
ENCODING 8525
SWIDTH 1010 0
DWIDTH 14 0
BBX 14 10 0 0
BITMAP
02000800
0B001400
0A802000
15C05000
25A08990
60620800
00050A40
000801D0
00141460
00201980
ENDCHAR
STARTCHAR uni214E
ENCODING 8526
SWIDTH 473 0
DWIDTH 7 0
BBX 6 8 0 0
BITMAP
0040
00D0
00D0
00D0
2FD0
00D0
00D0
7FD0
ENDCHAR
STARTCHAR uni214F
ENCODING 8527
SWIDTH 1161 0
DWIDTH 16 0
BBX 16 6 0 0
BITMAP
0782D2D0
0D99A670
08582520
08855220
068392A0
BEFEBFBF
ENDCHAR
STARTCHAR onethird
ENCODING 8531
SWIDTH 899 0
DWIDTH 13 0
BBX 11 10 1 0
BITMAP
000200
A00500
600800
601400
6021A4
A48014
0140A4
02001C
05000C
0803A4
ENDCHAR
STARTCHAR twothirds
ENCODING 8532
SWIDTH 948 0
DWIDTH 13 0
BBX 13 10 0 0
BITMAP
00002000
2B408000
02818000
02020000
14452A00
7F880240
00241A00
00600280
00800180
01407600
ENDCHAR
STARTCHAR uni2155
ENCODING 8533
SWIDTH 867 0
DWIDTH 12 0
BBX 11 10 1 0
BITMAP
000200
A00500
600800
601400
6022F4
A48200
0143E0
020028
050014
0807A0
ENDCHAR
STARTCHAR uni2156
ENCODING 8534
SWIDTH 916 0
DWIDTH 13 0
BBX 13 10 0 0
BITMAP
00002000
2B408000
02818000
02020000
04453F00
7F881000
00247D00
00600240
00800200
0140A500
ENDCHAR
STARTCHAR uni2157
ENCODING 8535
SWIDTH 896 0
DWIDTH 13 0
BBX 12 10 0 0
BITMAP
000050
2A0080
020240
1A4600
02887E
651440
0020B9
009007
008002
0200E5
ENDCHAR
STARTCHAR uni2158
ENCODING 8536
SWIDTH 929 0
DWIDTH 13 0
BBX 13 10 0 0
BITMAP
00002000
03405000
0A408000
22420000
6BC52F40
02481000
01143E00
00200240
00800140
01406500
ENDCHAR
STARTCHAR uni2159
ENCODING 8537
SWIDTH 871 0
DWIDTH 12 0
BBX 12 10 0 0
BITMAP
000080
680140
180200
180500
180814
1C2090
1551A8
008246
014246
020099
ENDCHAR
STARTCHAR uni215A
ENCODING 8538
SWIDTH 871 0
DWIDTH 12 0
BBX 12 10 0 0
BITMAP
000080
3F0140
3E0200
024504
014864
5221C0
6452A8
008246
014146
020099
ENDCHAR
STARTCHAR oneeighth
ENCODING 8539
SWIDTH 887 0
DWIDTH 12 0
BBX 11 10 1 0
BITMAP
000200
A00500
600800
601550
602618
648354
0141E0
020378
05060C
080254
ENDCHAR
STARTCHAR threeeighths
ENCODING 8540
SWIDTH 911 0
DWIDTH 13 0
BBX 13 10 0 0
BITMAP
00005000
2A008000
02024000
1A465500
0288C200
6514A600
00203D00
0090AB00
0080C240
02005600
ENDCHAR
STARTCHAR fiveeighths
ENCODING 8541
SWIDTH 891 0
DWIDTH 12 0
BBX 12 10 0 0
BITMAP
000080
3F0140
3E0200
024554
424882
6920D5
005078
0080DE
014183
020095
ENDCHAR
STARTCHAR seveneighths
ENCODING 8542
SWIDTH 847 0
DWIDTH 12 0
BBX 12 10 0 0
BITMAP
000140
7F4200
420800
051954
082308
245248
0080F0
02026C
060209
080258
ENDCHAR
STARTCHAR uni2190
ENCODING 8592
SWIDTH 948 0
DWIDTH 13 0
BBX 12 5 1 1
BITMAP
050000
180000
BFFFFD
180000
050000
ENDCHAR
STARTCHAR uni2191
ENCODING 8593
SWIDTH 523 0
DWIDTH 7 0
BBX 6 12 1 -2
BITMAP
0400
0D00
2E40
8850
0800
0800
0800
0800
0800
0800
0800
0800
ENDCHAR
STARTCHAR uni2192
ENCODING 8594
SWIDTH 948 0
DWIDTH 13 0
BBX 11 5 1 1
BITMAP
000080
000060
FFFFFC
000060
000080
ENDCHAR
STARTCHAR uni2193
ENCODING 8595
SWIDTH 523 0
DWIDTH 7 0
BBX 6 12 1 -2
BITMAP
0400
0800
0800
0800
0800
0800
0800
0800
4850
6E40
1E00
0800
ENDCHAR
STARTCHAR uni2194
ENCODING 8596
SWIDTH 948 0
DWIDTH 13 0
BBX 13 5 0 1
BITMAP
02001400
08000900
7FFFFF40
08000900
02001400
ENDCHAR
STARTCHAR uni2195
ENCODING 8597
SWIDTH 523 0
DWIDTH 7 0
BBX 6 14 1 -3
BITMAP
0400
0D00
2E40
4850
0800
0800
0800
0800
0800
0800
4850
6E40
1E00
0800
ENDCHAR
STARTCHAR uni2196
ENCODING 8598
SWIDTH 948 0
DWIDTH 13 0
BBX 11 12 1 -3
BITMAP
B94000
B40000
890000
434000
00D000
003400
001D00
000740
0001C0
000070
00001C
000004
ENDCHAR
STARTCHAR uni2197
ENCODING 8599
SWIDTH 948 0
DWIDTH 13 0
BBX 11 12 1 -3
BITMAP
0001BC
00007C
0001D8
000344
000D00
003400
009000
024000
0A0000
280000
A00000
400000
ENDCHAR
STARTCHAR uni2198
ENCODING 8600
SWIDTH 948 0
DWIDTH 13 0
BBX 11 12 1 -2
BITMAP
400000
A00000
280000
0A0000
024000
009000
002400
000D00
000344
0001C8
000078
0001BC
ENDCHAR
STARTCHAR uni2199
ENCODING 8601
SWIDTH 948 0
DWIDTH 13 0
BBX 11 12 1 -2
BITMAP
000004
000018
000070
0001C0
000700
000D00
003400
009000
424000
890000
B40000
B94000
ENDCHAR
STARTCHAR uni219A
ENCODING 8602
SWIDTH 948 0
DWIDTH 13 0
BBX 12 7 1 0
BITMAP
010040
080140
240200
BFFFFD
240800
082400
001000
ENDCHAR
STARTCHAR uni219B
ENCODING 8603
SWIDTH 948 0
DWIDTH 13 0
BBX 11 7 1 0
BITMAP
001000
002080
009020
FFFFFC
020020
060080
040000
ENDCHAR
STARTCHAR uni219C
ENCODING 8604
SWIDTH 948 0
DWIDTH 13 0
BBX 11 4 1 2
BITMAP
B94000
7907E4
26F918
100000
ENDCHAR
STARTCHAR uni219D
ENCODING 8605
SWIDTH 948 0
DWIDTH 13 0
BBX 11 4 1 2
BITMAP
0001BC
6F90B8
906F94
000014
ENDCHAR
STARTCHAR uni219E
ENCODING 8606
SWIDTH 948 0
DWIDTH 13 0
BBX 12 5 1 1
BITMAP
051400
149000
BFFFFD
189000
051400
ENDCHAR
STARTCHAR uni219F
ENCODING 8607
SWIDTH 523 0
DWIDTH 7 0
BBX 6 12 1 -2
BITMAP
0400
0D00
2E40
4850
1E00
2E40
4850
0800
0800
0800
0800
0800
ENDCHAR
STARTCHAR uni21A0
ENCODING 8608
SWIDTH 948 0
DWIDTH 13 0
BBX 11 5 1 1
BITMAP
002080
001860
FFFFFC
001860
002080
ENDCHAR
STARTCHAR uni21A1
ENCODING 8609
SWIDTH 523 0
DWIDTH 7 0
BBX 6 12 1 -2
BITMAP
0400
0800
0800
0800
0800
4850
2E40
1E00
4850
6E40
1E00
0800
ENDCHAR
STARTCHAR uni21A2
ENCODING 8610
SWIDTH 948 0
DWIDTH 13 0
BBX 11 5 1 1
BITMAP
050008
140020
BFFFE0
180020
050008
ENDCHAR
STARTCHAR uni21A3
ENCODING 8611
SWIDTH 948 0
DWIDTH 13 0
BBX 11 5 1 1
BITMAP
400080
240060
1FFFFC
240060
400080
ENDCHAR
STARTCHAR uni21A4
ENCODING 8612
SWIDTH 948 0
DWIDTH 13 0
BBX 12 7 1 0
BITMAP
010004
090005
240005
BFFFFD
240005
050005
010004
ENDCHAR
STARTCHAR uni21A5
ENCODING 8613
SWIDTH 523 0
DWIDTH 7 0
BBX 6 12 1 -2
BITMAP
0400
0D00
2E40
4850
0800
0800
0800
0800
0800
0800
0800
AE90
ENDCHAR
STARTCHAR uni21A6
ENCODING 8614
SWIDTH 948 0
DWIDTH 13 0
BBX 11 7 1 0
BITMAP
400000
800080
800060
FFFFFC
800060
800080
400000
ENDCHAR
STARTCHAR uni21A7
ENCODING 8615
SWIDTH 523 0
DWIDTH 7 0
BBX 6 12 1 -2
BITMAP
AE90
0800
0800
0800
0800
0800
0800
0800
4850
6E40
1E00
0400
ENDCHAR
STARTCHAR uni21A8
ENCODING 8616
SWIDTH 523 0
DWIDTH 7 0
BBX 6 12 1 -2
BITMAP
0400
0D00
2E40
4850
0800
0800
0800
4800
5D80
1E00
0800
AA90
ENDCHAR
STARTCHAR uni21A9
ENCODING 8617
SWIDTH 948 0
DWIDTH 13 0
BBX 12 7 1 1
BITMAP
0001F4
01000C
050009
24001C
BFFFE4
140000
050000
ENDCHAR
STARTCHAR uni21AA
ENCODING 8618
SWIDTH 948 0
DWIDTH 13 0
BBX 11 7 1 1
BITMAP
2E0000
900000
C00080
900060
2FFFFC
000060
000080
ENDCHAR
STARTCHAR uni21AB
ENCODING 8619
SWIDTH 948 0
DWIDTH 13 0
BBX 12 8 1 0
BITMAP
0001F4
01070C
050609
24061C
BFFFE4
180600
050600
000600
ENDCHAR
STARTCHAR uni21AC
ENCODING 8620
SWIDTH 948 0
DWIDTH 13 0
BBX 11 8 1 0
BITMAP
2E0000
924000
C18080
918060
2FFFFC
018060
018040
018000
ENDCHAR
STARTCHAR uni21AD
ENCODING 8621
SWIDTH 1229 0
DWIDTH 17 0
BBX 16 6 1 1
BITMAP
04000040
24074060
FF0882FD
30985934
08702850
05000040
ENDCHAR
STARTCHAR uni21AE
ENCODING 8622
SWIDTH 948 0
DWIDTH 13 0
BBX 13 7 0 0
BITMAP
00011000
02021400
18050900
7FFFFF40
08080900
02241400
00101000
ENDCHAR
STARTCHAR uni21AF
ENCODING 8623
SWIDTH 523 0
DWIDTH 7 0
BBX 6 12 1 -2
BITMAP
0090
0280
0700
1D00
3400
BFC0
0240
4600
4C00
A400
B900
9000
ENDCHAR
STARTCHAR uni21B0
ENCODING 8624
SWIDTH 474 0
DWIDTH 7 0
BBX 6 12 0 -3
BITMAP
0200
1800
7FF0
1830
0230
0030
0030
0030
0030
0030
0030
0010
ENDCHAR
STARTCHAR uni21B1
ENCODING 8625
SWIDTH 474 0
DWIDTH 7 0
BBX 6 12 0 -3
BITMAP
0500
0180
7FF0
6180
6500
6000
6000
6000
6000
6000
6000
5000
ENDCHAR
STARTCHAR uni21B2
ENCODING 8626
SWIDTH 474 0
DWIDTH 7 0
BBX 6 12 0 -2
BITMAP
0020
0030
0030
0030
0030
0030
0030
0230
1830
7FF0
1800
0200
ENDCHAR
STARTCHAR uni21B3
ENCODING 8627
SWIDTH 474 0
DWIDTH 7 0
BBX 6 12 0 -2
BITMAP
5000
6000
6000
6000
6000
6000
6000
6500
6180
7FF0
0180
0500
ENDCHAR
STARTCHAR uni21B4
ENCODING 8628
SWIDTH 948 0
DWIDTH 13 0
BBX 11 12 1 -2
BITMAP
FFFFC0
0000C0
0000C0
0000C0
0000C0
0000C0
0000C0
0000C0
0008C8
0002E0
0001C0
000040
ENDCHAR
STARTCHAR uni21B5
ENCODING 8629
SWIDTH 948 0
DWIDTH 13 0
BBX 12 12 1 -2
BITMAP
000004
000009
000009
000009
000009
000009
000009
050009
140009
BFFFFD
140000
050000
ENDCHAR
STARTCHAR uni21B6
ENCODING 8630
SWIDTH 948 0
DWIDTH 13 0
BBX 12 8 1 0
BITMAP
006F80
029074
0A001C
0C0009
994005
3E0000
1C0000
040000
ENDCHAR
STARTCHAR uni21B7
ENCODING 8631
SWIDTH 948 0
DWIDTH 13 0
BBX 13 7 0 1
BITMAP
02FE0000
0E02C000
24006000
60002400
50016540
00007D00
00002800
ENDCHAR
STARTCHAR uni21B8
ENCODING 8632
SWIDTH 948 0
DWIDTH 13 0
BBX 12 13 1 -2
BITMAP
FFFFFD
400000
F90000
B40000
8D0000
434000
00D000
003400
000D00
000340
0000D0
000034
00000C
ENDCHAR
STARTCHAR uni21B9
ENCODING 8633
SWIDTH 948 0
DWIDTH 13 0
BBX 12 10 1 -1
BITMAP
410000
890000
BFFFFD
8C0000
820000
400145
000095
FFFFF9
000095
000105
ENDCHAR
STARTCHAR uni21BA
ENCODING 8634
SWIDTH 997 0
DWIDTH 14 0
BBX 12 12 1 -2
BITMAP
000004
004690
0743D0
180164
34005C
600048
600009
600009
30000C
180024
0A41A0
01BE40
ENDCHAR
STARTCHAR uni21BB
ENCODING 8635
SWIDTH 997 0
DWIDTH 14 0
BBX 12 12 1 -2
BITMAP
100000
069100
07C1D0
194034
320018
610008
600009
600009
30000C
180024
0A41E0
01BE40
ENDCHAR
STARTCHAR uni21BC
ENCODING 8636
SWIDTH 978 0
DWIDTH 14 0
BBX 12 4 1 3
BITMAP
010000
050000
280000
BFFFFF
ENDCHAR
STARTCHAR uni21BD
ENCODING 8637
SWIDTH 978 0
DWIDTH 14 0
BBX 12 4 1 0
BITMAP
BFFFFF
180000
050000
010000
ENDCHAR
STARTCHAR uni21BE
ENCODING 8638
SWIDTH 523 0
DWIDTH 7 0
BBX 3 12 3 -2
BITMAP
40
90
A4
84
80
80
80
80
80
80
80
80
ENDCHAR
STARTCHAR uni21BF
ENCODING 8639
SWIDTH 523 0
DWIDTH 7 0
BBX 3 12 1 -2
BITMAP
04
0C
2C
48
08
08
08
08
08
08
08
08
ENDCHAR
STARTCHAR uni21C0
ENCODING 8640
SWIDTH 978 0
DWIDTH 14 0
BBX 13 4 0 3
BITMAP
00004000
00002400
00000D00
7FFFFF40
ENDCHAR
STARTCHAR uni21C1
ENCODING 8641
SWIDTH 978 0
DWIDTH 14 0
BBX 13 4 0 0
BITMAP
7FFFFF40
00000D00
00002400
00005000
ENDCHAR
STARTCHAR uni21C2
ENCODING 8642
SWIDTH 523 0
DWIDTH 7 0
BBX 3 12 3 -2
BITMAP
40
80
80
80
80
80
80
80
80
98
A0
80
ENDCHAR
STARTCHAR uni21C3
ENCODING 8643
SWIDTH 523 0
DWIDTH 7 0
BBX 3 12 1 -2
BITMAP
04
08
08
08
08
08
08
08
08
5C
1C
08
ENDCHAR
STARTCHAR uni21C4
ENCODING 8644
SWIDTH 948 0
DWIDTH 13 0
BBX 11 10 1 -1
BITMAP
000040
000060
BFFFFC
000060
000080
050000
280000
BFFFFC
180000
050000
ENDCHAR
STARTCHAR uni21C5
ENCODING 8645
SWIDTH 791 0
DWIDTH 11 0
BBX 11 12 0 -2
BITMAP
010100
070240
1B8240
561240
060240
060240
060240
060240
061254
060BA0
060380
060100
ENDCHAR
STARTCHAR uni21C6
ENCODING 8646
SWIDTH 948 0
DWIDTH 13 0
BBX 11 10 1 -1
BITMAP
050000
180000
BFFFFC
280000
050000
000080
000060
BFFFFC
000060
000040
ENDCHAR
STARTCHAR uni21C7
ENCODING 8647
SWIDTH 948 0
DWIDTH 13 0
BBX 12 10 1 -1
BITMAP
050000
180000
BFFFFD
280000
050000
050000
280000
BFFFFD
180000
050000
ENDCHAR
STARTCHAR uni21C8
ENCODING 8648
SWIDTH 791 0
DWIDTH 11 0
BBX 10 12 1 -2
BITMAP
040400
1C0E00
6E2E40
588950
180900
180900
180900
180900
180900
180900
180900
180900
ENDCHAR
STARTCHAR uni21C9
ENCODING 8649
SWIDTH 948 0
DWIDTH 13 0
BBX 11 10 1 -1
BITMAP
000040
000060
FFFFFC
000060
000080
000080
000060
FFFFFC
000060
000040
ENDCHAR
STARTCHAR uni21CA
ENCODING 8650
SWIDTH 791 0
DWIDTH 11 0
BBX 10 12 1 -2
BITMAP
040400
180900
180900
180900
180900
180900
180900
180900
584950
6E2E80
2D0E00
080900
ENDCHAR
STARTCHAR uni21CB
ENCODING 8651
SWIDTH 948 0
DWIDTH 13 0
BBX 12 8 1 0
BITMAP
050000
180000
7FFFFD
000000
000000
FFFFF8
000050
000140
ENDCHAR
STARTCHAR uni21CC
ENCODING 8652
SWIDTH 948 0
DWIDTH 13 0
BBX 12 8 1 0
BITMAP
000140
000050
FFFFF8
000000
000000
7FFFFD
180000
050000
ENDCHAR
STARTCHAR uni21CD
ENCODING 8653
SWIDTH 948 0
DWIDTH 13 0
BBX 12 9 1 -1
BITMAP
004018
024020
1FFFFD
A00080
A00180
1FFFFD
070200
008500
000400
ENDCHAR
STARTCHAR uni21CE
ENCODING 8654
SWIDTH 948 0
DWIDTH 13 0
BBX 13 8 0 0
BITMAP
00414000
01456000
0BFFF800
74080240
74080340
0BFFFD00
02483000
00948000
ENDCHAR
STARTCHAR uni21CF
ENCODING 8655
SWIDTH 948 0
DWIDTH 13 0
BBX 11 9 1 -1
BITMAP
008800
014240
FFFFD0
050028
080028
FFFFE0
200240
200900
500400
ENDCHAR
STARTCHAR uni21D0
ENCODING 8656
SWIDTH 887 0
DWIDTH 12 0
BBX 12 8 1 0
BITMAP
008000
020000
1FFFFD
A00000
A00000
1FFFFD
020000
008000
ENDCHAR
STARTCHAR uni21D1
ENCODING 8657
SWIDTH 720 0
DWIDTH 10 0
BBX 8 12 1 -2
BITMAP
0040
02C0
0960
1C34
6C39
4C31
0C30
0C30
0C30
0C30
0C30
0C30
ENDCHAR
STARTCHAR uni21D2
ENCODING 8658
SWIDTH 887 0
DWIDTH 12 0
BBX 11 8 0 0
BITMAP
000500
000240
FFFFE0
000018
000018
FFFFE0
000240
000500
ENDCHAR
STARTCHAR uni21D3
ENCODING 8659
SWIDTH 720 0
DWIDTH 10 0
BBX 8 12 1 -2
BITMAP
0410
0C30
0C30
0C30
0C30
0C30
0C30
9C32
2C38
0C30
0790
0140
ENDCHAR
STARTCHAR uni21D4
ENCODING 8660
SWIDTH 948 0
DWIDTH 13 0
BBX 13 8 0 0
BITMAP
00404000
02403000
0BFFFD00
74000340
74000340
0BFFFD00
02402000
00404000
ENDCHAR
STARTCHAR uni21D5
ENCODING 8661
SWIDTH 720 0
DWIDTH 10 0
BBX 8 14 1 -3
BITMAP
0040
02C0
0960
1C34
6C39
4C31
0C30
0C30
4C30
9C36
2C38
0C30
07D0
0140
ENDCHAR
STARTCHAR uni21D6
ENCODING 8662
SWIDTH 948 0
DWIDTH 13 0
BBX 12 12 1 -2
BITMAP
500000
EB9400
828000
909000
B42800
890A00
824280
0090A0
002428
000909
000280
000090
ENDCHAR
STARTCHAR uni21D7
ENCODING 8663
SWIDTH 948 0
DWIDTH 13 0
BBX 12 12 1 -2
BITMAP
000005
001BED
000749
001D1C
00747C
01D1D8
074748
1D1D00
747400
81D000
074000
0D0000
ENDCHAR
STARTCHAR uni21D8
ENCODING 8664
SWIDTH 948 0
DWIDTH 13 0
BBX 12 12 1 -3
BITMAP
0D0000
074000
D1D000
747400
1D1D00
074748
01D1E8
00743C
001D0C
000749
002BED
000015
ENDCHAR
STARTCHAR uni21D9
ENCODING 8665
SWIDTH 948 0
DWIDTH 13 0
BBX 12 12 1 -3
BITMAP
000090
000340
000D09
003424
01D090
874240
9D0900
B42400
909000
828000
EFA400
500000
ENDCHAR
STARTCHAR uni21DA
ENCODING 8666
SWIDTH 872 0
DWIDTH 12 0
BBX 12 11 1 -2
BITMAP
004000
014000
07FFFD
180000
600000
FFFFFD
600000
180000
07FFFD
014000
004000
ENDCHAR
STARTCHAR uni21DB
ENCODING 8667
SWIDTH 872 0
DWIDTH 12 0
BBX 12 11 0 -2
BITMAP
000400
000100
FFFF40
000050
000024
FFFFFD
000024
000050
FFFF40
000100
000400
ENDCHAR
STARTCHAR uni21DC
ENCODING 8668
SWIDTH 948 0
DWIDTH 13 0
BBX 12 5 1 1
BITMAP
050400
240D00
BFA67D
24A1D0
050040
ENDCHAR
STARTCHAR uni21DD
ENCODING 8669
SWIDTH 948 0
DWIDTH 13 0
BBX 11 5 1 1
BITMAP
004080
01D020
F777FC
0D1C20
040480
ENDCHAR
STARTCHAR uni21DE
ENCODING 8670
SWIDTH 523 0
DWIDTH 7 0
BBX 6 13 1 -3
BITMAP
0400
0D00
2F40
9C80
0800
0800
AE90
0800
AE90
0800
0800
0800
0400
ENDCHAR
STARTCHAR uni21DF
ENCODING 8671
SWIDTH 523 0
DWIDTH 7 0
BBX 6 12 1 -3
BITMAP
0800
0800
0800
AE90
0800
AE90
0800
0800
4850
2E40
1E00
0400
ENDCHAR
STARTCHAR uni21E0
ENCODING 8672
SWIDTH 948 0
DWIDTH 13 0
BBX 12 5 1 1
BITMAP
050000
240000
BF7ACD
240000
050000
ENDCHAR
STARTCHAR uni21E1
ENCODING 8673
SWIDTH 523 0
DWIDTH 7 0
BBX 6 12 1 -2
BITMAP
0400
0D00
2E40
4850
0400
0400
0800
0000
0800
0400
0400
0800
ENDCHAR
STARTCHAR uni21E2
ENCODING 8674
SWIDTH 948 0
DWIDTH 13 0
BBX 11 5 1 1
BITMAP
000080
000020
DA77FC
000020
000080
ENDCHAR
STARTCHAR uni21E3
ENCODING 8675
SWIDTH 523 0
DWIDTH 7 0
BBX 5 12 1 -2
BITMAP
0400
0800
0000
0800
0400
0400
0800
0000
4800
5D80
1E00
0800
ENDCHAR
STARTCHAR uni21E4
ENCODING 8676
SWIDTH 948 0
DWIDTH 13 0
BBX 12 7 1 0
BITMAP
400000
820000
880000
BFFFFD
880000
820000
400000
ENDCHAR
STARTCHAR uni21E5
ENCODING 8677
SWIDTH 948 0
DWIDTH 13 0
BBX 12 7 1 0
BITMAP
000101
000145
000095
FFFFF9
000095
000145
000101
ENDCHAR
STARTCHAR uni21E6
ENCODING 8678
SWIDTH 948 0
DWIDTH 13 0
BBX 12 8 1 0
BITMAP
009000
029000
186AA9
A00005
A00005
186AA9
029000
009000
ENDCHAR
STARTCHAR uni21E7
ENCODING 8679
SWIDTH 720 0
DWIDTH 10 0
BBX 8 12 1 -2
BITMAP
0140
0290
0820
2418
6009
A82A
0820
0820
0820
0820
0820
0AA0
ENDCHAR
STARTCHAR uni21E8
ENCODING 8680
SWIDTH 948 0
DWIDTH 13 0
BBX 11 8 1 0
BITMAP
000C00
000A40
AAA890
800028
800028
AAA890
000A40
000C00
ENDCHAR
STARTCHAR uni21E9
ENCODING 8681
SWIDTH 720 0
DWIDTH 10 0
BBX 8 12 1 -2
BITMAP
0AA0
0820
0820
0820
0820
0820
A82B
6009
2418
0820
0290
0140
ENDCHAR
STARTCHAR uni21EA
ENCODING 8682
SWIDTH 720 0
DWIDTH 10 0
BBX 8 13 1 -3
BITMAP
0040
02C0
0960
1414
6009
A82B
0820
0820
0820
0AA0
0AA0
0820
0AA0
ENDCHAR
STARTCHAR uni21F4
ENCODING 8692
SWIDTH 948 0
DWIDTH 13 0
BBX 11 5 1 1
BITMAP
01A080
061860
FFFFFC
061860
01A080
ENDCHAR
STARTCHAR uni21F5
ENCODING 8693
SWIDTH 791 0
DWIDTH 11 0
BBX 11 12 0 -2
BITMAP
010100
060280
060B90
061254
060240
060240
060240
060240
561240
2B8240
0B4240
020240
ENDCHAR
STARTCHAR uni21F6
ENCODING 8694
SWIDTH 948 0
DWIDTH 13 0
BBX 12 14 1 -3
BITMAP
000080
000060
FFFFFD
000034
000080
000080
000024
FFFFFC
000060
000080
000060
FFFFFC
000060
000080
ENDCHAR
STARTCHAR uni21F7
ENCODING 8695
SWIDTH 948 0
DWIDTH 13 0
BBX 12 7 1 0
BITMAP
010400
080800
240800
BFFFFD
240800
080800
000400
ENDCHAR
STARTCHAR uni21F8
ENCODING 8696
SWIDTH 948 0
DWIDTH 13 0
BBX 12 7 0 0
BITMAP
001000
002020
002008
7FFFFF
002008
002020
001000
ENDCHAR
STARTCHAR uni21F9
ENCODING 8697
SWIDTH 948 0
DWIDTH 13 0
BBX 12 7 1 0
BITMAP
001040
082090
242024
FFFFFD
242024
082080
001000
ENDCHAR
STARTCHAR uni21FA
ENCODING 8698
SWIDTH 948 0
DWIDTH 13 0
BBX 12 7 1 0
BITMAP
011500
081640
241640
BFFFFD
241640
081640
001100
ENDCHAR
STARTCHAR uni21FB
ENCODING 8699
SWIDTH 948 0
DWIDTH 13 0
BBX 11 7 1 0
BITMAP
011000
022080
022020
FFFFFC
022020
022080
011000
ENDCHAR
STARTCHAR uni21FC
ENCODING 8700
SWIDTH 948 0
DWIDTH 13 0
BBX 13 7 0 0
BITMAP
00111000
02221400
18220900
7FFFFF40
08220900
02221400
00111000
ENDCHAR
STARTCHAR uni21FD
ENCODING 8701
SWIDTH 948 0
DWIDTH 13 0
BBX 12 5 1 1
BITMAP
060000
2A0000
A3FFFD
1A0000
060000
ENDCHAR
STARTCHAR uni21FE
ENCODING 8702
SWIDTH 948 0
DWIDTH 13 0
BBX 11 5 1 1
BITMAP
000180
0001A0
FFFF5C
0001A0
000180
ENDCHAR
STARTCHAR uni21FF
ENCODING 8703
SWIDTH 948 0
DWIDTH 13 0
BBX 13 5 0 1
BITMAP
02002400
1A002900
72FFF280
1A002900
02002400
ENDCHAR
STARTCHAR uni2200
ENCODING 8704
SWIDTH 573 0
DWIDTH 8 0
BBX 8 10 0 0
BITMAP
4002
9006
700D
3FFC
1824
0C30
0960
0690
03C0
0280
ENDCHAR
STARTCHAR uni2201
ENCODING 8705
SWIDTH 474 0
DWIDTH 7 0
BBX 5 11 1 0
BITMAP
7E00
C180
8080
8040
8000
8000
8000
8040
8080
D180
7E00
ENDCHAR
STARTCHAR partialdiff
ENCODING 8706
SWIDTH 478 0
DWIDTH 7 0
BBX 6 10 0 0
BITMAP
0B80
1090
0020
1BA0
35B0
6030
5020
5020
3490
1F80
ENDCHAR
STARTCHAR uni2203
ENCODING 8707
SWIDTH 573 0
DWIDTH 8 0
BBX 6 10 1 0
BITMAP
FFF0
0030
0030
0030
0030
BFF0
0030
0030
0030
FFF0
ENDCHAR
STARTCHAR uni2204
ENCODING 8708
SWIDTH 573 0
DWIDTH 8 0
BBX 6 13 1 -2
BITMAP
0080
FFF0
0270
0230
0230
0530
BFF0
0830
1430
2030
FFF0
9000
4000
ENDCHAR
STARTCHAR uni2205
ENCODING 8709
SWIDTH 780 0
DWIDTH 11 0
BBX 10 10 0 -1
BITMAP
01F960
0A06C0
2803D0
300970
602830
60A020
318030
2B00A0
0E0280
25B900
ENDCHAR
STARTCHAR uni2206
ENCODING 8710
SWIDTH 748 0
DWIDTH 10 0
BBX 9 10 1 0
BITMAP
004000
02C000
02D000
05A000
087400
142800
201C00
200E00
800B00
AAAA40
ENDCHAR
STARTCHAR uni2207
ENCODING 8711
SWIDTH 748 0
DWIDTH 10 0
BBX 9 10 1 0
BITMAP
AAAA40
B00200
340200
280800
1D0800
0A1400
072000
039000
01C000
004000
ENDCHAR
STARTCHAR uni2208
ENCODING 8712
SWIDTH 720 0
DWIDTH 10 0
BBX 8 8 1 0
BITMAP
0BFF
3400
9000
FFFF
D000
A000
3400
1BFF
ENDCHAR
STARTCHAR uni2209
ENCODING 8713
SWIDTH 720 0
DWIDTH 10 0
BBX 8 12 1 -2
BITMAP
0009
0018
0BFF
3460
9080
FFFF
D200
A600
3D00
1FFF
2400
2000
ENDCHAR
STARTCHAR uni220A
ENCODING 8714
SWIDTH 497 0
DWIDTH 7 0
BBX 5 6 1 1
BITMAP
2FC0
9000
FFC0
C000
A000
2FC0
ENDCHAR
STARTCHAR uni220B
ENCODING 8715
SWIDTH 720 0
DWIDTH 10 0
BBX 8 8 1 0
BITMAP
FFE4
0019
0006
FFFF
0007
000A
001D
FFE4
ENDCHAR
STARTCHAR uni220C
ENCODING 8716
SWIDTH 720 0
DWIDTH 10 0
BBX 8 12 1 -2
BITMAP
0009
0008
FFF4
0069
0086
BFFF
0207
060A
091D
FFE4
2400
2000
ENDCHAR
STARTCHAR uni220D
ENCODING 8717
SWIDTH 497 0
DWIDTH 7 0
BBX 5 6 1 1
BITMAP
FE00
0180
FFC0
00C0
0280
FE00
ENDCHAR
STARTCHAR uni220E
ENCODING 8718
SWIDTH 558 0
DWIDTH 8 0
BBX 6 9 1 0
BITMAP
FFF0
FFF0
FFF0
FFF0
FFF0
FFF0
FFF0
FFF0
FFF0
ENDCHAR
STARTCHAR uni220F
ENCODING 8719
SWIDTH 1135 0
DWIDTH 16 0
BBX 14 15 1 -4
BITMAP
AAAAAAA0
1E000F00
0E000E00
0E000E00
0E000E00
0E000E00
0E000E00
0E000E00
0E000E00
0E000E00
0E000E00
0E000E00
0E000E00
0F000F00
AA906AA0
ENDCHAR
STARTCHAR uni2210
ENCODING 8720
SWIDTH 1135 0
DWIDTH 16 0
BBX 14 15 1 -4
BITMAP
AA906AA0
0F000F00
0E000E00
0E000E00
0E000E00
0E000E00
0E000E00
0E000E00
0E000E00
0E000E00
0E000E00
0E000E00
0E000E00
1E000F00
AAAAAAA0
ENDCHAR
STARTCHAR uni2211
ENCODING 8721
SWIDTH 936 0
DWIDTH 13 0
BBX 11 15 1 -4
BITMAP
BAAAF4
780024
1E0018
0B4004
02D000
00F000
007800
002000
009000
024000
060008
180008
340068
BFFFF4
555550
ENDCHAR
STARTCHAR uni2212
ENCODING 8722
SWIDTH 720 0
DWIDTH 10 0
BBX 9 1 1 3
BITMAP
FFFF40
ENDCHAR
STARTCHAR uni2213
ENCODING 8723
SWIDTH 720 0
DWIDTH 10 0
BBX 9 9 1 -1
BITMAP
FFFF40
000000
018000
018000
018000
FFFF40
018000
018000
014000
ENDCHAR
STARTCHAR uni2214
ENCODING 8724
SWIDTH 720 0
DWIDTH 10 0
BBX 9 12 1 -1
BITMAP
028000
028000
000000
014000
018000
018000
018000
FFFF40
018000
018000
018000
014000
ENDCHAR
STARTCHAR uni2215
ENCODING 8725
SWIDTH 535 0
DWIDTH 7 0
BBX 6 14 1 -3
BITMAP
0010
0090
00C0
0180
0240
0300
0600
0D00
1800
2400
3000
6000
9000
C000
ENDCHAR
STARTCHAR uni2216
ENCODING 8726
SWIDTH 535 0
DWIDTH 7 0
BBX 6 14 1 -3
BITMAP
4000
C000
9000
6000
2400
1800
0C00
0900
0600
0300
0280
00C0
0090
0060
ENDCHAR
STARTCHAR uni2217
ENCODING 8727
SWIDTH 536 0
DWIDTH 8 0
BBX 6 7 1 0
BITMAP
0400
0900
D490
1940
A590
4850
0900
ENDCHAR
STARTCHAR uni2218
ENCODING 8728
SWIDTH 436 0
DWIDTH 6 0
BBX 6 5 0 1
BITMAP
1A40
3090
6090
3090
1A40
ENDCHAR
STARTCHAR uni2219
ENCODING 8729
SWIDTH 457 0
DWIDTH 6 0
BBX 4 4 1 2
BITMAP
14
7E
7E
2D
ENDCHAR
STARTCHAR uni221A
ENCODING 8730
SWIDTH 794 0
DWIDTH 11 0
BBX 12 17 0 -4
BITMAP
00002E
000020
000060
000090
000080
000080
000140
180240
6D0300
0A0600
070500
028800
01C800
00E800
00B400
007000
001000
ENDCHAR
STARTCHAR uni221B
ENCODING 8731
SWIDTH 794 0
DWIDTH 11 0
BBX 12 18 0 -4
BITMAP
040000
2B002E
020020
1A0060
024090
014080
250080
000140
180240
6D0300
0A0600
070500
028800
01C800
00E800
00B400
007000
001000
ENDCHAR
STARTCHAR uni221C
ENCODING 8732
SWIDTH 794 0
DWIDTH 11 0
BBX 12 17 0 -4
BITMAP
02402E
074020
164060
224090
6BD080
024080
000140
180240
6D0300
0A0600
070500
028800
01C800
00E800
00B400
007000
001000
ENDCHAR
STARTCHAR uni221D
ENCODING 8733
SWIDTH 720 0
DWIDTH 10 0
BBX 10 6 0 0
BITMAP
0B91D0
20B640
602C00
601D00
346B40
1FD2D0
ENDCHAR
STARTCHAR uni221E
ENCODING 8734
SWIDTH 953 0
DWIDTH 13 0
BBX 12 6 1 0
BITMAP
2F42F4
91D96C
C07409
D03809
B59E08
2E42E0
ENDCHAR
STARTCHAR uni221F
ENCODING 8735
SWIDTH 720 0
DWIDTH 10 0
BBX 9 9 1 0
BITMAP
400000
800000
800000
800000
800000
800000
800000
800000
FFFF40
ENDCHAR
STARTCHAR uni2220
ENCODING 8736
SWIDTH 720 0
DWIDTH 10 0
BBX 9 8 1 0
BITMAP
000200
000D00
003400
00D000
034000
0D0000
340000
BFFF40
ENDCHAR
STARTCHAR uni2221
ENCODING 8737
SWIDTH 720 0
DWIDTH 10 0
BBX 9 9 1 -1
BITMAP
000200
000D00
01B400
00E000
037400
0D1800
340C00
BFFF40
000800
ENDCHAR
STARTCHAR uni2222
ENCODING 8738
SWIDTH 720 0
DWIDTH 10 0
BBX 8 7 1 0
BITMAP
001B
01BD
1B49
B809
079D
006E
001A
ENDCHAR
STARTCHAR uni2223
ENCODING 8739
SWIDTH 272 0
DWIDTH 4 0
BBX 2 13 1 -3
BITMAP
50
90
90
90
90
90
90
90
90
90
90
90
90
ENDCHAR
STARTCHAR uni2224
ENCODING 8740
SWIDTH 413 0
DWIDTH 6 0
BBX 6 13 0 -3
BITMAP
0500
0900
0900
0900
0900
0950
0B80
6D00
4900
0900
0900
0900
0900
ENDCHAR
STARTCHAR uni2225
ENCODING 8741
SWIDTH 535 0
DWIDTH 7 0
BBX 4 13 2 -3
BITMAP
41
86
86
86
86
86
86
86
86
86
86
86
86
ENDCHAR
STARTCHAR uni2226
ENCODING 8742
SWIDTH 623 0
DWIDTH 9 0
BBX 8 13 0 -3
BITMAP
0510
0924
0924
0924
0925
092E
0AB4
1A64
6924
0924
0924
0924
0924
ENDCHAR
STARTCHAR uni2227
ENCODING 8743
SWIDTH 636 0
DWIDTH 9 0
BBX 9 8 0 0
BITMAP
008000
01D000
036000
062400
091800
180900
240600
600240
ENDCHAR
STARTCHAR uni2228
ENCODING 8744
SWIDTH 636 0
DWIDTH 9 0
BBX 9 8 0 0
BITMAP
600240
240600
180900
091800
062400
026000
01D000
008000
ENDCHAR
STARTCHAR uni2229
ENCODING 8745
SWIDTH 636 0
DWIDTH 9 0
BBX 9 8 0 0
BITMAP
06E400
280900
300300
600240
600240
600240
600240
600240
ENDCHAR
STARTCHAR uni222A
ENCODING 8746
SWIDTH 636 0
DWIDTH 9 0
BBX 9 8 0 0
BITMAP
600240
600240
600240
600240
600200
300300
280900
06E400
ENDCHAR
STARTCHAR uni222B
ENCODING 8747
SWIDTH 684 0
DWIDTH 10 0
BBX 9 14 0 -3
BITMAP
000680
0019C0
002440
007000
007000
00A000
00D000
00D000
01C000
028000
028000
130000
A60000
680000
ENDCHAR
STARTCHAR uni222C
ENCODING 8748
SWIDTH 1016 0
DWIDTH 14 0
BBX 14 14 0 -3
BITMAP
00068290
0019C9A0
00244C50
00702800
00702800
00A03400
00E07000
00D07000
01C0A000
02C0D000
0280D000
13118000
A6364000
68190000
ENDCHAR
STARTCHAR uni222D
ENCODING 8749
SWIDTH 1348 0
DWIDTH 19 0
BBX 19 14 0 -3
BITMAP
00068290A0
0019C9A334
00244C5610
0070280D00
0070281C00
00A0341C00
00E0702800
00D0703800
01C0A03400
02C0D07000
0280D07000
1311849000
A6365C8000
68190A0000
ENDCHAR
STARTCHAR uni222E
ENCODING 8750
SWIDTH 684 0
DWIDTH 10 0
BBX 9 14 0 -3
BITMAP
000680
0019C0
002480
003000
02B400
08A900
14E200
14D200
09C500
02E400
024000
530000
A60000
280000
ENDCHAR
STARTCHAR uni222F
ENCODING 8751
SWIDTH 1016 0
DWIDTH 14 0
BBX 14 14 0 -3
BITMAP
00068190
0019C9A0
00248C50
00701800
02FAB800
0DA03A00
14E07540
14D07140
0AC0A700
02EAF800
0240D000
5311C000
A6364000
28190000
ENDCHAR
STARTCHAR uni2230
ENCODING 8752
SWIDTH 1348 0
DWIDTH 19 0
BBX 19 14 0 -3
BITMAP
00068190A0
0019C9A234
00248C5620
0070180900
01BABEAD00
0AA0341E40
24E0742C50
10D0702850
0AC0A03980
02EAEAB900
0240C07000
1311849000
A6365CC000
28190A0000
ENDCHAR
STARTCHAR uni2231
ENCODING 8753
SWIDTH 684 0
DWIDTH 10 0
BBX 9 14 0 -3
BITMAP
000680
0019C0
002440
007000
007000
01F400
05E540
08D640
05C000
02C000
028000
130000
A60000
680000
ENDCHAR
STARTCHAR uni2232
ENCODING 8754
SWIDTH 684 0
DWIDTH 10 0
BBX 9 14 0 -3
BITMAP
000680
0019C0
002440
01B400
087540
14A640
20E240
20D140
21C200
0AC500
02E400
034000
660000
680000
ENDCHAR
STARTCHAR uni2233
ENCODING 8755
SWIDTH 684 0
DWIDTH 10 0
BBX 9 14 0 -3
BITMAP
000680
0009C0
002580
003400
01B400
08AA40
10E600
10D200
09C500
02E400
024000
530000
A60000
280000
ENDCHAR
STARTCHAR uni2234
ENCODING 8756
SWIDTH 635 0
DWIDTH 9 0
BBX 9 8 0 0
BITMAP
018000
01D000
000000
000000
000000
000000
600600
740740
ENDCHAR
STARTCHAR uni2235
ENCODING 8757
SWIDTH 635 0
DWIDTH 9 0
BBX 9 8 0 0
BITMAP
600600
740740
000000
000000
000000
000000
018000
01D000
ENDCHAR
STARTCHAR uni2236
ENCODING 8758
SWIDTH 523 0
DWIDTH 7 0
BBX 2 8 3 0
BITMAP
90
D0
00
00
00
00
90
D0
ENDCHAR
STARTCHAR uni2237
ENCODING 8759
SWIDTH 720 0
DWIDTH 10 0
BBX 8 8 1 0
BITMAP
6009
700E
0000
0000
0000
0000
6009
700E
ENDCHAR
STARTCHAR uni2238
ENCODING 8760
SWIDTH 720 0
DWIDTH 10 0
BBX 9 4 1 3
BITMAP
028000
028000
000000
FFFF40
ENDCHAR
STARTCHAR uni2239
ENCODING 8761
SWIDTH 720 0
DWIDTH 10 0
BBX 8 7 1 0
BITMAP
0007
0006
0000
FFE0
0000
0006
0007
ENDCHAR
STARTCHAR uni223A
ENCODING 8762
SWIDTH 720 0
DWIDTH 10 0
BBX 9 7 1 0
BITMAP
D00700
900600
000000
FFFF40
000000
900600
D00700
ENDCHAR
STARTCHAR uni223B
ENCODING 8763
SWIDTH 720 0
DWIDTH 10 0
BBX 8 8 1 0
BITMAP
0180
02C0
0000
2D01
8692
407D
0180
02C0
ENDCHAR
STARTCHAR uni223C
ENCODING 8764
SWIDTH 720 0
DWIDTH 10 0
BBX 8 3 1 2
BITMAP
2D01
8282
407D
ENDCHAR
STARTCHAR uni223D
ENCODING 8765
SWIDTH 720 0
DWIDTH 10 0
BBX 8 3 1 2
BITMAP
407D
8292
2D01
ENDCHAR
STARTCHAR uni223E
ENCODING 8766
SWIDTH 720 0
DWIDTH 10 0
BBX 9 5 1 1
BITMAP
780900
860200
414140
809200
602D00
ENDCHAR
STARTCHAR uni223F
ENCODING 8767
SWIDTH 720 0
DWIDTH 10 0
BBX 9 6 1 1
BITMAP
6D0000
930000
824000
018240
00C700
007D00
ENDCHAR
STARTCHAR uni2240
ENCODING 8768
SWIDTH 293 0
DWIDTH 4 0
BBX 4 9 0 -1
BITMAP
50
18
09
09
18
34
60
20
19
ENDCHAR
STARTCHAR uni2241
ENCODING 8769
SWIDTH 720 0
DWIDTH 10 0
BBX 8 5 1 1
BITMAP
0060
2D81
82D2
427D
0500
ENDCHAR
STARTCHAR uni2242
ENCODING 8770
SWIDTH 720 0
DWIDTH 10 0
BBX 9 6 1 1
BITMAP
FFFF40
000000
000000
2D0100
829200
407C00
ENDCHAR
STARTCHAR uni2243
ENCODING 8771
SWIDTH 720 0
DWIDTH 10 0
BBX 9 6 1 1
BITMAP
2D0140
829200
407D00
000000
000000
FFFF40
ENDCHAR
STARTCHAR uni2244
ENCODING 8772
SWIDTH 720 0
DWIDTH 10 0
BBX 9 9 1 -1
BITMAP
001000
2D5100
82D200
41BD00
020000
020000
FFFF40
080000
040000
ENDCHAR
STARTCHAR uni2245
ENCODING 8773
SWIDTH 720 0
DWIDTH 10 0
BBX 9 8 1 0
BITMAP
2D0100
869200
407D00
000000
FFFF40
000000
000000
FFFF40
ENDCHAR
STARTCHAR uni2246
ENCODING 8774
SWIDTH 720 0
DWIDTH 10 0
BBX 9 10 1 -1
BITMAP
2D0100
869200
407C00
000000
002000
FFFF40
018000
020000
FFFF40
080000
ENDCHAR
STARTCHAR uni2247
ENCODING 8775
SWIDTH 720 0
DWIDTH 10 0
BBX 9 13 1 -3
BITMAP
000400
000800
2D2500
82A200
40BD00
008000
FFFF40
020000
020000
FFFF40
080000
140000
100000
ENDCHAR
STARTCHAR uni2248
ENCODING 8776
SWIDTH 720 0
DWIDTH 10 0
BBX 8 6 1 0
BITMAP
6D01
8181
4010
2D01
8282
407C
ENDCHAR
ENDFONT
